<svg width="90" height="91" viewBox="0 0 90 91" fill="none" xmlns="http://www.w3.org/2000/svg">
<g clip-path="url(#clip0_71_181)">
<path d="M44.7417 91C20.0704 91 0 70.5894 0 45.5C0 20.4106 20.0704 0 44.7417 0C69.4129 0 89.4833 20.4106 89.4833 45.5C89.4833 70.5894 69.4129 91 44.7417 91ZM44.7417 2.14623C21.2354 2.14623 2.11046 21.5953 2.11046 45.5C2.11046 69.4047 21.2354 88.8538 44.7417 88.8538C68.2479 88.8538 87.3729 69.4047 87.3729 45.5C87.3729 21.5953 68.2479 2.14623 44.7417 2.14623Z" fill="url(#paint0_linear_71_181)"/>
<path d="M24.0592 48.5047C26.2738 48.5047 28.069 46.679 28.069 44.4269C28.069 42.1748 26.2738 40.3491 24.0592 40.3491C21.8446 40.3491 20.0493 42.1748 20.0493 44.4269C20.0493 46.679 21.8446 48.5047 24.0592 48.5047Z" fill="url(#paint1_linear_71_181)"/>
<path d="M61.8364 48.5047C64.051 48.5047 65.8463 46.679 65.8463 44.4269C65.8463 42.1748 64.051 40.3491 61.8364 40.3491C59.6218 40.3491 57.8265 42.1748 57.8265 44.4269C57.8265 46.679 59.6218 48.5047 61.8364 48.5047Z" fill="url(#paint2_linear_71_181)"/>
<path d="M42.8423 60.309C53.9152 60.309 62.8916 51.1804 62.8916 39.9198C62.8916 28.6592 53.9152 19.5307 42.8423 19.5307C31.7694 19.5307 22.793 28.6592 22.793 39.9198C22.793 51.1804 31.7694 60.309 42.8423 60.309Z" fill="url(#paint3_linear_71_181)"/>
<path d="M47.9073 25.2525C47.3126 26.284 46.4384 27.1195 45.389 27.659C44.3397 28.1986 43.1598 28.4193 41.9903 28.2948C40.8209 28.1703 39.7115 27.7059 38.7948 26.9571C37.8781 26.2083 37.1929 25.2068 36.8211 24.0723C36.4494 22.9379 36.4068 21.7186 36.6986 20.5603C36.9903 19.4019 37.604 18.3536 38.4662 17.5405C39.3284 16.7275 40.4026 16.1843 41.5605 15.9758C42.7183 15.7673 43.9106 15.9024 44.9949 16.365C44.1111 16.2182 43.205 16.306 42.3643 16.6198C41.5236 16.9336 40.7768 17.4627 40.1962 18.156C39.6156 18.8493 39.2207 19.6833 39.0499 20.5773C38.8792 21.4713 38.9382 22.3949 39.2213 23.2589C39.5044 24.1229 40.0021 24.8979 40.6661 25.509C41.3301 26.1201 42.1379 26.5465 43.0114 26.747C43.885 26.9474 44.7946 26.9152 45.6523 26.6534C46.51 26.3916 47.2868 25.9091 47.9073 25.2525Z" fill="url(#paint4_linear_71_181)"/>
<path d="M34.5059 45.5C35.6132 45.5 36.5108 44.4911 36.5108 43.2465C36.5108 42.0019 35.6132 40.9929 34.5059 40.9929C33.3986 40.9929 32.501 42.0019 32.501 43.2465C32.501 44.4911 33.3986 45.5 34.5059 45.5Z" fill="url(#paint5_linear_71_181)"/>
<path opacity="0.5" d="M33.8728 43.0361C34.1642 43.0361 34.4004 42.7709 34.4004 42.4438C34.4004 42.1166 34.1642 41.8514 33.8728 41.8514C33.5814 41.8514 33.3452 42.1166 33.3452 42.4438C33.3452 42.7709 33.5814 43.0361 33.8728 43.0361Z" fill="url(#paint6_linear_71_181)"/>
<path d="M51.1785 45.5C52.2858 45.5 53.1834 44.4911 53.1834 43.2465C53.1834 42.0019 52.2858 40.9929 51.1785 40.9929C50.0712 40.9929 49.1736 42.0019 49.1736 43.2465C49.1736 44.4911 50.0712 45.5 51.1785 45.5Z" fill="url(#paint7_linear_71_181)"/>
<path opacity="0.5" d="M50.5454 43.0361C50.8368 43.0361 51.0731 42.7709 51.0731 42.4438C51.0731 42.1166 50.8368 41.8514 50.5454 41.8514C50.254 41.8514 50.0178 42.1166 50.0178 42.4438C50.0178 42.7709 50.254 43.0361 50.5454 43.0361Z" fill="url(#paint8_linear_71_181)"/>
<path d="M31.6779 37.6706C31.737 37.6985 31.8036 37.7053 31.8669 37.6897C31.9301 37.6741 31.9863 37.6371 32.0262 37.5847C32.7838 36.4901 33.6913 36.3141 34.7444 36.4043C34.8125 36.4164 34.8825 36.4113 34.9482 36.3895C35.0139 36.3677 35.0734 36.3298 35.1213 36.2791C35.1692 36.2285 35.2042 36.1666 35.2231 36.099C35.2421 36.0314 35.2444 35.9601 35.2299 35.8913C35.2061 35.8076 35.1579 35.7331 35.0915 35.6779C35.0252 35.6227 34.9439 35.5893 34.8584 35.5823C34.1983 35.4877 33.5257 35.6048 32.9341 35.9171C32.3425 36.2295 31.8614 36.7216 31.5577 37.325C31.5411 37.3553 31.5311 37.3889 31.5283 37.4234C31.5255 37.4579 31.5299 37.4927 31.5413 37.5254C31.5526 37.558 31.5707 37.5879 31.5943 37.6129C31.6178 37.6379 31.6464 37.6576 31.6779 37.6706Z" fill="url(#paint9_linear_71_181)"/>
<path d="M53.6668 37.6706C53.6075 37.6987 53.5405 37.7055 53.4769 37.6899C53.4132 37.6743 53.3567 37.6372 53.3165 37.5847C52.5588 36.4901 51.6534 36.3141 50.5982 36.4043C50.5301 36.4164 50.4601 36.4113 50.3944 36.3895C50.3287 36.3677 50.2693 36.3298 50.2214 36.2791C50.1734 36.2285 50.1385 36.1666 50.1195 36.099C50.1006 36.0314 50.0983 35.9601 50.1128 35.8913C50.1379 35.808 50.1869 35.7341 50.2534 35.6791C50.3199 35.624 50.401 35.5904 50.4863 35.5823C51.1461 35.4876 51.8186 35.6046 52.4099 35.9169C53.0012 36.2293 53.4819 36.7216 53.785 37.325C53.8016 37.3552 53.8117 37.3886 53.8147 37.423C53.8176 37.4575 53.8134 37.4921 53.8022 37.5248C53.7911 37.5574 53.7732 37.5873 53.7499 37.6124C53.7265 37.6376 53.6982 37.6574 53.6668 37.6706Z" fill="url(#paint10_linear_71_181)"/>
<path d="M47.2109 49.5778C47.0642 50.8268 46.5151 51.9912 45.6492 52.8895C45.2665 53.2759 44.8117 53.5807 44.3116 53.786C43.8115 53.9913 43.2761 54.0929 42.7368 54.0849C42.1972 54.0965 41.6609 53.9963 41.1605 53.7904C40.6602 53.5845 40.2063 53.2773 39.8265 52.8873C38.998 51.9974 38.4612 50.8681 38.29 49.6551C38.2776 49.567 38.2873 49.4771 38.3182 49.3938C38.3491 49.3105 38.4002 49.2366 38.4667 49.1787C38.5333 49.1209 38.6131 49.0811 38.6988 49.0631C38.7845 49.0451 38.8733 49.0494 38.957 49.0756C40.7994 49.6937 44.7312 49.6916 46.5314 49.0348C46.6127 49.0059 46.6998 48.9983 46.7847 49.0127C46.8697 49.0271 46.9497 49.063 47.0174 49.1171C47.0851 49.1712 47.1383 49.2417 47.1721 49.3223C47.206 49.4028 47.2193 49.4907 47.2109 49.5778Z" fill="url(#paint11_linear_71_181)"/>
<path d="M45.6492 52.8916C45.2663 53.2777 44.8114 53.5821 44.3113 53.787C43.8112 53.9919 43.2759 54.0932 42.7367 54.0849C42.1971 54.0965 41.6608 53.9963 41.1605 53.7904C40.6602 53.5845 40.2063 53.2773 39.8264 52.8873C40.1009 52.3424 40.518 51.8851 41.0317 51.5658C41.5454 51.2465 42.1357 51.0775 42.7378 51.0775C43.3398 51.0775 43.9302 51.2465 44.4439 51.5658C44.9576 51.8851 45.3746 52.3424 45.6492 52.8873V52.8916Z" fill="url(#paint12_linear_71_181)"/>
<path d="M23.4261 52.3679C26.5453 58.7079 31.8679 62.6698 41.9981 66.3184C33.8517 71.1495 29.2425 77.0345 26.8028 83.4882C19.2706 74.2766 18.5594 63.8288 23.4261 52.3679Z" fill="url(#paint13_linear_71_181)"/>
<path d="M63.5247 50.8656C56.3492 66.3184 33.1341 65.2453 27.4359 85.6344C38.539 90.2274 49.6527 90.6802 60.7811 86.0637C70.7003 72.2999 68.9317 61.1675 63.5247 50.8656Z" fill="url(#paint14_linear_71_181)"/>
<path d="M24.6924 49.5778L24.2703 51.2948C26.4039 57.1776 32.7374 61.9744 43.6865 65.4599C56.1381 60.0943 61.4692 53.9089 62.6806 50.0071L61.5177 48.582C60.148 53.6556 52.5504 61.1674 43.4754 61.1674C33.1342 60.9528 27.858 56.0165 24.6924 49.5778Z" fill="url(#paint15_linear_71_181)"/>
<path d="M14.1401 39.2759C14.8394 39.2759 15.4063 38.6994 15.4063 37.9882C15.4063 37.277 14.8394 36.7005 14.1401 36.7005C13.4407 36.7005 12.8738 37.277 12.8738 37.9882C12.8738 38.6994 13.4407 39.2759 14.1401 39.2759Z" fill="url(#paint16_linear_71_181)"/>
<path d="M74.077 48.2901C74.5432 48.2901 74.9212 47.9057 74.9212 47.4316C74.9212 46.9575 74.5432 46.5731 74.077 46.5731C73.6107 46.5731 73.2328 46.9575 73.2328 47.4316C73.2328 47.9057 73.6107 48.2901 74.077 48.2901Z" fill="url(#paint17_linear_71_181)"/>
<path d="M70.9113 27.4717C71.2215 29.6823 72.3633 30.9507 74.288 31.3349C71.9665 31.307 71.1371 32.8501 70.9113 34.9835C70.4364 32.6806 69.4129 31.2941 67.5345 31.3349C69.5458 30.7619 70.6179 29.4312 70.9113 27.4717Z" fill="url(#paint18_linear_71_181)"/>
</g>
<defs>
<linearGradient id="paint0_linear_71_181" x1="14.7669" y1="5.02861" x2="73.7207" y2="81.9971" gradientUnits="userSpaceOnUse">
<stop stop-color="#99D5D9"/>
<stop offset="1" stop-color="#4AA5C8"/>
</linearGradient>
<linearGradient id="paint1_linear_71_181" x1="20.0493" y1="44.4269" x2="28.069" y2="44.4269" gradientUnits="userSpaceOnUse">
<stop stop-color="#FFE9DD"/>
<stop offset="1" stop-color="#FFD9CF"/>
</linearGradient>
<linearGradient id="paint2_linear_71_181" x1="57.8265" y1="5.28925e-06" x2="65.8463" y2="5.28925e-06" gradientUnits="userSpaceOnUse">
<stop stop-color="#FFE9DD"/>
<stop offset="1" stop-color="#FFD9CF"/>
</linearGradient>
<linearGradient id="paint3_linear_71_181" x1="22.793" y1="39.9198" x2="62.8916" y2="39.9198" gradientUnits="userSpaceOnUse">
<stop stop-color="#FFE9DD"/>
<stop offset="1" stop-color="#FFD9CF"/>
</linearGradient>
<linearGradient id="paint4_linear_71_181" x1="36.5109" y1="22.1061" x2="47.9073" y2="22.1061" gradientUnits="userSpaceOnUse">
<stop stop-color="#3C599F"/>
<stop offset="1" stop-color="#87C1DD"/>
</linearGradient>
<linearGradient id="paint5_linear_71_181" x1="32.3828" y1="46.0451" x2="36.346" y2="40.9951" gradientUnits="userSpaceOnUse">
<stop stop-color="#19295F"/>
<stop offset="1" stop-color="#4F95DD"/>
</linearGradient>
<linearGradient id="paint6_linear_71_181" x1="33.3452" y1="42.4438" x2="34.4004" y2="42.4438" gradientUnits="userSpaceOnUse">
<stop stop-color="white"/>
<stop offset="1" stop-color="#4F95DD"/>
</linearGradient>
<linearGradient id="paint7_linear_71_181" x1="49.0554" y1="46.0451" x2="53.0186" y2="40.9951" gradientUnits="userSpaceOnUse">
<stop stop-color="#19295F"/>
<stop offset="1" stop-color="#4F95DD"/>
</linearGradient>
<linearGradient id="paint8_linear_71_181" x1="50.0178" y1="42.4438" x2="51.0731" y2="42.4438" gradientUnits="userSpaceOnUse">
<stop stop-color="white"/>
<stop offset="1" stop-color="#4F95DD"/>
</linearGradient>
<linearGradient id="paint9_linear_71_181" x1="29.6583" y1="39.1729" x2="36.6303" y2="34.4066" gradientUnits="userSpaceOnUse">
<stop stop-color="#3C599F"/>
<stop offset="1" stop-color="#87AFDD"/>
</linearGradient>
<linearGradient id="paint10_linear_71_181" x1="56.1593" y1="39.0549" x2="47.7344" y2="34.0826" gradientUnits="userSpaceOnUse">
<stop stop-color="#3C599F"/>
<stop offset="1" stop-color="#87AFDD"/>
</linearGradient>
<linearGradient id="paint11_linear_71_181" x1="39.2841" y1="56.2655" x2="44.5905" y2="46.9173" gradientUnits="userSpaceOnUse">
<stop stop-color="#19295F"/>
<stop offset="1" stop-color="#4F95DD"/>
</linearGradient>
<linearGradient id="paint12_linear_71_181" x1="39.8264" y1="52.5826" x2="45.6492" y2="52.5826" gradientUnits="userSpaceOnUse">
<stop stop-color="#E7919F"/>
<stop offset="1" stop-color="#F3B5AB"/>
</linearGradient>
<linearGradient id="paint13_linear_71_181" x1="20.3364" y1="67.9281" x2="41.9981" y2="67.9281" gradientUnits="userSpaceOnUse">
<stop stop-color="#43ABC8"/>
<stop offset="1" stop-color="#6BD1D1"/>
</linearGradient>
<linearGradient id="paint14_linear_71_181" x1="27.4359" y1="70.0893" x2="67.9018" y2="70.0893" gradientUnits="userSpaceOnUse">
<stop stop-color="#43ABC8"/>
<stop offset="1" stop-color="#6BD1D1"/>
</linearGradient>
<linearGradient id="paint15_linear_71_181" x1="24.2703" y1="57.0209" x2="62.6806" y2="57.0209" gradientUnits="userSpaceOnUse">
<stop stop-color="#43ABC8"/>
<stop offset="1" stop-color="#6BD1D1"/>
</linearGradient>
<linearGradient id="paint16_linear_71_181" x1="12.8738" y1="37.9882" x2="15.4063" y2="37.9882" gradientUnits="userSpaceOnUse">
<stop stop-color="#43ABC8"/>
<stop offset="1" stop-color="#6BD1D1"/>
</linearGradient>
<linearGradient id="paint17_linear_71_181" x1="73.2328" y1="47.4316" x2="74.9212" y2="47.4316" gradientUnits="userSpaceOnUse">
<stop stop-color="#43ABC8"/>
<stop offset="1" stop-color="#6BD1D1"/>
</linearGradient>
<linearGradient id="paint18_linear_71_181" x1="67.5345" y1="31.2276" x2="74.288" y2="31.2276" gradientUnits="userSpaceOnUse">
<stop stop-color="#43ABC8"/>
<stop offset="1" stop-color="#6BD1D1"/>
</linearGradient>
<clipPath id="clip0_71_181">
<rect width="89.4833" height="91" fill="white"/>
</clipPath>
</defs>
</svg>
