<svg width="91" height="91" viewBox="0 0 91 91" fill="none" xmlns="http://www.w3.org/2000/svg">
<path d="M57.0896 19.9599C53.4711 24.643 48.5047 26.184 43.9976 24.6816C39.276 45.7146 27.2571 33.0519 29.8326 59.6651C24.467 59.2358 20.1745 54.9434 19.7453 51.9387C18.8868 44.4269 22.9646 45.7146 19.9599 38.6321C15.6675 28.5448 28.3302 28.7594 30.2618 19.5306C33.4811 5.15093 53.0118 4.07782 57.9481 16.0967C62.2406 18.6722 61.1675 25.3255 56.4458 28.5448C57.5768 26.214 58.1627 22.9646 57.0896 19.9599Z" fill="url(#paint0_linear_75_673)"/>
<path d="M57.0897 19.9598C57.7336 22.9238 57.2378 25.7203 55.802 28.3301C54.7289 30.0471 56.2312 32.1933 55.802 32.8372C55.3727 33.2664 54.5142 33.2664 54.085 33.0518C52.1534 35.4127 50.4364 37.9881 48.5048 37.5589C47.0411 37.1747 45.807 36.3592 44.6416 35.4127C43.1392 38.0783 43.9162 40.379 47.2171 42.2806C51.7242 45.0707 45.2855 46.573 41.8515 42.4952C39.0614 39.2759 37.1792 39.5248 34.3397 39.9197C41.8515 34.1249 40.7784 30.691 41.2763 28.9182C37.5591 26.8278 40.993 19.316 43.9977 24.4669C48.7194 25.7547 53.2823 24.3811 57.0897 19.9598Z" fill="url(#paint1_linear_75_673)"/>
<path d="M52.7973 78.3373C52.7973 80.0543 51.2949 82.2005 49.7925 82.8444C42.2378 79.7238 36.9839 74.884 33.2666 68.8939C29.8326 56.6604 28.1157 43.7831 36.0567 40.3491C37.559 39.7052 40.5638 40.7783 42.255 42.7529C44.427 45.2854 51.7241 46.1439 47.2171 42.2807C52.5826 46.5731 60.309 50.0071 56.2312 55.5873C52.3101 55.5873 49.6165 57.2549 47.0024 59.0213C62.6699 48.5048 77.2642 70.3963 63.743 85.6345C51.7477 91.1739 40.0358 92.0731 28.7595 85.4198C28.4226 80.0543 29.691 74.9033 32.8373 69.967C36.046 75.3562 41.2763 79.9942 49.5779 83.4882C51.3378 82.222 52.5075 80.3891 53.2265 78.1227C49.0531 74.5826 45.1769 70.7064 41.6369 66.5331C41.3901 61.8822 41.272 56.3556 41.2076 50.4364C40.61 55.852 40.4664 61.3081 40.7784 66.7477C44.0986 71.1152 48.1357 74.9548 52.7973 78.3373Z" fill="url(#paint2_linear_75_673)"/>
<path d="M52.7972 78.3372C56.6604 77.4787 57.7335 79.1957 60.5236 78.3372C61.322 78.951 60.2574 79.5262 57.0896 80.0542C59.0212 81.5565 63.099 79.8395 63.3137 80.4834C63.5283 81.3419 61.0193 82.2004 58.8066 82.2004C60.1246 82.249 61.4388 82.03 62.6698 81.5565C62.6698 82.6296 60.0943 83.4881 58.1627 83.4881C59.2766 83.5783 60.6287 83.237 61.8113 82.8443C60.9528 83.9174 58.9182 84.3466 57.0896 84.3466C58.0249 84.3908 58.9621 84.3187 59.8797 84.132C56.9029 85.6537 53.5033 84.4582 50.2217 82.6296C51.5094 81.7711 52.7972 80.0542 52.7972 78.3372Z" fill="url(#paint3_linear_75_673)"/>
<path d="M51.5094 27.0425C51.5094 28.3302 53.441 29.618 54.0849 27.6863C53.6556 28.5448 51.724 28.3302 51.5094 27.0425Z" fill="#56413F"/>
<path d="M50.4363 32.8373C50.4363 33.2665 50.9063 34.9835 52.3679 34.9835C53.0118 34.9835 52.7971 34.5543 52.5825 34.5543C51.3119 34.4834 50.6509 33.6958 50.4363 32.8373Z" fill="#F4B1A6"/>
<path d="M45.5 91C20.4106 91 0 70.5894 0 45.5C0 20.4106 20.4106 0 45.5 0C70.5894 0 91 20.4106 91 45.5C91 70.5894 70.5894 91 45.5 91ZM45.5 2.14623C21.5953 2.14623 2.14623 21.5953 2.14623 45.5C2.14623 69.4047 21.5953 88.8538 45.5 88.8538C69.4047 88.8538 88.8538 69.4047 88.8538 45.5C88.8538 21.5953 69.4047 2.14623 45.5 2.14623Z" fill="url(#paint4_linear_75_673)"/>
<path d="M65.6745 45.0707C73.4009 40.5637 69.3231 34.7688 65.6745 39.0613C62.8844 34.7688 57.7335 39.9198 65.6745 45.0707Z" fill="url(#paint5_linear_75_673)"/>
<defs>
<linearGradient id="paint0_linear_75_673" x1="17.041" y1="47.9553" x2="56.9866" y2="15.734" gradientUnits="userSpaceOnUse">
<stop stop-color="#3C599F"/>
<stop offset="1" stop-color="#87C1DD"/>
</linearGradient>
<linearGradient id="paint1_linear_75_673" x1="69.3039" y1="18.039" x2="40.4436" y2="36.5244" gradientUnits="userSpaceOnUse">
<stop stop-color="#FFE9DD"/>
<stop offset="1" stop-color="#FFD9CF"/>
</linearGradient>
<linearGradient id="paint2_linear_75_673" x1="31.8136" y1="93.451" x2="53.1836" y2="56.0788" gradientUnits="userSpaceOnUse">
<stop stop-color="#43ABC8"/>
<stop offset="1" stop-color="#6BD1D1"/>
</linearGradient>
<linearGradient id="paint3_linear_75_673" x1="46.9551" y1="82.6447" x2="65.0392" y2="80.2344" gradientUnits="userSpaceOnUse">
<stop stop-color="#FFE9DD"/>
<stop offset="1" stop-color="#FFD9CF"/>
</linearGradient>
<linearGradient id="paint4_linear_75_673" x1="15.0171" y1="5.02861" x2="73.7057" y2="82.9495" gradientUnits="userSpaceOnUse">
<stop stop-color="#99D5D9"/>
<stop offset="1" stop-color="#4AA5C8"/>
</linearGradient>
<linearGradient id="paint5_linear_75_673" x1="61.44" y1="41.2655" x2="70.07" y2="41.2655" gradientUnits="userSpaceOnUse">
<stop stop-color="#43ABC8"/>
<stop offset="1" stop-color="#6BD1D1"/>
</linearGradient>
</defs>
</svg>
