<svg width="74" height="97" viewBox="0 0 74 97" fill="none" xmlns="http://www.w3.org/2000/svg">
<path d="M35.1468 0C32.7525 0 30.4563 0.949921 28.7632 2.64079C27.0702 4.33167 26.1191 6.62498 26.1191 9.01623V25.8554H11.3164C8.34119 25.8554 5.48781 27.0358 3.38399 29.137C1.28018 31.2381 0.0982666 34.0879 0.0982666 37.0594V47.9969H0.297406C2.61727 47.9993 4.93426 47.8336 7.2301 47.501C11.8182 46.8319 16.2825 45.4916 20.4795 43.5232C27.8274 40.0774 34.1748 34.8182 38.9224 28.242C39.4853 27.4633 40.0239 26.6677 40.5381 25.8554C43.6709 20.9195 45.8591 15.4458 46.9915 9.71234C47.5919 6.66837 47.8934 3.57316 47.8917 0.470701V0.00662999L35.1468 0Z" fill="url(#paint0_linear_70_585)"/>
<path d="M45.7237 16.0555C44.5192 21.2217 42.452 26.1484 39.6088 30.6287C39.0946 31.441 38.556 32.2366 37.9931 33.0153C33.2455 39.5915 26.8981 44.8507 19.5502 48.2965C15.3532 50.2649 10.8888 51.6052 6.30079 52.2743C4.24625 52.5737 2.17434 52.7389 0.0982666 52.7688V50.117C2.21054 50.0884 4.31875 49.9232 6.40965 49.6224C12.7859 48.7107 18.9159 46.5378 24.441 43.2308C29.966 39.9239 34.7751 35.5494 38.5865 30.3635C39.1574 29.5847 39.7039 28.7892 40.2261 27.9768C42.6088 24.2799 44.4594 20.2669 45.7237 16.0555Z" fill="url(#paint1_linear_70_585)"/>
<path d="M47.8916 0V0.464071C47.8933 3.56653 47.5919 6.66174 46.9915 9.70571C45.5232 14.1665 42.7496 18.0853 39.029 20.956C35.3084 23.8267 30.8115 25.5176 26.1191 25.8103V9.01623C26.1191 6.62498 27.0702 4.33166 28.7632 2.64079C30.4562 0.949921 32.7524 0 35.1467 0H47.8916Z" fill="url(#paint2_linear_70_585)"/>
<path d="M38.864 78.6202C41.2583 78.6202 43.5545 77.6703 45.2475 75.9794C46.9405 74.2886 47.8917 71.9952 47.8917 69.604V52.7649H62.6943C65.6696 52.7649 68.523 51.5844 70.6268 49.4833C72.7306 47.3821 73.9125 44.5323 73.9125 41.5609V30.6234H73.7134C71.3934 30.6227 69.0764 30.7902 66.7807 31.1246C62.1926 31.7936 57.7282 33.1339 53.5313 35.1023C46.184 38.5466 39.8366 43.804 35.0883 50.3782C34.5254 51.157 33.9869 51.9525 33.4727 52.7649C28.6588 60.3603 26.1083 69.167 26.1191 78.1562V78.6202H38.864Z" fill="url(#paint3_linear_70_585)"/>
<path d="M28.287 62.5647C29.4915 57.3985 31.5587 52.4719 34.4019 47.9916C34.9162 47.1792 35.4547 46.3837 36.0176 45.6049C40.7651 39.0283 47.1125 33.7686 54.4606 30.3224C58.6575 28.354 63.1219 27.0137 67.7099 26.3446C69.7645 26.0452 71.8364 25.88 73.9125 25.8501V28.5019C67.0841 28.5932 60.3509 30.115 54.1486 32.9689C46.7137 36.3976 40.2726 41.6562 35.4295 48.2514C34.8586 49.0302 34.3121 49.8257 33.7899 50.6381C31.405 54.3364 29.5526 58.3512 28.287 62.5647Z" fill="url(#paint4_linear_70_585)"/>
<path d="M26.1191 78.6202V78.1562C26.1174 75.0537 26.4188 71.9585 27.0192 68.9145C28.4867 64.4527 31.2598 60.5329 34.9805 57.6611C38.7012 54.7894 43.1985 53.0977 47.8916 52.8046V69.604C47.8916 71.9953 46.9405 74.2886 45.2475 75.9794C43.5545 77.6703 41.2583 78.6202 38.864 78.6202H26.1191Z" fill="url(#paint5_linear_70_585)"/>
<path d="M31.9167 90.2326L33.1978 86.6155H33.932L35.2025 90.2273H34.6595L33.5974 87.0372H33.531L32.469 90.2273L31.9167 90.2326ZM32.5247 89.4225V89.0406H34.6489V89.4225H32.5247Z" fill="#0082A0"/>
<path d="M35.7773 91.1143V88.8205V87.4044H36.2327L36.2048 88.131H36.2871C36.3257 87.9822 36.3876 87.8403 36.4703 87.7107C36.5458 87.5938 36.6494 87.4976 36.7717 87.4309C36.9123 87.3618 37.0678 87.3281 37.2244 87.3328C37.4562 87.3248 37.6842 87.3928 37.8736 87.5264C38.0517 87.6621 38.1868 87.8463 38.2626 88.0568C38.3535 88.3006 38.3985 88.559 38.3954 88.8192C38.3989 89.078 38.3539 89.3353 38.2626 89.5776C38.1874 89.7863 38.0555 89.97 37.8816 90.108C37.7002 90.2405 37.4795 90.3082 37.255 90.3002C37.084 90.3067 36.9146 90.2649 36.7664 90.1796C36.6396 90.0996 36.5343 89.9899 36.4597 89.86C36.382 89.7237 36.3197 89.5792 36.2739 89.4291H36.1916C36.2101 89.5272 36.2247 89.6306 36.238 89.738C36.2513 89.8454 36.2619 89.9502 36.2712 90.0523C36.2805 90.1544 36.2845 90.2525 36.2845 90.348V91.109L35.7773 91.1143ZM37.1315 89.8666C37.2788 89.8721 37.4232 89.8251 37.5391 89.7341C37.6566 89.6345 37.744 89.504 37.7913 89.3575C37.8504 89.1829 37.8791 88.9995 37.8763 88.8152C37.8805 88.6269 37.8499 88.4395 37.786 88.2623C37.7351 88.1221 37.6469 87.9984 37.5311 87.9043C37.4175 87.8157 37.2769 87.7688 37.1328 87.7717C37.007 87.7695 36.8829 87.8006 36.773 87.8619C36.6684 87.9226 36.5779 88.0048 36.5075 88.1032C36.4348 88.2033 36.3776 88.3137 36.3376 88.4307C36.2985 88.5447 36.2784 88.6642 36.2778 88.7847V88.8497C36.2792 88.9322 36.2913 89.0142 36.3137 89.0936C36.3392 89.1849 36.373 89.2736 36.4146 89.3588C36.4587 89.4508 36.515 89.5364 36.5819 89.6134C36.6498 89.6927 36.7344 89.7561 36.8296 89.7992C36.9248 89.8422 37.0283 89.8639 37.1328 89.8627L37.1315 89.8666Z" fill="#0082A0"/>
<path d="M39.1202 90.2326V86.3967H39.6168V90.2326H39.1202Z" fill="#0082A0"/>
<path d="M40.7359 86.9112C40.6414 86.9182 40.5475 86.8919 40.4704 86.8369C40.4423 86.8092 40.42 86.7761 40.4048 86.7397C40.3896 86.7033 40.3817 86.6642 40.3817 86.6248C40.3817 86.5853 40.3896 86.5462 40.4048 86.5098C40.42 86.4734 40.4423 86.4404 40.4704 86.4126C40.5499 86.3666 40.6401 86.3424 40.7319 86.3424C40.8238 86.3424 40.914 86.3666 40.9935 86.4126C41.0247 86.4395 41.0492 86.4732 41.0651 86.5112C41.081 86.5492 41.0879 86.5903 41.0851 86.6314C41.0877 86.6709 41.0807 86.7104 41.0647 86.7467C41.0488 86.7829 41.0244 86.8148 40.9935 86.8396C40.9181 86.8917 40.8274 86.9169 40.7359 86.9112ZM40.4903 90.226V87.411H40.9882V90.2392L40.4903 90.226Z" fill="#0082A0"/>
<path d="M41.8484 90.2326V86.3967H42.3476V88.5858C42.7613 88.358 43.1262 88.0512 43.4216 87.6829C43.4926 87.5953 43.5565 87.5022 43.6128 87.4044H44.1942C44.1201 87.5498 44.0311 87.6871 43.9287 87.8141C43.8198 87.9505 43.6999 88.0777 43.5703 88.1947C43.4425 88.3103 43.3027 88.4121 43.1534 88.4983C43.0181 88.578 42.8725 88.6387 42.7206 88.6786V88.7449C42.8822 88.7242 43.0464 88.7456 43.1972 88.8073C43.3363 88.867 43.4629 88.9525 43.5703 89.0592C43.6847 89.1727 43.785 89.2996 43.869 89.4371C43.9579 89.5803 44.0456 89.7314 44.1345 89.8879L44.3044 90.2326H43.7455L43.6247 89.9807C43.5229 89.7951 43.4207 89.6267 43.318 89.4755C43.2256 89.3334 43.1055 89.2112 42.9649 89.1162C42.8235 89.0261 42.6586 88.98 42.4909 88.9836H42.3582V90.2313L41.8484 90.2326Z" fill="#0082A0"/>
<path d="M45.4648 90.2989C45.3201 90.3015 45.1768 90.2716 45.0453 90.2114C44.924 90.1535 44.8225 90.0612 44.7532 89.9462C44.6746 89.8088 44.6364 89.6521 44.643 89.4941C44.6406 89.3715 44.666 89.25 44.7173 89.1387C44.7695 89.0319 44.8487 88.9405 44.947 88.8735C45.0711 88.7911 45.2079 88.7297 45.3519 88.6919C45.5491 88.6387 45.7495 88.5988 45.952 88.5725C46.0848 88.554 46.1976 88.5354 46.2813 88.5169C46.351 88.5065 46.4158 88.475 46.4671 88.4267C46.4895 88.4 46.5065 88.3692 46.5169 88.336C46.5274 88.3028 46.5312 88.2678 46.5282 88.2331C46.5293 88.1689 46.5172 88.1051 46.4925 88.0458C46.4678 87.9865 46.4312 87.9329 46.3848 87.8884C46.3242 87.8362 46.2537 87.7967 46.1776 87.7721C46.1014 87.7475 46.0211 87.7384 45.9414 87.7452C45.8318 87.7461 45.7229 87.764 45.6188 87.7982C45.509 87.8327 45.4105 87.8959 45.3334 87.9812C45.247 88.0838 45.1917 88.2089 45.174 88.3418L44.7147 88.1894C44.7381 88.0627 44.7864 87.9419 44.8567 87.834C44.9277 87.7278 45.0177 87.6357 45.1223 87.5622C45.2346 87.4834 45.36 87.425 45.4927 87.3898C45.6459 87.3486 45.804 87.3285 45.9626 87.3302C46.1664 87.3231 46.369 87.3631 46.5547 87.4468C46.7122 87.5263 46.8381 87.6567 46.9119 87.8168C46.9979 88.0171 47.0387 88.234 47.0313 88.4519V89.0817C47.0313 89.1984 47.0313 89.323 47.0313 89.4556C47.0313 89.5882 47.0486 89.7208 47.0592 89.8534C47.0698 89.986 47.0818 90.1106 47.0924 90.2273H46.6264C46.6264 90.1146 46.6105 89.9979 46.6012 89.8799C46.5919 89.7619 46.5866 89.6426 46.5826 89.5219H46.5109C46.4569 89.6596 46.3831 89.7886 46.2919 89.9051C46.1948 90.0308 46.0691 90.1316 45.9253 90.1991C45.7815 90.2667 45.6236 90.2991 45.4648 90.2936V90.2989ZM45.6188 89.9011C45.7005 89.9002 45.7815 89.8868 45.8591 89.8613C45.948 89.8288 46.032 89.7842 46.1087 89.7287C46.1972 89.6659 46.2756 89.5899 46.341 89.5033C46.4194 89.4022 46.4841 89.2912 46.5335 89.1732V88.6309L46.6862 88.6534C46.6207 88.7187 46.5399 88.7665 46.4512 88.7926C46.344 88.8281 46.2338 88.8538 46.1219 88.8696C46.0051 88.8837 45.8883 88.9023 45.7715 88.9252C45.6621 88.9446 45.5549 88.9748 45.4515 89.0154C45.3612 89.0487 45.2808 89.1043 45.2179 89.1772C45.1554 89.2581 45.1243 89.3589 45.1302 89.4609C45.1256 89.5226 45.1351 89.5846 45.1581 89.642C45.1812 89.6995 45.217 89.7509 45.263 89.7924C45.3646 89.87 45.4912 89.9078 45.6188 89.8985V89.9011Z" fill="#0082A0"/>
<path d="M48.9218 90.2989C48.7454 90.3015 48.5694 90.28 48.3988 90.2352C48.261 90.2002 48.1309 90.1399 48.0151 90.0576C47.9157 89.9858 47.8351 89.8912 47.7801 89.7818C47.7256 89.6695 47.6949 89.5472 47.6898 89.4225L48.1107 89.3084C48.1017 89.4202 48.1327 89.5316 48.1983 89.6227C48.2736 89.7187 48.3757 89.7902 48.4917 89.8282C48.6408 89.8785 48.7976 89.9023 48.955 89.8985C49.1273 89.9079 49.299 89.8703 49.4515 89.7897C49.5057 89.7604 49.5509 89.7169 49.5823 89.6639C49.6136 89.6109 49.6299 89.5503 49.6294 89.4888C49.6316 89.4451 49.6241 89.4015 49.6073 89.3612C49.5906 89.3208 49.565 89.2847 49.5325 89.2554C49.4512 89.1933 49.3582 89.1482 49.259 89.1228C49.125 89.083 48.9889 89.0503 48.8515 89.0247C48.7187 88.9955 48.5859 88.9624 48.4532 88.9266C48.3293 88.8921 48.2099 88.8431 48.0974 88.7807C47.991 88.7241 47.8999 88.6427 47.8319 88.5434C47.7639 88.4332 47.7298 88.3055 47.7336 88.1761C47.7279 88.0171 47.7746 87.8606 47.8664 87.7306C47.9664 87.6001 48.1012 87.5003 48.2554 87.4429C48.4486 87.3698 48.6542 87.3347 48.8608 87.3395C49.065 87.3342 49.2682 87.3703 49.4582 87.4455C49.6119 87.5091 49.746 87.612 49.8472 87.7439C49.9427 87.8752 49.998 88.0313 50.0065 88.1933L49.579 88.3074C49.5793 88.1944 49.5435 88.0843 49.4768 87.9931C49.4106 87.9089 49.3224 87.8447 49.2219 87.8075C49.1014 87.7624 48.9734 87.7408 48.8448 87.7439C48.683 87.7351 48.5221 87.7733 48.3815 87.8539C48.3299 87.884 48.2872 87.9272 48.2578 87.9791C48.2284 88.0311 48.2134 88.0899 48.2142 88.1496C48.2123 88.1938 48.2204 88.2378 48.2379 88.2784C48.2553 88.3191 48.2817 88.3552 48.3151 88.3843C48.3962 88.4476 48.4899 88.4928 48.5899 88.5169C48.7041 88.55 48.8329 88.5805 48.9763 88.6097C49.1196 88.6388 49.2617 88.6773 49.3945 88.7144C49.5189 88.7468 49.6389 88.7944 49.7516 88.8563C49.8522 88.912 49.9375 88.9917 49.9998 89.0883C50.0662 89.2 50.099 89.3285 50.0941 89.4583C50.0993 89.627 50.0479 89.7927 49.9481 89.929C49.8428 90.0621 49.6999 90.1605 49.5378 90.2114C49.3385 90.2732 49.1305 90.3028 48.9218 90.2989Z" fill="#0082A0"/>
<path d="M51.0208 86.9112C50.9263 86.9188 50.8321 86.8925 50.7553 86.8369C50.7248 86.8113 50.7007 86.7789 50.685 86.7422C50.6693 86.7056 50.6625 86.6658 50.665 86.6261C50.6626 86.5862 50.6692 86.5463 50.6843 86.5094C50.6995 86.4724 50.7229 86.4393 50.7526 86.4126C50.8321 86.3666 50.9223 86.3424 51.0142 86.3424C51.106 86.3424 51.1962 86.3666 51.2757 86.4126C51.3067 86.4396 51.331 86.4734 51.3466 86.5114C51.3623 86.5494 51.3689 86.5904 51.366 86.6314C51.3685 86.6708 51.3616 86.7102 51.3459 86.7463C51.3302 86.7825 51.3062 86.8145 51.2757 86.8396C51.201 86.8909 51.1114 86.9161 51.0208 86.9112ZM50.7739 90.226V87.411H51.273V90.2392L50.7739 90.226Z" fill="#0082A0"/>
<path d="M54.823 90.2989C54.6119 90.3015 54.4014 90.2775 54.1964 90.2273C54.0291 90.1885 53.8726 90.1128 53.7383 90.0059C53.6201 89.9057 53.5288 89.7777 53.4728 89.6333C53.4098 89.4704 53.3844 89.2955 53.3985 89.1215L53.8472 89.0234C53.8308 89.1902 53.8655 89.358 53.9468 89.5047C54.027 89.6363 54.1497 89.7368 54.2946 89.7897C54.4724 89.8558 54.6612 89.8873 54.8509 89.8826C55.0284 89.8875 55.2054 89.8615 55.3739 89.8057C55.4985 89.7658 55.6094 89.6919 55.6939 89.5922C55.7661 89.5045 55.8051 89.3941 55.8041 89.2806C55.8064 89.2225 55.7957 89.1646 55.7728 89.1111C55.7498 89.0576 55.7151 89.01 55.6713 88.9717C55.5713 88.8894 55.4557 88.8281 55.3315 88.7913C55.1796 88.7424 55.0249 88.703 54.8681 88.6733C54.6969 88.6362 54.5269 88.5951 54.3583 88.5474C54.2003 88.5032 54.0479 88.4409 53.9043 88.3617C53.7741 88.2895 53.663 88.1872 53.5804 88.0634C53.4961 87.9241 53.4546 87.7633 53.4609 87.6007C53.4551 87.4012 53.5122 87.205 53.6242 87.0398C53.7405 86.8802 53.8991 86.7562 54.0822 86.6818C54.2998 86.5908 54.534 86.5457 54.7699 86.5492C55.0119 86.5448 55.2525 86.5866 55.4788 86.6725C55.6734 86.7453 55.8436 86.8712 55.97 87.0358C56.0957 87.2113 56.1626 87.422 56.1612 87.6378L55.6899 87.7478C55.6928 87.6305 55.6707 87.5139 55.6249 87.4058C55.5816 87.31 55.5166 87.2255 55.435 87.1591C55.3489 87.0894 55.2496 87.038 55.1429 87.008C55.0196 86.9745 54.8923 86.958 54.7646 86.9589C54.6184 86.9566 54.4732 86.9827 54.3371 87.0358C54.2238 87.079 54.1236 87.1507 54.0463 87.244C53.9768 87.3328 53.9402 87.4429 53.9428 87.5556C53.9377 87.6206 53.9482 87.6859 53.9733 87.7461C53.9985 87.8062 54.0376 87.8596 54.0875 87.9016C54.2061 87.9912 54.3416 88.0562 54.4858 88.0926C54.6464 88.1403 54.819 88.1841 55.0009 88.2252C55.1575 88.2583 55.3129 88.2994 55.4642 88.3458C55.6081 88.3906 55.7469 88.4501 55.8784 88.5235C56.0005 88.5939 56.1021 88.6949 56.1731 88.8165C56.2536 88.9727 56.2911 89.1473 56.282 89.3227C56.2729 89.4981 56.2175 89.6679 56.1214 89.8149C55.9999 89.9809 55.831 90.1061 55.6368 90.1743C55.3755 90.2653 55.0996 90.3075 54.823 90.2989Z" fill="#0082A0"/>
<path d="M57.0082 90.2326V86.3967H57.506V88.5858C57.6479 88.5063 57.7845 88.4177 57.9149 88.3206C58.0446 88.224 58.1679 88.119 58.284 88.0064C58.3896 87.9042 58.4885 87.7952 58.5801 87.6802C58.6519 87.593 58.7163 87.4998 58.7725 87.4018H59.3527C59.2786 87.5471 59.1896 87.6845 59.0872 87.8115C58.9782 87.9478 58.8583 88.0751 58.7287 88.192C58.6009 88.3077 58.4612 88.4095 58.3119 88.4957C58.1765 88.5752 58.0309 88.6358 57.8791 88.676V88.7423C58.0407 88.7216 58.2049 88.7431 58.3557 88.8046C58.4946 88.8647 58.6211 88.9501 58.7287 89.0565C58.8427 89.1704 58.943 89.2972 59.0275 89.4344C59.1164 89.5776 59.2027 89.7288 59.293 89.8852L59.4629 90.23H58.904L58.7832 89.978C58.6814 89.7924 58.5792 89.624 58.4765 89.4729C58.384 89.3307 58.2639 89.2085 58.1234 89.1135C57.9816 89.0233 57.8162 88.9771 57.6481 88.9809H57.5153V90.2286L57.0082 90.2326Z" fill="#0082A0"/>
<path d="M59.9953 90.2326V88.7012V87.4044H60.456L60.4055 88.3883H60.4998C60.5258 88.1963 60.5772 88.0086 60.6525 87.8301C60.7125 87.6859 60.809 87.5598 60.9326 87.4641C61.0564 87.3738 61.2068 87.3272 61.3601 87.3315C61.4044 87.3316 61.4488 87.3343 61.4928 87.3395C61.5482 87.3466 61.6029 87.3585 61.6561 87.3753L61.6296 87.9056C61.5784 87.8805 61.5239 87.8631 61.4676 87.8539C61.4158 87.8453 61.3634 87.8409 61.3109 87.8407C61.1746 87.8355 61.0415 87.883 60.9392 87.9733C60.8258 88.0761 60.7353 88.2017 60.6737 88.3419C60.5974 88.512 60.5395 88.6898 60.5011 88.8722V90.2286L59.9953 90.2326Z" fill="#0082A0"/>
<path d="M62.4341 86.9112C62.3396 86.9188 62.2454 86.8925 62.1686 86.8369C62.1378 86.8114 62.1135 86.7791 62.0976 86.7424C62.0817 86.7058 62.0746 86.666 62.077 86.6261C62.0745 86.5862 62.0811 86.5463 62.0963 86.5094C62.1115 86.4724 62.1348 86.4393 62.1646 86.4126C62.2451 86.3653 62.3367 86.3403 62.4301 86.3403C62.5235 86.3403 62.6152 86.3653 62.6956 86.4126C62.7266 86.4396 62.7509 86.4735 62.7666 86.5114C62.7822 86.5494 62.7888 86.5905 62.7859 86.6314C62.7884 86.6708 62.7815 86.7102 62.7659 86.7464C62.7502 86.7825 62.7261 86.8145 62.6956 86.8396C62.619 86.8922 62.5269 86.9174 62.4341 86.9112ZM62.1872 90.226V87.4111H62.685V90.2392L62.1872 90.226Z" fill="#0082A0"/>
<path d="M63.5453 90.2326V88.4718V87.4005H64.006L63.9568 88.2915H64.0392C64.0789 88.1011 64.1493 87.9184 64.2476 87.7505C64.3256 87.6164 64.439 87.5063 64.5755 87.4323C64.72 87.3603 64.88 87.3248 65.0415 87.3289C65.1789 87.3204 65.3163 87.3468 65.4407 87.4057C65.5651 87.4646 65.6726 87.554 65.7531 87.6656C65.9133 87.8893 65.9938 88.2239 65.9947 88.6694V90.2286H65.4902V88.7171C65.5077 88.4704 65.4557 88.2238 65.3402 88.0051C65.2934 87.9315 65.228 87.8716 65.1506 87.8313C65.0732 87.7911 64.9866 87.7719 64.8994 87.7757C64.7316 87.7705 64.5681 87.8298 64.4427 87.9414C64.3129 88.0586 64.2143 88.2063 64.156 88.371C64.086 88.5574 64.0478 88.7541 64.0431 88.9531V90.2339L63.5453 90.2326Z" fill="#0082A0"/>
<path d="M67.0634 86.9112C66.9688 86.9188 66.8747 86.8925 66.7979 86.8369C66.7698 86.8092 66.7475 86.7761 66.7322 86.7397C66.717 86.7033 66.7092 86.6642 66.7092 86.6248C66.7092 86.5853 66.717 86.5462 66.7322 86.5098C66.7475 86.4734 66.7698 86.4404 66.7979 86.4126C66.8773 86.3666 66.9676 86.3424 67.0594 86.3424C67.1512 86.3424 67.2415 86.3666 67.3209 86.4126C67.3519 86.4396 67.3762 86.4734 67.3919 86.5114C67.4075 86.5494 67.4141 86.5904 67.4112 86.6314C67.4137 86.6708 67.4068 86.7102 67.3912 86.7463C67.3755 86.7825 67.3514 86.8145 67.3209 86.8396C67.2455 86.8915 67.1548 86.9167 67.0634 86.9112ZM66.8165 90.226V87.411H67.3156V90.2392L66.8165 90.226Z" fill="#0082A0"/>
<path d="M68.1759 90.2326V88.4718V87.4004H68.6353L68.5861 88.2915H68.6684C68.7088 88.1013 68.7792 87.9187 68.8769 87.7505C68.955 87.616 69.069 87.5058 69.2061 87.4323C69.3502 87.3605 69.5098 87.325 69.6708 87.3289C69.8084 87.3204 69.9459 87.3469 70.0706 87.4057C70.1952 87.4646 70.3029 87.554 70.3837 87.6656C70.5439 87.8893 70.624 88.2238 70.624 88.6694V90.2286H70.1208V88.7171C70.1379 88.4703 70.0855 88.2237 69.9695 88.0051C69.9229 87.9313 69.8575 87.8713 69.7801 87.831C69.7027 87.7907 69.6159 87.7716 69.5287 87.7757C69.3637 87.7716 69.2033 87.8304 69.08 87.9401C68.95 88.0574 68.851 88.205 68.7919 88.3697C68.7225 88.5562 68.6844 88.7529 68.6791 88.9518V90.2326H68.1759Z" fill="#0082A0"/>
<path d="M72.4986 91.1899C72.2503 91.1949 72.0023 91.1722 71.7591 91.1223C71.6007 91.0949 71.4539 91.0216 71.3369 90.9115C71.2494 90.8182 71.2018 90.6945 71.2042 90.5667C71.2024 90.4874 71.2192 90.4088 71.253 90.337C71.2869 90.2652 71.337 90.2022 71.3993 90.153C71.5736 90.0273 71.7786 89.9508 71.9928 89.9316V89.8282C71.8447 89.8395 71.6959 89.8178 71.5573 89.7646C71.5143 89.7487 71.4773 89.7199 71.4514 89.6821C71.4255 89.6444 71.4119 89.5995 71.4126 89.5537C71.4133 89.5023 71.4272 89.4518 71.453 89.4072C71.4788 89.3627 71.5156 89.3255 71.56 89.2992C71.7066 89.2129 71.8655 89.1494 72.0312 89.1109V89.0022C71.9384 89.0056 71.8459 88.9896 71.7597 88.9551C71.6735 88.9206 71.5955 88.8684 71.5308 88.8019C71.4084 88.6643 71.3442 88.4847 71.3515 88.3007C71.3466 88.1255 71.3998 87.9535 71.5029 87.8115C71.6147 87.6664 71.7658 87.5565 71.9383 87.4946C72.1593 87.4139 72.3935 87.3756 72.6287 87.3819H73.9656V87.8088L73.0947 87.6762V87.785C73.2727 87.8112 73.4397 87.887 73.5766 88.0037C73.6329 88.0571 73.6771 88.1219 73.7064 88.1936C73.7357 88.2654 73.7494 88.3426 73.7465 88.4201C73.749 88.5691 73.6998 88.7143 73.6071 88.8311C73.4991 88.9556 73.3584 89.0475 73.2009 89.0963C72.9897 89.1652 72.7684 89.1974 72.5464 89.1918C72.4986 89.1918 72.4481 89.1918 72.3937 89.1838C72.3393 89.1758 72.2609 89.1679 72.1627 89.1533C72.0684 89.2196 71.9901 89.2766 71.9304 89.3257C71.8706 89.3747 71.8401 89.4198 71.8401 89.4583C71.8401 89.4967 71.8666 89.5352 71.9224 89.5577C71.9874 89.5812 72.0553 89.596 72.1242 89.6015C72.2052 89.6081 72.2822 89.6121 72.3552 89.6121H72.9964C73.0888 89.6133 73.1811 89.6204 73.2726 89.6333C73.3875 89.649 73.4999 89.6793 73.6071 89.7234C73.7186 89.7697 73.8151 89.8459 73.8859 89.9435C73.9681 90.0648 74.0077 90.2098 73.9987 90.3559C74.0051 90.5322 73.9422 90.7039 73.8235 90.8346C73.6833 90.971 73.506 91.0633 73.3137 91.0998C73.0466 91.1623 72.7729 91.1926 72.4986 91.1899ZM72.5092 90.7802C72.7084 90.7838 72.9075 90.7692 73.1039 90.7365C73.2269 90.72 73.3428 90.6695 73.4385 90.5906C73.473 90.5582 73.5003 90.5189 73.5186 90.4753C73.5369 90.4316 73.5458 90.3846 73.5447 90.3373C73.5499 90.2565 73.5238 90.1767 73.4717 90.1146C73.422 90.0626 73.3592 90.025 73.2898 90.0059C73.2191 89.9855 73.1467 89.9718 73.0734 89.9648C73.0004 89.9648 72.9407 89.9542 72.8822 89.9542H72.2463C72.0838 89.9767 71.931 90.0448 71.8056 90.1504C71.733 90.22 71.6906 90.3152 71.6874 90.4156C71.6836 90.4608 71.6915 90.5063 71.7103 90.5476C71.7291 90.5889 71.7583 90.6247 71.7949 90.6516C71.8842 90.7087 71.9856 90.7441 72.091 90.755C72.2296 90.7736 72.3694 90.782 72.5092 90.7802ZM72.5756 88.8762C72.7603 88.8894 72.9441 88.8389 73.096 88.733C73.1544 88.686 73.2008 88.6257 73.2312 88.5572C73.2617 88.4887 73.2754 88.414 73.2712 88.3392C73.2734 88.2599 73.2586 88.1811 73.228 88.1079C73.1973 88.0348 73.1514 87.969 73.0933 87.9149C72.9434 87.795 72.7539 87.7359 72.5623 87.7492C72.372 87.7358 72.1833 87.7918 72.0312 87.9069C71.9712 87.957 71.9233 88.02 71.8911 88.0912C71.8589 88.1623 71.8433 88.2399 71.8454 88.318C71.8425 88.4221 71.8722 88.5245 71.9304 88.611C71.9916 88.6979 72.0777 88.7644 72.1773 88.8019C72.3036 88.8536 72.4391 88.8789 72.5756 88.8762Z" fill="#0082A0"/>
<path d="M32.2327 95.409V91.7972H32.7425V95.409H32.2327Z" fill="#0082A0"/>
<path d="M33.6426 95.409V93.6521V92.5795H34.1032L34.0528 93.4718H34.1351C34.1757 93.2813 34.246 93.0982 34.3436 92.9295C34.4228 92.7963 34.5365 92.6868 34.6728 92.6126C34.8173 92.5407 34.9773 92.5052 35.1388 92.5092C35.2762 92.5009 35.4135 92.5274 35.5379 92.5863C35.6623 92.6451 35.7698 92.7345 35.8504 92.846C36.0114 93.0696 36.092 93.4042 36.092 93.8497V95.409H35.5875V93.8935C35.6046 93.6467 35.5521 93.4 35.4362 93.1814C35.3895 93.1077 35.3242 93.0476 35.2468 93.0073C35.1693 92.967 35.0826 92.948 34.9954 92.9521C34.8304 92.9466 34.6695 93.0039 34.5453 93.1125C34.4157 93.2301 34.3168 93.3776 34.2573 93.5421C34.1877 93.7285 34.15 93.9253 34.1457 94.1242V95.405L33.6426 95.409Z" fill="#0082A0"/>
<path d="M37.7886 95.4634C37.6822 95.4719 37.5752 95.4572 37.4751 95.4203C37.3749 95.3835 37.2839 95.3253 37.2085 95.2499C37.0637 95.0607 36.995 94.8242 37.016 94.5869V92.9958H36.5938V92.5861H36.8593C36.9293 92.5844 36.9975 92.5642 37.0571 92.5278C37.0812 92.5082 37.101 92.4838 37.1152 92.4562C37.1293 92.4286 37.1376 92.3983 37.1395 92.3673L37.1886 91.9457H37.4926V92.5821H38.3091V93.0038H37.4926V94.5949C37.4875 94.6517 37.4941 94.7089 37.5122 94.763C37.5302 94.817 37.5593 94.8668 37.5975 94.9091C37.6357 94.9441 37.6805 94.9712 37.7292 94.9887C37.778 95.0063 37.8298 95.0139 37.8816 95.0112C37.9556 95.0109 38.0293 95.0006 38.1006 94.9807C38.1818 94.957 38.2581 94.9193 38.3263 94.8694V95.3666C38.1533 95.4343 37.9692 95.4694 37.7833 95.47L37.7886 95.4634Z" fill="#0082A0"/>
<path d="M40.0734 95.4753C39.8724 95.4791 39.6725 95.4454 39.484 95.3758C39.3202 95.315 39.173 95.217 39.0538 95.0894C38.9331 94.959 38.8425 94.8038 38.7883 94.6346C38.7276 94.4426 38.698 94.242 38.7007 94.0406C38.6988 93.833 38.7293 93.6263 38.791 93.4281C38.8464 93.2529 38.9327 93.089 39.0458 92.9441C39.1571 92.8065 39.2989 92.6966 39.4601 92.6232C39.6386 92.5448 39.832 92.5059 40.0269 92.5092C40.2024 92.5064 40.3767 92.5389 40.5394 92.6047C40.6902 92.6682 40.8236 92.7668 40.9284 92.8924C41.0432 93.0346 41.1265 93.1996 41.1726 93.3763C41.2298 93.6006 41.2517 93.8322 41.2377 94.0632L39.0127 94.0791V93.7463L40.931 93.7237L40.7664 93.9531C40.7888 93.7619 40.7666 93.5681 40.7014 93.387C40.6496 93.2487 40.557 93.1294 40.4358 93.0449C40.3174 92.9681 40.1788 92.9279 40.0376 92.9295C39.8794 92.9258 39.7242 92.9722 39.5941 93.0621C39.4634 93.1575 39.3625 93.2881 39.3034 93.4387C39.2297 93.6288 39.1945 93.8316 39.1998 94.0353C39.1807 94.3102 39.2603 94.5828 39.4242 94.8044C39.5075 94.896 39.6105 94.9674 39.7255 95.0134C39.8405 95.0593 39.9645 95.0785 40.088 95.0695C40.1909 95.0717 40.2934 95.0578 40.392 95.0284C40.4712 95.0049 40.5454 94.9672 40.6111 94.9171C40.6709 94.8696 40.7221 94.8122 40.7624 94.7473C40.8024 94.6811 40.832 94.6091 40.85 94.5339L41.2882 94.632C41.2545 94.7565 41.2026 94.8753 41.1341 94.9847C41.0693 95.0883 40.985 95.1783 40.8859 95.2499C40.781 95.3261 40.6632 95.3827 40.5381 95.4169C40.3868 95.4586 40.2303 95.4783 40.0734 95.4753Z" fill="#0082A0"/>
<path d="M43.01 96.3663C42.7621 96.3699 42.5145 96.3459 42.2719 96.2947C42.1137 96.2668 41.967 96.1935 41.8497 96.0839C41.7622 95.9906 41.7146 95.8669 41.717 95.7391C41.7154 95.6598 41.7321 95.5812 41.766 95.5094C41.7998 95.4377 41.8499 95.3747 41.9121 95.3254C42.0868 95.2005 42.2916 95.124 42.5056 95.104V95.0006C42.3575 95.0113 42.2089 94.9896 42.0701 94.937C42.0272 94.9213 41.9903 94.8927 41.9644 94.8552C41.9384 94.8177 41.9248 94.773 41.9254 94.7275C41.9257 94.6759 41.9395 94.6253 41.9653 94.5807C41.9912 94.536 42.0282 94.4989 42.0728 94.4729C42.219 94.3855 42.378 94.3215 42.5441 94.2833V94.1799C42.4512 94.1833 42.3587 94.1673 42.2725 94.1328C42.1863 94.0983 42.1083 94.0461 42.0436 93.9796C41.9209 93.8421 41.8567 93.6624 41.8643 93.4784C41.8594 93.3032 41.9126 93.1312 42.0157 92.9892C42.1275 92.8441 42.2786 92.7342 42.4511 92.6723C42.6721 92.5916 42.9063 92.5533 43.1415 92.5596H44.4784V92.9799L43.6075 92.8473V92.956C43.7855 92.9823 43.9525 93.0581 44.0894 93.1748C44.1457 93.2282 44.1899 93.2929 44.2192 93.3647C44.2485 93.4365 44.2622 93.5137 44.2593 93.5911C44.2619 93.7398 44.2127 93.8846 44.1199 94.0009C44.0122 94.1257 43.8714 94.2176 43.7137 94.266C43.5026 94.335 43.2812 94.3673 43.0592 94.3615C43.0114 94.3615 42.9609 94.3615 42.9065 94.3535C42.8521 94.3456 42.7737 94.3376 42.6755 94.3231C42.5812 94.3894 42.5029 94.4464 42.4432 94.4954C42.3834 94.5445 42.3529 94.5896 42.3529 94.628C42.3529 94.6665 42.3794 94.7049 42.4352 94.7275C42.5002 94.751 42.5681 94.7657 42.637 94.7712C42.718 94.7712 42.795 94.7818 42.868 94.7818H43.5092C43.6016 94.783 43.6939 94.7901 43.7854 94.803C43.9003 94.8188 44.0127 94.8491 44.1199 94.8932C44.231 94.9395 44.3274 95.0152 44.3987 95.112C44.4822 95.2488 44.521 95.4082 44.5099 95.5681C44.4987 95.7279 44.438 95.8804 44.3363 96.0043C44.1958 96.1403 44.0186 96.2324 43.8265 96.2695C43.5591 96.3337 43.2851 96.3662 43.01 96.3663ZM43.0207 95.9566C43.2198 95.9602 43.4189 95.9456 43.6154 95.9128C43.7381 95.8961 43.8538 95.8461 43.95 95.7683C43.9848 95.7359 44.0123 95.6964 44.0306 95.6525C44.0489 95.6086 44.0576 95.5613 44.0562 95.5137C44.0614 95.4329 44.0352 95.3531 43.9832 95.291C43.9335 95.239 43.8706 95.2014 43.8013 95.1822C43.7304 95.1626 43.658 95.1488 43.5849 95.1411C43.5214 95.1341 43.4576 95.1306 43.3937 95.1305H42.7578C42.5951 95.1525 42.4422 95.2206 42.317 95.3268C42.2447 95.3965 42.2023 95.4916 42.1989 95.592C42.1951 95.6372 42.203 95.6827 42.2218 95.724C42.2406 95.7653 42.2698 95.8011 42.3064 95.828C42.3954 95.8856 42.4969 95.921 42.6025 95.9314C42.7411 95.9499 42.8808 95.9583 43.0207 95.9566ZM43.087 94.0526C43.2718 94.0658 43.4555 94.0152 43.6075 93.9094C43.6651 93.8629 43.711 93.8035 43.7415 93.736C43.7719 93.6685 43.786 93.5948 43.7827 93.5209C43.7848 93.4416 43.7701 93.3628 43.7394 93.2896C43.7088 93.2165 43.6629 93.1507 43.6048 93.0966C43.4554 92.9756 43.2656 92.9159 43.0738 92.9295C42.8834 92.9173 42.6949 92.9738 42.5427 93.0886C42.4827 93.1387 42.4348 93.2017 42.4026 93.2728C42.3704 93.344 42.3547 93.4216 42.3569 93.4997C42.354 93.6038 42.3837 93.7062 42.4418 93.7927C42.5036 93.8791 42.5895 93.9455 42.6888 93.9836C42.8156 94.0327 42.951 94.0562 43.087 94.0526Z" fill="#0082A0"/>
<path d="M45.1475 95.409V93.8776V92.5795H45.6068L45.5577 93.5646H45.6506C45.6771 93.3726 45.7288 93.1849 45.8046 93.0064C45.8642 92.8623 45.9603 92.7362 46.0834 92.6405C46.2074 92.5504 46.3577 92.5037 46.5109 92.5079C46.5553 92.508 46.5996 92.5106 46.6437 92.5158C46.6995 92.5229 46.7546 92.5349 46.8083 92.5516L46.7804 93.082C46.7297 93.0569 46.6756 93.0394 46.6198 93.0303C46.568 93.0217 46.5156 93.0172 46.4631 93.017C46.3264 93.0124 46.1931 93.0598 46.0901 93.1496C45.9773 93.2532 45.887 93.3786 45.8245 93.5182C45.7488 93.6886 45.6909 93.8663 45.652 94.0486V95.405L45.1475 95.409Z" fill="#0082A0"/>
<path d="M47.8916 95.4753C47.7474 95.478 47.6045 95.448 47.4734 95.3878C47.3514 95.3305 47.2492 95.2382 47.18 95.1226C47.1019 94.9855 47.0637 94.8294 47.0699 94.6718C47.0674 94.5492 47.0928 94.4277 47.1442 94.3164C47.1964 94.2096 47.2755 94.1182 47.3739 94.0513C47.4984 93.9689 47.6356 93.9075 47.7801 93.8696C47.9772 93.8163 48.1777 93.7764 48.3802 93.7503C48.5129 93.7317 48.6245 93.7131 48.7081 93.6946C48.7782 93.6842 48.8435 93.6528 48.8953 93.6044C48.9401 93.5503 48.9616 93.4807 48.955 93.4108C48.9561 93.3467 48.9441 93.2831 48.9196 93.2238C48.8952 93.1645 48.8589 93.1109 48.813 93.0661C48.752 93.014 48.6814 92.9745 48.605 92.9499C48.5287 92.9253 48.4482 92.9161 48.3682 92.9229C48.2586 92.9232 48.1496 92.9411 48.0456 92.9759C47.9359 93.0104 47.8373 93.0736 47.7602 93.1589C47.6737 93.2613 47.6188 93.3866 47.6022 93.5196L47.1415 93.3671C47.1652 93.2401 47.2134 93.1189 47.2836 93.0104C47.3554 92.9068 47.4454 92.817 47.5491 92.7452C47.6619 92.6672 47.7871 92.6089 47.9195 92.5729C48.0731 92.5315 48.2317 92.5115 48.3908 92.5132C48.5943 92.5057 48.7967 92.5461 48.9816 92.6312C49.1392 92.7098 49.2652 92.8399 49.3387 92.9998C49.4248 93.2002 49.4656 93.417 49.4582 93.6349V94.2634C49.4582 94.3814 49.4582 94.506 49.4582 94.6386C49.4582 94.7712 49.4741 94.9038 49.4847 95.0364C49.4954 95.169 49.5073 95.3016 49.5179 95.4116H49.0519C49.0453 95.2989 49.036 95.1836 49.0281 95.0642C49.0201 94.9449 49.0121 94.8269 49.0081 94.7063H48.9378C48.8827 94.8437 48.8085 94.9727 48.7174 95.0894C48.6206 95.2155 48.495 95.3165 48.3511 95.3841C48.2072 95.4517 48.0492 95.4839 47.8903 95.4779L47.8916 95.4753ZM48.0456 95.0775C48.1274 95.0769 48.2086 95.063 48.2859 95.0364C48.3755 95.0053 48.4596 94.9606 48.5355 94.9038C48.6244 94.8415 48.7032 94.7659 48.7692 94.6797C48.8471 94.5785 48.9114 94.4675 48.9603 94.3496V93.8073L49.1143 93.8298C49.0476 93.8927 48.9665 93.9382 48.878 93.9624C48.7727 93.9944 48.6648 94.017 48.5554 94.03C48.4386 94.0442 48.3218 94.0627 48.2049 94.0857C48.0951 94.1049 47.9875 94.1351 47.8837 94.1759C47.794 94.2092 47.7142 94.2643 47.6513 94.3363C47.5891 94.4179 47.558 94.519 47.5637 94.6214C47.5592 94.6831 47.5688 94.745 47.5918 94.8024C47.6148 94.8599 47.6506 94.9113 47.6965 94.9529C47.7945 95.034 47.9184 95.0773 48.0456 95.0749V95.0775Z" fill="#0082A0"/>
<path d="M51.35 95.4753C51.1709 95.4784 50.9922 95.457 50.819 95.4116C50.6812 95.3766 50.5511 95.3163 50.4353 95.234C50.3359 95.1622 50.2553 95.0676 50.2003 94.9582C50.1457 94.8459 50.1149 94.7236 50.11 94.5989L50.5322 94.4848C50.5218 94.5968 50.553 94.7086 50.6198 94.7991C50.6947 94.8949 50.7964 94.9664 50.9119 95.0046C51.0612 95.0543 51.2179 95.0781 51.3752 95.0749C51.5476 95.0843 51.7192 95.0467 51.8718 94.9661C51.926 94.9368 51.9711 94.8933 52.0025 94.8403C52.0338 94.7872 52.0501 94.7267 52.0497 94.6652C52.0523 94.6234 52.046 94.5816 52.0311 94.5425C52.0162 94.5033 51.9931 94.4679 51.9634 94.4384C51.8827 94.3727 51.7891 94.3249 51.6886 94.2979C51.5545 94.2581 51.4185 94.2254 51.281 94.1998C51.1482 94.1706 51.0155 94.1374 50.8827 94.1016C50.7583 94.0674 50.6384 94.0184 50.5256 93.9558C50.4192 93.8992 50.3281 93.8178 50.2601 93.7185C50.1916 93.6084 50.1574 93.4806 50.1618 93.3512C50.1568 93.1923 50.2034 93.036 50.2946 92.9057C50.3952 92.7758 50.5298 92.6762 50.6836 92.6179C50.8768 92.5449 51.0824 92.5097 51.289 92.5145C51.4932 92.5093 51.6964 92.5454 51.8864 92.6206C52.0403 92.6837 52.1745 92.7867 52.2754 92.9189C52.3721 93.0495 52.4276 93.2061 52.4347 93.3684L52.0072 93.4824C52.0079 93.3696 51.9725 93.2596 51.9063 93.1682C51.8396 93.0845 51.7515 93.0204 51.6514 92.9826C51.5305 92.9376 51.402 92.916 51.273 92.9189C51.1112 92.9101 50.9502 92.9484 50.8097 93.029C50.7581 93.059 50.7154 93.1023 50.686 93.1542C50.6566 93.2062 50.6416 93.265 50.6424 93.3246C50.6407 93.3689 50.6489 93.413 50.6666 93.4537C50.6843 93.4943 50.711 93.5304 50.7446 93.5593C50.8247 93.6234 50.9182 93.6687 51.0181 93.6919C51.1336 93.7251 51.2624 93.7556 51.4045 93.7847C51.5465 93.8139 51.6899 93.8524 51.824 93.8895C51.9479 93.9221 52.0674 93.9697 52.1798 94.0314C52.2809 94.0875 52.3666 94.1676 52.4294 94.2647C52.4951 94.3762 52.5273 94.5041 52.5223 94.6333C52.5277 94.8021 52.4763 94.9679 52.3763 95.104C52.271 95.2372 52.1281 95.3356 51.966 95.3865C51.7668 95.4488 51.5588 95.4788 51.35 95.4753Z" fill="#0082A0"/>
<path d="M53.4476 92.0876C53.3531 92.0952 53.2589 92.0689 53.1821 92.0133C53.154 91.9856 53.1317 91.9525 53.1165 91.9161C53.1012 91.8797 53.0934 91.8406 53.0934 91.8012C53.0934 91.7617 53.1012 91.7226 53.1165 91.6862C53.1317 91.6498 53.154 91.6168 53.1821 91.589C53.2616 91.543 53.3518 91.5188 53.4436 91.5188C53.5355 91.5188 53.6257 91.543 53.7052 91.589C53.7363 91.6162 53.7607 91.6502 53.7764 91.6884C53.7921 91.7266 53.7986 91.768 53.7954 91.8091C53.7982 91.8483 53.7914 91.8876 53.7757 91.9236C53.76 91.9596 53.7358 91.9913 53.7052 92.016C53.6297 92.0679 53.539 92.0931 53.4476 92.0876ZM53.2007 95.409V92.5821H53.6998V95.4116L53.2007 95.409Z" fill="#0082A0"/>
<path d="M57.2498 95.4753C57.0387 95.4779 56.8282 95.4539 56.6232 95.4037C56.4559 95.3648 56.2994 95.2892 56.1652 95.1823C56.0469 95.0821 55.9557 94.954 55.8997 94.8097C55.8373 94.6466 55.8119 94.4719 55.8253 94.2979L56.2754 94.1998C56.2579 94.3665 56.2922 94.5345 56.3736 94.6811C56.4524 94.8125 56.573 94.9138 56.7161 94.9688C56.8939 95.0348 57.0827 95.0663 57.2724 95.0616C57.4499 95.0665 57.6269 95.0405 57.7955 94.9847C57.92 94.9449 58.0309 94.8709 58.1154 94.7712C58.1874 94.6834 58.2264 94.5731 58.2256 94.4596C58.2282 94.4015 58.2177 94.3435 58.1947 94.29C58.1717 94.2365 58.1369 94.1888 58.0928 94.1507C57.9928 94.0685 57.8772 94.0071 57.753 93.9704C57.6011 93.9215 57.4464 93.8821 57.2896 93.8524C57.1184 93.8166 56.9484 93.7741 56.7812 93.7264C56.6224 93.6831 56.4696 93.6207 56.3258 93.5408C56.1957 93.4688 56.085 93.3665 56.0032 93.2424C55.9179 93.1036 55.8759 92.9425 55.8824 92.7797C55.8765 92.5801 55.9341 92.3837 56.047 92.2188C56.1623 92.0588 56.3206 91.9346 56.5037 91.8608C56.7218 91.7721 56.9559 91.7292 57.1914 91.7349C57.4338 91.7306 57.6749 91.7724 57.9017 91.8582C58.0959 91.9309 58.2657 92.0568 58.3915 92.2215C58.5174 92.3969 58.5843 92.6077 58.5827 92.8234L58.1114 92.9322C58.1144 92.8153 58.0922 92.6991 58.0464 92.5914C58.0031 92.4959 57.9387 92.4116 57.8579 92.3448C57.7713 92.2751 57.6715 92.2236 57.5645 92.1936C57.4412 92.1601 57.3139 92.1436 57.1861 92.1446C57.04 92.1424 56.8948 92.1685 56.7586 92.2215C56.6455 92.265 56.5454 92.3366 56.4679 92.4296C56.3983 92.5184 56.3618 92.6286 56.3643 92.7412C56.361 92.8056 56.3729 92.8698 56.3989 92.9288C56.425 92.9877 56.4645 93.0397 56.5143 93.0807C56.6331 93.1703 56.7685 93.2357 56.9126 93.2729C57.0737 93.3189 57.2449 93.3631 57.4264 93.4055C57.5844 93.4374 57.7384 93.4784 57.8897 93.5249C58.0336 93.5696 58.1724 93.6291 58.3039 93.7025C58.4264 93.7729 58.5284 93.8739 58.6 93.9956C58.6798 94.1519 58.7169 94.3266 58.7076 94.5019C58.6982 94.6772 58.6428 94.8469 58.5469 94.994C58.4254 95.1598 58.2564 95.2851 58.0623 95.3533C57.8012 95.4433 57.5258 95.4846 57.2498 95.4753Z" fill="#0082A0"/>
<path d="M60.6471 95.4753C60.4466 95.4792 60.2471 95.4455 60.059 95.3758C59.8953 95.315 59.748 95.217 59.6289 95.0894C59.5078 94.9593 59.4171 94.804 59.3634 94.6347C59.3026 94.4426 59.2731 94.242 59.2757 94.0406C59.2737 93.8329 59.3046 93.6261 59.3673 93.4281C59.4218 93.2527 59.5077 93.0887 59.6209 92.9441C59.7322 92.8065 59.874 92.6966 60.0351 92.6232C60.2137 92.5449 60.407 92.5061 60.602 92.5092C60.7775 92.5064 60.9518 92.5389 61.1145 92.6047C61.2653 92.6682 61.3986 92.7669 61.5034 92.8924C61.6183 93.0346 61.7016 93.1996 61.7477 93.3764C61.8055 93.6004 61.8275 93.8322 61.8128 94.0632L59.5891 94.0791V93.7463L61.5061 93.7237L61.3415 93.9531C61.3646 93.7619 61.3423 93.568 61.2764 93.387C61.227 93.2492 61.1351 93.1307 61.0139 93.0485C60.8927 92.9663 60.7484 92.9246 60.602 92.9295C60.4439 92.9258 60.2887 92.9723 60.1586 93.0621C60.0278 93.1575 59.927 93.2881 59.8678 93.4387C59.7941 93.6288 59.759 93.8316 59.7643 94.0353C59.7452 94.3102 59.8247 94.5828 59.9887 94.8044C60.0719 94.896 60.1749 94.9674 60.29 95.0134C60.405 95.0593 60.5289 95.0785 60.6525 95.0696C60.7553 95.0718 60.8579 95.0579 60.9565 95.0285C61.0357 95.0049 61.1099 94.9672 61.1755 94.9171C61.2358 94.87 61.2871 94.8126 61.3269 94.7474C61.3669 94.6811 61.3964 94.6091 61.4145 94.5339L61.8526 94.632C61.8194 94.7564 61.7679 94.8753 61.6999 94.9847C61.6342 95.088 61.5496 95.178 61.4503 95.2499C61.3455 95.3261 61.2276 95.3827 61.1025 95.4169C60.9543 95.4579 60.8009 95.4775 60.6471 95.4753Z" fill="#0082A0"/>
<path d="M62.5377 95.409V93.6853V91.5638H63.0528V92.4562C63.0528 92.5331 63.0528 92.6113 63.0528 92.6935C63.0528 92.7757 63.0421 92.8593 63.0328 92.9428C63.0236 93.0263 63.0129 93.1112 62.9997 93.1974C62.9864 93.2836 62.9758 93.3697 62.9651 93.4626H63.0634C63.1048 93.2768 63.1733 93.0981 63.2665 92.9322C63.3414 92.7997 63.4511 92.6901 63.5838 92.6153C63.7223 92.5438 63.8766 92.5082 64.0325 92.5119C64.1719 92.5018 64.3114 92.5275 64.4381 92.5865C64.5647 92.6454 64.6741 92.7356 64.7561 92.8487C64.9127 93.0727 64.9924 93.4055 64.9924 93.8471V95.4117H64.4879V93.9081C64.4879 93.5766 64.4374 93.3348 64.3365 93.1828C64.2879 93.1087 64.2206 93.0487 64.1413 93.0089C64.0621 92.9691 63.9737 92.9509 63.8852 92.9561C63.7312 92.9523 63.5812 93.0046 63.463 93.1032C63.3394 93.2115 63.2438 93.348 63.1842 93.501C63.1122 93.6849 63.0674 93.8783 63.0514 94.0751V95.4103L62.5377 95.409Z" fill="#0082A0"/>
<path d="M66.4607 95.4753C66.316 95.4779 66.1727 95.448 66.0412 95.3878C65.9194 95.3301 65.8173 95.2379 65.7478 95.1226C65.6701 94.9854 65.6324 94.8293 65.6389 94.6718C65.6359 94.5492 65.6614 94.4276 65.7133 94.3164C65.765 94.2093 65.8443 94.1178 65.9429 94.0513C66.067 93.9689 66.2038 93.9075 66.3478 93.8696C66.5449 93.8163 66.7454 93.7764 66.9479 93.7503C67.0807 93.7317 67.1922 93.7131 67.2772 93.6946C67.3469 93.6842 67.4117 93.6527 67.463 93.6044C67.4854 93.5777 67.5024 93.5469 67.5128 93.5137C67.5233 93.4805 67.5271 93.4455 67.5241 93.4108C67.5252 93.3466 67.5131 93.2828 67.4884 93.2235C67.4637 93.1642 67.4271 93.1106 67.3807 93.0661C67.3201 93.014 67.2496 92.9744 67.1735 92.9499C67.0973 92.9253 67.017 92.9161 66.9373 92.9229C66.8272 92.9234 66.7178 92.9413 66.6134 92.9759C66.504 93.0104 66.4059 93.0736 66.3293 93.1589C66.2418 93.2609 66.1864 93.3863 66.1699 93.5196L65.7093 93.3671C65.7334 93.24 65.7821 93.1189 65.8527 93.0104C65.9241 92.9065 66.0141 92.8166 66.1182 92.7452C66.2304 92.6671 66.3552 92.6088 66.4872 92.5729C66.6409 92.5317 66.7995 92.5117 66.9585 92.5132C67.1624 92.5057 67.3653 92.5461 67.5506 92.6312C67.7079 92.7099 67.8335 92.84 67.9064 92.9998C67.9938 93.1998 68.0351 93.4169 68.0273 93.6349V94.2634C68.0273 94.3814 68.0273 94.506 68.0273 94.6386C68.0273 94.7712 68.0445 94.9038 68.0551 95.0364C68.0658 95.169 68.0764 95.3016 68.0883 95.4116H67.629C67.621 95.2989 67.613 95.1836 67.6037 95.0642C67.5945 94.9449 67.5891 94.8269 67.5852 94.7063H67.5135C67.4594 94.8439 67.3856 94.973 67.2944 95.0894C67.1973 95.2151 67.0717 95.3159 66.9279 95.3835C66.784 95.451 66.6262 95.4834 66.4673 95.4779L66.4607 95.4753ZM66.6134 95.0775C66.6956 95.0769 66.7772 95.063 66.855 95.0364C66.9444 95.005 67.0285 94.9603 67.1046 94.9038C67.1931 94.8415 67.2715 94.7659 67.3369 94.6797C67.4148 94.5783 67.4795 94.4673 67.5294 94.3496V93.8073L67.6821 93.8298C67.6159 93.8927 67.5352 93.9382 67.4471 93.9624C67.3413 93.9943 67.2329 94.0169 67.1232 94.03C67.0063 94.0442 66.8895 94.0627 66.7727 94.0857C66.6633 94.1051 66.5561 94.1353 66.4527 94.1759C66.3627 94.2092 66.2824 94.2643 66.2191 94.3363C66.1568 94.4179 66.1257 94.519 66.1314 94.6214C66.1272 94.6831 66.1369 94.7449 66.1599 94.8023C66.1829 94.8597 66.2185 94.9112 66.2642 94.9529C66.3622 95.034 66.4861 95.0773 66.6134 95.0749V95.0775Z" fill="#0082A0"/>
<path d="M69.7425 95.4634C69.6361 95.4719 69.5291 95.4572 69.4289 95.4203C69.3288 95.3835 69.2378 95.3253 69.1623 95.2499C69.0175 95.0607 68.9488 94.8242 68.9698 94.5869V92.9958H68.5477V92.5861H68.8132C68.8827 92.5841 68.9504 92.564 69.0097 92.5278C69.0338 92.5082 69.0535 92.4838 69.0677 92.4562C69.0819 92.4286 69.0901 92.3983 69.092 92.3673L69.1411 91.9457H69.4478V92.5821H70.2642V93.0038H69.4478V94.5949C69.4426 94.6517 69.4493 94.7089 69.4673 94.763C69.4854 94.817 69.5144 94.8668 69.5527 94.9091C69.5909 94.9441 69.6356 94.9712 69.6844 94.9887C69.7332 95.0063 69.785 95.0139 69.8368 95.0112C69.9108 95.0109 69.9845 95.0006 70.0558 94.9807C70.137 94.957 70.2133 94.9193 70.2815 94.8694V95.3666C70.1085 95.4343 69.9244 95.4694 69.7385 95.47L69.7425 95.4634Z" fill="#0082A0"/>
<path d="M0 95.3095L3.04285 86.5903H5.14576L8.1886 95.3095H6.62735L4.18059 87.7664H4.00801L1.56125 95.3095H0ZM1.5347 93.4201V92.3899H6.85304V93.4201H1.5347Z" fill="#0082A0"/>
<path d="M12.4475 95.4819C11.9378 95.4879 11.4294 95.43 10.9341 95.3096C10.5264 95.2127 10.1435 95.0321 9.80962 94.7792C9.50835 94.5459 9.26977 94.2416 9.11528 93.8935C8.95067 93.5146 8.87353 93.1036 8.88959 92.6909L10.1734 92.3475C10.142 92.733 10.2321 93.1187 10.4309 93.4506C10.6272 93.7529 10.9145 93.985 11.2514 94.1136C11.654 94.2677 12.0828 94.342 12.5139 94.3324C12.9156 94.3426 13.3161 94.2843 13.6981 94.16C13.98 94.0722 14.2319 93.9078 14.4257 93.6853C14.5854 93.4917 14.6719 93.2481 14.6699 92.9972C14.6757 92.8667 14.6519 92.7366 14.6004 92.6166C14.549 92.4965 14.4711 92.3896 14.3726 92.3037C14.1409 92.1148 13.873 91.9754 13.5853 91.894C13.2596 91.7932 12.8936 91.6986 12.4874 91.6103C12.0652 91.5135 11.6497 91.41 11.2447 91.3C10.8569 91.1973 10.4836 91.0463 10.1336 90.8505C9.81144 90.6756 9.53777 90.4237 9.33699 90.1173C9.13027 89.7704 9.02923 89.371 9.04625 88.9677C9.03405 88.4921 9.17353 88.025 9.44453 87.6338C9.73123 87.2402 10.12 86.9321 10.569 86.7428C11.1192 86.5128 11.7119 86.4021 12.3081 86.418C12.9107 86.4064 13.5099 86.5095 14.0738 86.7216C14.5481 86.9012 14.9621 87.2104 15.2687 87.6139C15.5679 88.0323 15.7298 88.5331 15.732 89.0473L14.4217 89.3907C14.4279 89.1177 14.3758 88.8465 14.269 88.5951C14.1724 88.377 14.0255 88.1848 13.8402 88.0343C13.6395 87.8768 13.41 87.7602 13.1644 87.6908C12.8811 87.6086 12.5872 87.5684 12.2922 87.5715C11.9521 87.565 11.6136 87.6211 11.2939 87.7373C11.037 87.8254 10.8099 87.9834 10.638 88.1934C10.4886 88.3858 10.4094 88.6234 10.4137 88.8669C10.4071 89.0094 10.4336 89.1514 10.4909 89.282C10.5482 89.4127 10.6349 89.5283 10.7442 89.62C11.0079 89.8265 11.3125 89.9747 11.6377 90.055C12.0121 90.161 12.4117 90.2631 12.8325 90.3599C13.2122 90.4381 13.5893 90.5363 13.9637 90.6503C14.3255 90.7591 14.6741 90.9076 15.0032 91.0931C15.3128 91.2662 15.5721 91.5166 15.7559 91.8197C15.9531 92.1676 16.0497 92.5633 16.0347 92.9627C16.0462 93.4357 15.9067 93.9001 15.6364 94.2886C15.3329 94.6936 14.9176 95.0014 14.4416 95.1743C13.9159 95.3794 13.2512 95.4819 12.4475 95.4819Z" fill="#0082A0"/>
<path d="M17.7659 95.3095V86.5903H19.2342V95.3095H17.7659Z" fill="#0082A0"/>
<path d="M21.3902 95.3095V86.5903H22.832V95.3095H21.3902ZM22.1868 91.4644V90.2618H27.7427V91.4644H22.1868ZM27.1732 95.3095V86.5903H28.5977V95.3095H27.1732Z" fill="#0082A0"/>
<defs>
<linearGradient id="paint0_linear_70_585" x1="-3.5566" y1="44.4023" x2="40.6048" y2="11.7141" gradientUnits="userSpaceOnUse">
<stop stop-color="#0FB5A9"/>
<stop offset="0.49" stop-color="#13699B"/>
<stop offset="1" stop-color="#17163B"/>
</linearGradient>
<linearGradient id="paint1_linear_70_585" x1="-1.04346" y1="60.4644" x2="57.8676" y2="6.97047" gradientUnits="userSpaceOnUse">
<stop stop-color="#0FB5A9"/>
<stop offset="0.49" stop-color="#13699B"/>
<stop offset="1" stop-color="#17163B"/>
</linearGradient>
<linearGradient id="paint2_linear_70_585" x1="22.1336" y1="20.4244" x2="48.5411" y2="0.877656" gradientUnits="userSpaceOnUse">
<stop stop-color="#0FB5A9"/>
<stop offset="1" stop-color="#13699B"/>
</linearGradient>
<linearGradient id="paint3_linear_70_585" x1="77.5674" y1="34.2179" x2="33.4073" y2="66.9061" gradientUnits="userSpaceOnUse">
<stop stop-color="#0FB5A9"/>
<stop offset="0.49" stop-color="#13699B"/>
<stop offset="1" stop-color="#17163B"/>
</linearGradient>
<linearGradient id="paint4_linear_70_585" x1="75.0555" y1="18.1558" x2="16.1431" y2="71.6498" gradientUnits="userSpaceOnUse">
<stop stop-color="#0FB5A9"/>
<stop offset="0.49" stop-color="#13699B"/>
<stop offset="1" stop-color="#17163B"/>
</linearGradient>
<linearGradient id="paint5_linear_70_585" x1="51.8784" y1="58.1958" x2="25.4696" y2="77.7426" gradientUnits="userSpaceOnUse">
<stop stop-color="#0FB5A9"/>
<stop offset="1" stop-color="#13699B"/>
</linearGradient>
</defs>
</svg>
