<svg width="261" height="41" viewBox="0 0 261 41" fill="none" xmlns="http://www.w3.org/2000/svg">
<g clip-path="url(#clip0_186_379)">
<path d="M17.9109 0.41621C16.6872 0.41621 15.5137 0.905525 14.6484 1.77651C13.7831 2.6475 13.297 3.82882 13.297 5.06059V13.7217H5.74939C4.99653 13.7217 4.25105 13.871 3.5555 14.161C2.85995 14.451 2.22796 14.8761 1.69561 15.4119C1.16326 15.9478 0.74098 16.584 0.452874 17.2841C0.164769 17.9843 0.0164795 18.7347 0.0164795 19.4925V25.108H0.118207C3.9745 25.1116 7.77619 24.1907 11.2087 22.4215C14.6411 20.6523 17.6056 18.0857 19.8569 14.934C20.1457 14.5332 20.4213 14.1236 20.6838 13.7052C23.1443 9.79347 24.4475 5.25748 24.4412 0.627613V0.386482L17.9109 0.41621Z" fill="url(#paint0_linear_186_379)"/>
<path d="M23.3156 8.68756C22.6998 11.3479 21.6437 13.885 20.1915 16.1926C19.929 16.611 19.6534 17.0206 19.3646 17.4214C16.9386 20.8064 13.6948 23.5123 9.93989 25.2831C7.79562 26.2973 5.51442 26.9874 3.17 27.3311C2.1199 27.4847 1.06101 27.5696 0 27.5855V26.2179C3.83731 26.1726 7.61164 25.2302 11.0252 23.4651C14.4387 21.7 17.3981 19.1606 19.6698 16.0472C19.9607 15.6442 20.2397 15.2346 20.5066 14.8184C21.723 12.917 22.6685 10.8533 23.3156 8.68756Z" fill="url(#paint1_linear_186_379)"/>
<path d="M24.4248 0.41621V0.657351C24.4259 2.25528 24.272 3.84949 23.9654 5.41733C23.2164 7.71694 21.7994 9.73755 19.8976 11.218C17.9957 12.6984 15.6965 13.5705 13.297 13.7217V5.06059C13.297 3.82882 13.7831 2.6475 14.6484 1.77651C15.5137 0.905525 16.6872 0.41621 17.9109 0.41621H24.4248Z" fill="url(#paint2_linear_186_379)"/>
<path d="M19.8109 40.9108C21.0346 40.9108 22.2081 40.4215 23.0734 39.5505C23.9387 38.6795 24.4248 37.4982 24.4248 36.2664V27.5954H31.9724C32.7252 27.5954 33.4707 27.4461 34.1663 27.1561C34.8618 26.8661 35.4938 26.441 36.0262 25.9052C36.5585 25.3693 36.9808 24.7331 37.2689 24.033C37.557 23.3328 37.7053 22.5824 37.7053 21.8246V16.1892H37.6036C36.4176 16.1896 35.2332 16.2757 34.0595 16.4469C31.715 16.7907 29.4339 17.4808 27.2896 18.4949C23.5336 20.2685 20.2896 22.9779 17.8649 26.3666C17.5761 26.7674 17.3005 27.177 17.0379 27.5954C14.5775 31.5071 13.2742 36.0431 13.2805 40.673V40.9108H19.8109Z" fill="url(#paint3_linear_186_379)"/>
<path d="M14.4061 32.6428C15.0212 29.9812 16.0774 27.4429 17.5302 25.1345C17.7927 24.7183 18.0684 24.3087 18.3571 23.9057C20.5699 20.8049 23.4741 18.2697 26.8366 16.5033C30.199 14.737 33.926 13.7888 37.7184 13.7349V15.0992C36.6389 15.1152 35.5615 15.2001 34.4926 15.3535C31.2351 15.8228 28.1032 16.9408 25.2798 18.6423C22.4563 20.3438 19.9981 22.5946 18.0487 25.2633C17.7577 25.6619 17.4788 26.0715 17.2119 26.4921C15.9943 28.3995 15.0498 30.4701 14.4061 32.6428Z" fill="url(#paint4_linear_186_379)"/>
<path d="M13.2969 40.9108V40.673C13.2958 39.0751 13.4497 37.4808 13.7563 35.913C14.5069 33.6152 15.9246 31.5967 17.8263 30.1182C19.728 28.6396 22.0264 27.7689 24.4247 27.6185V36.2664C24.4247 37.4982 23.9386 38.6795 23.0733 39.5505C22.208 40.4215 21.0345 40.9108 19.8108 40.9108H13.2969Z" fill="url(#paint5_linear_186_379)"/>
<path d="M52.4559 38.5721L55.5734 29.574H57.7065L60.8207 38.5721H59.2225L56.722 30.7896H56.5481L54.0409 38.5721H52.4559ZM54.0278 36.6232V35.5595H59.4719V36.6232H54.0278Z" fill="#0082A0"/>
<path d="M62.1562 40.8084V31.4833H63.4426L63.4032 33.3497L63.6067 33.3662C63.6993 32.9758 63.8521 32.6024 64.0596 32.2596C64.2452 31.9602 64.5069 31.7162 64.8176 31.5527C65.165 31.3794 65.5491 31.2944 65.9366 31.3049C66.5129 31.2863 67.0795 31.4567 67.5512 31.7905C67.9985 32.1267 68.3403 32.5854 68.5356 33.1118C68.7661 33.7302 68.8775 34.3872 68.8638 35.0475C68.8729 35.6903 68.7615 36.3291 68.5356 36.9304C68.345 37.4487 68.0184 37.9053 67.5905 38.2517C67.1374 38.5908 66.583 38.7644 66.0187 38.7439C65.6044 38.7577 65.1944 38.6559 64.834 38.4499C64.5176 38.2576 64.2519 37.9913 64.0596 37.6736C63.8593 37.3338 63.7027 36.9697 63.5936 36.5901H63.3639C63.4164 36.8346 63.4623 37.0889 63.4984 37.3532C63.5345 37.6175 63.5641 37.8751 63.587 38.1295C63.61 38.3838 63.6198 38.625 63.6198 38.8529V40.8084H62.1562ZM65.5986 37.5349C65.9478 37.5427 66.2885 37.4257 66.5601 37.2046C66.8349 36.9698 67.0403 36.6635 67.1541 36.3193C67.2961 35.9097 67.365 35.478 67.3575 35.0442C67.3691 34.594 67.2956 34.1456 67.141 33.7229C67.0167 33.3927 66.8072 33.1019 66.5339 32.8806C66.2659 32.6741 65.936 32.5657 65.5986 32.5734C65.3018 32.566 65.0088 32.6414 64.752 32.7914C64.5118 32.9378 64.304 33.1323 64.1416 33.3629C63.9752 33.5998 63.8447 33.8603 63.7544 34.1358C63.6679 34.3969 63.6225 34.67 63.6198 34.9451V35.1367C63.6208 35.3399 63.6484 35.542 63.7019 35.7379C63.7594 35.9557 63.8386 36.167 63.9381 36.3688C64.0409 36.5807 64.1735 36.7765 64.3319 36.9502C64.4901 37.1235 64.678 37.2667 64.8865 37.373C65.1088 37.4789 65.3529 37.5298 65.5986 37.5217V37.5349Z" fill="#0082A0"/>
<path d="M70.5538 38.5721V28.9596H72.0174V38.5721H70.5538Z" fill="#0082A0"/>
<path d="M74.7707 30.3106C74.5148 30.3286 74.2606 30.2562 74.052 30.1058C73.971 30.0355 73.907 29.9475 73.8649 29.8484C73.8228 29.7494 73.8038 29.642 73.8092 29.5344C73.8032 29.4243 73.8219 29.3143 73.8639 29.2125C73.906 29.1107 73.9703 29.0198 74.052 28.9464C74.2606 28.7961 74.5148 28.7236 74.7707 28.7416C75.0276 28.7247 75.2828 28.7945 75.4959 28.9398C75.5814 29.0119 75.6486 29.1034 75.692 29.2068C75.7353 29.3102 75.7536 29.4225 75.7453 29.5344C75.7526 29.6438 75.7338 29.7533 75.6904 29.8539C75.647 29.9545 75.5803 30.0431 75.4959 30.1125C75.2828 30.2578 75.0276 30.3275 74.7707 30.3106ZM74.0258 38.5688V31.4833H75.5025V38.5721L74.0258 38.5688Z" fill="#0082A0"/>
<path d="M77.5305 38.5721V28.9464H78.9908V34.4001C79.3215 34.2018 79.6384 33.9811 79.9392 33.7394C80.2384 33.5072 80.5213 33.2545 80.7858 32.983C81.0275 32.7428 81.2543 32.488 81.4651 32.22C81.6391 31.9919 81.7908 31.7474 81.918 31.4899H83.631C83.4572 31.8539 83.2507 32.2011 83.014 32.5272C82.7634 32.8744 82.4774 33.1943 82.1608 33.4818C81.8415 33.7697 81.4915 34.0212 81.1173 34.2316C80.7602 34.4333 80.3753 34.5802 79.9753 34.6677V34.8626C80.4052 34.803 80.843 34.8483 81.2518 34.9947C81.6091 35.1282 81.9328 35.3391 82.2002 35.6124C82.4732 35.894 82.7082 36.2105 82.8992 36.5538C83.0961 36.9106 83.2864 37.2772 83.4669 37.6571L83.8607 38.5853H82.2363L81.9639 37.9445C81.7722 37.5176 81.553 37.1038 81.3076 36.7058C81.1107 36.3678 80.8431 36.0769 80.5233 35.8535C80.1894 35.6404 79.7995 35.5333 79.4043 35.5463H78.9843V38.5853L77.5305 38.5721Z" fill="#0082A0"/>
<path d="M86.7124 38.7505C86.3492 38.7571 85.9895 38.6779 85.6623 38.5192C85.3636 38.3638 85.1146 38.1269 84.9436 37.8355C84.78 37.5243 84.6885 37.1799 84.676 36.8281C84.6635 36.4762 84.7303 36.1261 84.8714 35.804C85.0073 35.5323 85.2151 35.3037 85.4719 35.1433C85.7916 34.9511 86.1362 34.8044 86.4958 34.7073C86.9783 34.5768 87.4697 34.4819 87.9659 34.4232C88.2941 34.367 88.5501 34.3208 88.7502 34.2779C88.9162 34.2543 89.0703 34.1779 89.19 34.0599C89.2918 33.9309 89.3421 33.7683 89.3311 33.604C89.3328 33.4558 89.3046 33.3089 89.2482 33.172C89.1918 33.0352 89.1083 32.9113 89.0029 32.8079C88.8626 32.686 88.6994 32.5939 88.5228 32.5372C88.3463 32.4804 88.1603 32.4602 87.9758 32.4776C87.7147 32.4772 87.4557 32.5242 87.2112 32.6163C86.9598 32.7079 86.7345 32.8598 86.5549 33.059C86.3531 33.2922 86.2221 33.5788 86.1775 33.8848L84.8484 33.4455C84.9326 33.1261 85.0678 32.8226 85.2488 32.547C85.4245 32.2817 85.6469 32.0511 85.9051 31.8665C86.1904 31.6667 86.5096 31.5212 86.8469 31.4371C87.2274 31.3382 87.6189 31.2893 88.0119 31.2917C88.5458 31.2735 89.0767 31.3786 89.5641 31.5989C89.9699 31.7997 90.2928 32.1376 90.4763 32.5536C90.6927 33.0761 90.7945 33.6394 90.775 34.2052V35.6487C90.775 35.9493 90.7914 36.2664 90.8012 36.6034C90.8111 36.9403 90.8307 37.264 90.857 37.5943C90.8832 37.9247 90.9161 38.255 90.9522 38.549H89.61C89.5837 38.2781 89.5575 37.994 89.5345 37.6967C89.5115 37.3994 89.4919 37.1087 89.4755 36.8181H89.2851C89.1475 37.1584 88.963 37.4775 88.7371 37.7661C88.499 38.0758 88.1913 38.3244 87.8394 38.4915C87.4875 38.6586 87.1013 38.7394 86.7124 38.7274V38.7505ZM87.2276 37.6175C87.4212 37.6155 87.6131 37.5809 87.7953 37.5151C88.0033 37.4435 88.2 37.3423 88.3794 37.2145C88.5827 37.0687 88.7649 36.8952 88.9209 36.6991C89.0985 36.4726 89.2442 36.2225 89.354 35.9559V34.6743L89.6822 34.7403C89.5203 34.8891 89.324 34.9947 89.1112 35.0475C88.8622 35.12 88.609 35.1774 88.3532 35.2193L87.5492 35.3547C87.2993 35.3963 87.0542 35.4627 86.8174 35.5529C86.6126 35.6268 86.4305 35.7532 86.289 35.9196C86.1469 36.109 86.0771 36.3434 86.0922 36.5802C86.0867 36.726 86.1134 36.8711 86.1701 37.0053C86.2268 37.1395 86.3122 37.2594 86.4203 37.3565C86.6521 37.543 86.9445 37.6361 87.2407 37.6175H87.2276Z" fill="#0082A0"/>
<path d="M95.4052 38.7505C94.9695 38.7572 94.5347 38.7061 94.1123 38.5985C93.7671 38.5149 93.44 38.3683 93.1475 38.1658C92.8965 37.9945 92.6868 37.7687 92.5338 37.5052C92.3824 37.241 92.2957 36.9443 92.2811 36.6397L93.4461 36.2433C93.4526 36.5003 93.5438 36.7478 93.7053 36.9469C93.8894 37.1683 94.1299 37.335 94.401 37.4292C94.7501 37.556 95.1195 37.6165 95.4905 37.6076C95.8892 37.6299 96.2866 37.5455 96.6423 37.3631C96.7662 37.2988 96.8698 37.2011 96.9417 37.081C97.0135 36.9608 97.0508 36.8229 97.0493 36.6826C97.055 36.5822 97.0379 36.4818 96.9992 36.3891C96.9605 36.2964 96.9013 36.2137 96.8261 36.1475C96.6372 36.0014 96.4205 35.8957 96.1895 35.837C95.9138 35.7544 95.5922 35.6784 95.2214 35.6025C94.8506 35.5265 94.5651 35.4604 94.237 35.3646C93.9171 35.2742 93.6079 35.149 93.3148 34.9914C93.0475 34.8465 92.8215 34.6349 92.6585 34.377C92.4855 34.0898 92.4 33.7579 92.4124 33.4223C92.4042 33.0311 92.5191 32.6473 92.7406 32.3257C92.9926 31.9895 93.3339 31.7319 93.725 31.5824C94.7077 31.2238 95.7831 31.2168 96.7703 31.5626C97.1544 31.7137 97.4934 31.9617 97.7548 32.2827C98.0027 32.6008 98.1594 32.9813 98.2077 33.3827L96.9869 33.7626C96.9825 33.4998 96.8951 33.2453 96.7375 33.0358C96.5764 32.8389 96.3656 32.6894 96.1271 32.6031C95.839 32.4987 95.5342 32.4483 95.228 32.4545C94.8579 32.4348 94.4897 32.5195 94.1648 32.6989C94.0455 32.7678 93.9468 32.8675 93.8787 32.9877C93.8106 33.108 93.7757 33.2443 93.7775 33.3827C93.7753 33.4828 93.7957 33.5821 93.8372 33.6731C93.8787 33.764 93.9402 33.8444 94.0171 33.9079C94.2113 34.0574 94.4351 34.1632 94.6734 34.2184C94.9491 34.2977 95.2608 34.377 95.6119 34.4596C95.9592 34.5209 96.3032 34.6003 96.6423 34.6974C96.9571 34.7849 97.2618 34.9056 97.5513 35.0574C97.8108 35.1944 98.0302 35.397 98.188 35.6454C98.3507 35.9313 98.4303 36.2576 98.4177 36.5868C98.431 37.0135 98.3041 37.4327 98.0567 37.7793C97.7901 38.1217 97.4278 38.3759 97.0164 38.5093C96.4966 38.6799 95.9519 38.7614 95.4052 38.7505Z" fill="#0082A0"/>
<path d="M100.695 30.3107C100.439 30.3281 100.185 30.2557 99.9765 30.1059C99.8954 30.0355 99.8314 29.9475 99.7893 29.8484C99.7472 29.7494 99.7282 29.642 99.7337 29.5344C99.7276 29.4243 99.7463 29.3143 99.7884 29.2125C99.8304 29.1107 99.8947 29.0198 99.9765 28.9464C100.185 28.7966 100.439 28.7242 100.695 28.7416C100.952 28.7247 101.207 28.7945 101.42 28.9398C101.506 29.0119 101.573 29.1034 101.616 29.2068C101.66 29.3102 101.678 29.4225 101.67 29.5344C101.677 29.6438 101.658 29.7534 101.615 29.8539C101.571 29.9545 101.505 30.0431 101.42 30.1125C101.207 30.2578 100.952 30.3276 100.695 30.3107ZM99.9502 38.5688V31.4833H101.427V38.5721L99.9502 38.5688Z" fill="#0082A0"/>
<path d="M110.113 38.7505C109.592 38.757 109.071 38.6971 108.564 38.5721C108.147 38.4719 107.755 38.2864 107.412 38.0271C107.104 37.7866 106.86 37.4735 106.7 37.1154C106.534 36.7235 106.455 36.2994 106.471 35.8733L107.783 35.5199C107.751 35.917 107.842 36.3144 108.046 36.6562C108.251 36.9695 108.55 37.209 108.899 37.34C109.312 37.4977 109.751 37.574 110.192 37.5646C110.603 37.575 111.012 37.5146 111.403 37.3862C111.691 37.2954 111.949 37.1262 112.148 36.8973C112.312 36.6976 112.401 36.4463 112.4 36.1872C112.406 36.0523 112.382 35.9179 112.329 35.7938C112.276 35.6698 112.196 35.5592 112.095 35.4704C111.857 35.2766 111.582 35.1329 111.288 35.0475C110.96 34.9451 110.579 34.846 110.166 34.7568C109.752 34.6677 109.306 34.5487 108.892 34.4265C108.495 34.3186 108.113 34.1622 107.754 33.9608C107.422 33.7834 107.139 33.5257 106.93 33.2109C106.717 32.8536 106.614 32.4412 106.631 32.025C106.62 31.5333 106.765 31.0508 107.045 30.6476C107.338 30.2423 107.735 29.9249 108.194 29.7293C108.757 29.493 109.365 29.3804 109.975 29.399C110.593 29.3855 111.207 29.492 111.784 29.7128C112.27 29.897 112.695 30.2152 113.011 30.6311C113.317 31.0633 113.482 31.5803 113.483 32.1109L112.145 32.4644C112.151 32.182 112.097 31.9016 111.987 31.6419C111.888 31.4156 111.738 31.2163 111.547 31.0605C111.342 30.8982 111.106 30.7781 110.855 30.707C110.565 30.6222 110.264 30.581 109.962 30.5848C109.614 30.5783 109.267 30.6354 108.938 30.7533C108.681 30.8483 108.455 31.0115 108.282 31.2257C108.128 31.4234 108.047 31.6684 108.052 31.9194C108.044 32.0654 108.07 32.2114 108.127 32.346C108.184 32.4805 108.27 32.6002 108.381 32.6956C108.651 32.9098 108.963 33.064 109.296 33.1482C109.68 33.2572 110.087 33.3596 110.52 33.4587C110.953 33.5578 111.295 33.6436 111.679 33.7593C112.048 33.8721 112.405 34.0249 112.742 34.2151C113.059 34.395 113.325 34.6544 113.513 34.9683C113.715 35.326 113.814 35.7332 113.798 36.1442C113.808 36.6317 113.663 37.1095 113.385 37.5085C113.075 37.9276 112.649 38.2458 112.161 38.4235C111.505 38.6608 110.81 38.7718 110.113 38.7505Z" fill="#0082A0"/>
<path d="M115.462 38.5721V28.9464H116.922V34.4001C117.253 34.2018 117.57 33.9811 117.871 33.7394C118.17 33.5072 118.453 33.2545 118.717 32.983C118.961 32.7439 119.189 32.489 119.4 32.22C119.576 31.9927 119.729 31.7481 119.856 31.4899H121.563C121.389 31.8539 121.182 32.2011 120.946 32.5272C120.695 32.8744 120.409 33.1943 120.092 33.4818C119.773 33.7697 119.423 34.0212 119.049 34.2316C118.692 34.4333 118.307 34.5802 117.907 34.6677V34.8626C118.337 34.803 118.775 34.8483 119.183 34.9947C119.541 35.1282 119.864 35.3391 120.132 35.6124C120.404 35.8949 120.639 36.2112 120.831 36.5538C121.028 36.9106 121.218 37.2772 121.399 37.6571L121.792 38.5853H120.168L119.896 37.9445C119.704 37.5176 119.485 37.1038 119.239 36.7058C119.042 36.3678 118.775 36.0769 118.455 35.8535C118.121 35.6404 117.731 35.5333 117.336 35.5463H116.916V38.5853L115.462 38.5721Z" fill="#0082A0"/>
<path d="M123.062 38.5721V31.4833H124.349L124.28 33.9508H124.509C124.57 33.4587 124.698 32.9773 124.89 32.5205C125.041 32.1639 125.288 31.8563 125.602 31.632C125.925 31.4184 126.305 31.31 126.692 31.3215C126.78 31.3215 126.882 31.3215 126.997 31.3215C127.122 31.331 127.247 31.3531 127.368 31.3875L127.302 32.9566C127.174 32.8934 127.036 32.85 126.895 32.8277C126.761 32.8049 126.625 32.7927 126.488 32.7914C126.155 32.7852 125.83 32.8935 125.566 33.0986C125.283 33.3257 125.058 33.618 124.91 33.9508C124.731 34.3518 124.602 34.7734 124.526 35.2061V38.5589L123.062 38.5721Z" fill="#0082A0"/>
<path d="M129.36 30.3107C129.104 30.3281 128.85 30.2557 128.641 30.1059C128.56 30.0355 128.496 29.9475 128.454 29.8484C128.412 29.7494 128.393 29.642 128.398 29.5344C128.392 29.4243 128.411 29.3143 128.453 29.2125C128.495 29.1107 128.559 29.0198 128.641 28.9464C128.85 28.7966 129.104 28.7242 129.36 28.7416C129.617 28.7247 129.872 28.7945 130.085 28.9398C130.17 29.0119 130.238 29.1034 130.281 29.2068C130.324 29.3102 130.343 29.4225 130.334 29.5344C130.342 29.6438 130.323 29.7534 130.279 29.8539C130.236 29.9545 130.169 30.0431 130.085 30.1125C129.872 30.2578 129.617 30.3276 129.36 30.3107ZM128.615 38.5688V31.4833H130.092V38.5721L128.615 38.5688Z" fill="#0082A0"/>
<path d="M132.11 38.5721V31.4833H133.396L133.314 33.68H133.531C133.632 33.2149 133.806 32.7689 134.046 32.3587C134.243 32.0268 134.526 31.756 134.866 31.5758C135.225 31.3962 135.621 31.3066 136.021 31.3149C136.367 31.2949 136.713 31.3624 137.026 31.5112C137.34 31.6601 137.611 31.8856 137.816 32.1671C138.228 32.7353 138.433 33.5963 138.433 34.7502V38.582H136.957V34.8791C136.997 34.2779 136.873 33.677 136.599 33.1416C136.489 32.9594 136.332 32.8105 136.145 32.7105C135.958 32.6105 135.747 32.5631 135.536 32.5734C135.149 32.5617 134.774 32.7042 134.492 32.9698C134.197 33.2541 133.973 33.6035 133.836 33.9905C133.678 34.4284 133.592 34.8891 133.58 35.3547V38.5721H132.11Z" fill="#0082A0"/>
<path d="M141.088 30.3106C140.832 30.3286 140.578 30.2562 140.369 30.1058C140.288 30.0355 140.224 29.9475 140.182 29.8484C140.14 29.7494 140.121 29.642 140.126 29.5344C140.12 29.4243 140.139 29.3143 140.181 29.2125C140.223 29.1107 140.288 29.0198 140.369 28.9464C140.578 28.7961 140.832 28.7236 141.088 28.7416C141.345 28.7247 141.6 28.7945 141.813 28.9398C141.899 29.0119 141.966 29.1034 142.009 29.2068C142.053 29.3102 142.071 29.4225 142.063 29.5344C142.07 29.6438 142.051 29.7533 142.008 29.8539C141.964 29.9545 141.898 30.0431 141.813 30.1125C141.6 30.2578 141.345 30.3275 141.088 30.3106ZM140.343 38.5688V31.4833H141.82V38.5721L140.343 38.5688Z" fill="#0082A0"/>
<path d="M143.838 38.5721V31.4833H145.124L145.042 33.68H145.259C145.36 33.2149 145.534 32.7689 145.774 32.3587C145.971 32.0268 146.255 31.756 146.594 31.5758C146.953 31.3962 147.349 31.3066 147.75 31.3149C148.096 31.2949 148.441 31.3624 148.755 31.5112C149.068 31.6601 149.34 31.8856 149.545 32.1671C149.956 32.7353 150.161 33.5963 150.161 34.7502V38.582H148.685V34.8791C148.725 34.2779 148.602 33.677 148.327 33.1416C148.217 32.9594 148.06 32.8105 147.873 32.7105C147.686 32.6105 147.475 32.5631 147.264 32.5734C146.878 32.5617 146.503 32.7042 146.22 32.9698C145.926 33.2541 145.701 33.6035 145.564 33.9905C145.406 34.4284 145.32 34.8891 145.308 35.3547V38.5721H143.838Z" fill="#0082A0"/>
<path d="M154.766 41C154.145 41.0131 153.525 40.9533 152.918 40.8216C152.52 40.7471 152.149 40.5631 151.848 40.2898C151.738 40.1741 151.652 40.0372 151.596 39.8874C151.54 39.7376 151.514 39.5778 151.52 39.4177C151.518 39.2208 151.561 39.0259 151.646 38.8487C151.732 38.6715 151.857 38.5168 152.012 38.397C152.447 38.0848 152.962 37.9048 153.496 37.8784V37.6175C153.116 37.6369 152.737 37.5797 152.38 37.449C152.271 37.4113 152.177 37.3405 152.11 37.2464C152.043 37.1523 152.006 37.0396 152.006 36.9238C152.008 36.7909 152.044 36.6608 152.109 36.5454C152.174 36.4299 152.268 36.3329 152.38 36.2631C152.75 36.0289 153.161 35.8665 153.591 35.7841V35.5232C153.357 35.5283 153.125 35.4856 152.908 35.3976C152.692 35.3095 152.495 35.1781 152.331 35.0112C152.024 34.6653 151.864 34.2125 151.884 33.7494C151.876 33.3132 152.007 32.886 152.258 32.5304C152.535 32.1568 152.914 31.8721 153.348 31.7112C153.902 31.5038 154.49 31.4051 155.081 31.4206H158.493V32.6196L156.328 32.2893V32.5734C156.766 32.6337 157.181 32.8079 157.532 33.0788C157.67 33.2023 157.778 33.3556 157.848 33.5272C157.919 33.6989 157.95 33.8844 157.939 34.0698C157.943 34.4378 157.819 34.7956 157.588 35.0806C157.315 35.3903 156.963 35.6188 156.57 35.7412C156.051 35.9116 155.506 35.992 154.959 35.979C154.831 35.979 154.703 35.979 154.572 35.979C154.441 35.979 154.244 35.946 153.985 35.9097C153.798 36.0274 153.619 36.1576 153.45 36.2995C153.395 36.3369 153.349 36.3858 153.315 36.4428C153.281 36.4999 153.26 36.5636 153.253 36.6298C153.256 36.6788 153.273 36.7259 153.303 36.7648C153.333 36.8037 153.374 36.8326 153.42 36.8478C153.555 36.9084 153.699 36.9432 153.847 36.9502C154.022 36.9634 154.189 36.97 154.349 36.97H156.068C156.304 36.9731 156.54 36.9896 156.774 37.0196C157.063 37.0528 157.346 37.1285 157.614 37.2442C157.896 37.3631 158.14 37.5559 158.323 37.8025C158.533 38.1056 158.635 38.4708 158.615 38.8397C158.632 39.2902 158.474 39.7297 158.175 40.0652C157.818 40.4188 157.371 40.6648 156.882 40.7754C156.189 40.9414 155.478 41.0168 154.766 41ZM154.861 39.8009C155.328 39.8101 155.795 39.7736 156.255 39.6919C156.539 39.6536 156.808 39.5396 157.033 39.3616C157.178 39.2235 157.266 39.0367 157.283 38.8369C157.299 38.637 157.242 38.4381 157.122 38.2781C157.013 38.1544 156.872 38.063 156.715 38.0138C156.56 37.9601 156.399 37.9279 156.236 37.9181C156.078 37.9181 155.94 37.9181 155.822 37.9181H154.181C153.81 37.948 153.457 38.0934 153.171 38.3343C152.999 38.5006 152.9 38.7287 152.895 38.9685C152.888 39.0724 152.906 39.1765 152.949 39.2716C152.991 39.3667 153.056 39.4498 153.138 39.5135C153.345 39.6457 153.58 39.7292 153.824 39.758C154.167 39.805 154.514 39.8248 154.861 39.8174V39.8009ZM154.943 35.1235C155.368 35.1589 155.792 35.0419 156.141 34.7932C156.272 34.6813 156.376 34.5408 156.446 34.3822C156.515 34.2237 156.548 34.0513 156.541 33.8782C156.546 33.6894 156.512 33.5016 156.441 33.3269C156.37 33.1522 156.263 32.9945 156.127 32.8641C155.78 32.6068 155.36 32.468 154.928 32.468C154.496 32.468 154.076 32.6068 153.729 32.8641C153.594 32.9903 153.488 33.144 153.417 33.3149C153.346 33.4858 153.313 33.67 153.318 33.8551C153.316 34.088 153.378 34.3169 153.499 34.5157C153.63 34.7188 153.819 34.8776 154.04 34.9716C154.327 35.0854 154.635 35.1372 154.943 35.1235Z" fill="#0082A0"/>
<path d="M163.475 38.5721V29.5773H164.978V38.5754L163.475 38.5721Z" fill="#0082A0"/>
<path d="M170.95 38.7505C170.545 38.7614 170.144 38.6669 169.785 38.4763C169.464 38.2992 169.193 38.0408 169.001 37.7265C168.791 37.3836 168.644 37.0054 168.568 36.61H168.351L168.378 38.5721H167.091V28.9596H168.568V31.229C168.567 31.4718 168.553 31.7145 168.525 31.9557C168.499 32.2167 168.466 32.4809 168.424 32.7485C168.381 33.016 168.345 33.2869 168.309 33.5578H168.555C168.662 33.1682 168.817 32.7933 169.014 32.4413C169.202 32.0904 169.485 31.8005 169.83 31.6052C170.175 31.4099 170.568 31.3172 170.963 31.338C171.508 31.3239 172.043 31.4885 172.486 31.807C172.931 32.1462 173.272 32.6039 173.471 33.1283C173.714 33.7596 173.831 34.4332 173.815 35.1103C173.831 35.7622 173.719 36.4109 173.487 37.0196C173.286 37.5375 172.945 37.9884 172.502 38.3211C172.044 38.6279 171.5 38.7784 170.95 38.7505ZM170.53 37.4952C170.869 37.5058 171.201 37.3998 171.472 37.1947C171.747 36.9715 171.956 36.6768 172.076 36.3424C172.229 35.9262 172.302 35.4846 172.292 35.0409C172.3 34.6072 172.231 34.1755 172.089 33.7659C171.97 33.4251 171.764 33.122 171.492 32.8872C171.221 32.6646 170.88 32.5473 170.53 32.5569C170.283 32.554 170.039 32.6106 169.818 32.7221C169.611 32.8274 169.425 32.9708 169.27 33.1449C169.115 33.3191 168.984 33.5136 168.88 33.7229C168.775 33.927 168.692 34.1419 168.634 34.3638C168.584 34.5526 168.558 34.7467 168.555 34.9418V35.1466C168.558 35.4137 168.601 35.6788 168.683 35.9328C168.767 36.2071 168.897 36.465 169.067 36.6959C169.237 36.9244 169.448 37.1184 169.69 37.2673C169.943 37.4239 170.234 37.5062 170.53 37.5052V37.4952Z" fill="#0082A0"/>
<path d="M177.845 38.7505C177.499 38.7717 177.153 38.7069 176.837 38.5617C176.522 38.4165 176.247 38.1955 176.037 37.9181C175.623 37.3631 175.42 36.5307 175.42 35.4241V31.4833H176.897V35.2721C176.854 35.8489 176.967 36.4266 177.225 36.9436C177.336 37.1279 177.496 37.2778 177.686 37.3768C177.877 37.4759 178.09 37.5203 178.304 37.5052C178.563 37.5085 178.817 37.4374 179.036 37.3004C179.263 37.1541 179.455 36.9589 179.597 36.7289C179.767 36.4579 179.895 36.1628 179.978 35.8535C180.077 35.4921 180.137 35.1212 180.158 34.7469V31.4899H181.622V38.5787H180.375L180.457 36.3292H180.214C180.123 36.8119 179.955 37.2769 179.719 37.7066C179.538 38.0416 179.266 38.3177 178.934 38.5027C178.597 38.6752 178.223 38.7604 177.845 38.7505Z" fill="#0082A0"/>
<path d="M188.746 38.7505C188.318 38.7595 187.893 38.6679 187.506 38.4829C187.165 38.3209 186.879 38.0627 186.682 37.7397C186.481 37.4031 186.38 37.0158 186.39 36.6232C186.38 36.265 186.462 35.9103 186.626 35.5926C186.783 35.305 187 35.0558 187.263 34.8626C187.54 34.6592 187.847 34.4999 188.172 34.3902C188.5 34.2754 188.837 34.1892 189.18 34.1325L189.248 34.486C188.826 34.6539 188.45 34.9199 188.149 35.2623C187.908 35.5433 187.774 35.9017 187.772 36.2731C187.768 36.519 187.832 36.7612 187.955 36.9733C188.078 37.1896 188.26 37.3652 188.481 37.4787C188.742 37.6025 189.028 37.6666 189.317 37.6666C189.607 37.6666 189.892 37.6025 190.154 37.4787C190.408 37.3445 190.641 37.1743 190.847 36.9733L191.175 37.492H190.847C190.715 37.7378 190.546 37.9608 190.344 38.1526C190.146 38.3431 189.912 38.4913 189.655 38.5886C189.365 38.6978 189.057 38.7527 188.746 38.7505ZM193.554 38.7505C193.08 38.7498 192.614 38.6366 192.192 38.4202C191.735 38.1814 191.318 37.8728 190.955 37.5052C190.559 37.1111 190.207 36.6747 189.905 36.2037C189.596 35.7256 189.319 35.2267 189.078 34.7106C188.849 34.2289 188.666 33.7269 188.53 33.2109C188.41 32.7805 188.346 32.3365 188.339 31.8896C188.333 31.4614 188.422 31.0371 188.599 30.6476C188.772 30.2725 189.052 29.9575 189.403 29.7425C189.827 29.4936 190.313 29.3721 190.804 29.3924C191.258 29.3777 191.709 29.4765 192.117 29.6798C192.449 29.8508 192.73 30.1101 192.927 30.4296C193.114 30.7423 193.211 31.1016 193.206 31.4668C193.203 31.772 193.131 32.0725 192.996 32.3455C192.826 32.6632 192.582 32.9343 192.284 33.135C191.869 33.4127 191.411 33.6182 190.929 33.7428L190.82 33.4983C191.132 33.2637 191.397 32.9724 191.601 32.6395C191.757 32.3648 191.838 32.0539 191.838 31.7377C191.854 31.4384 191.768 31.1425 191.595 30.8987C191.503 30.7852 191.385 30.6958 191.251 30.6383C191.117 30.5808 190.972 30.5568 190.827 30.5683C190.615 30.5591 190.405 30.622 190.233 30.7467C190.077 30.8653 189.962 31.0306 189.905 31.2191C189.837 31.4325 189.805 31.6557 189.81 31.8797C189.817 32.2247 189.867 32.5675 189.957 32.9004C190.064 33.3158 190.202 33.7222 190.371 34.116C190.55 34.5396 190.756 34.9511 190.988 35.3481C191.208 35.7351 191.464 36.1001 191.752 36.4382C192.002 36.739 192.296 36.9987 192.625 37.2079C192.895 37.3878 193.21 37.4874 193.534 37.4952C193.758 37.5077 193.978 37.4346 194.151 37.2904C194.224 37.226 194.282 37.146 194.321 37.0564C194.359 36.9667 194.377 36.8695 194.374 36.7719C194.365 36.5295 194.276 36.297 194.122 36.1112C193.924 35.8668 193.678 35.6665 193.4 35.5232C193.036 35.3301 192.645 35.1921 192.241 35.1136V33.8187H195.382V34.9617L192.907 34.6049V34.8791C193.649 34.9739 194.356 35.2519 194.965 35.6884C195.17 35.8465 195.336 36.0501 195.449 36.2833C195.563 36.5165 195.622 36.773 195.621 37.0328C195.631 37.3186 195.561 37.6015 195.418 37.8487C195.283 38.0639 195.1 38.244 194.883 38.3739C194.67 38.5019 194.438 38.5965 194.197 38.6547C193.989 38.7045 193.777 38.7321 193.564 38.7373L193.554 38.7505Z" fill="#0082A0"/>
<path d="M200.622 38.5721V29.5773H204.065C204.537 29.5733 205.008 29.622 205.469 29.7227C205.85 29.8005 206.215 29.9459 206.546 30.1521C206.833 30.3307 207.071 30.581 207.235 30.8788C207.405 31.2087 207.489 31.5773 207.478 31.9491C207.485 32.2656 207.41 32.5786 207.261 32.8575C207.106 33.1341 206.879 33.3626 206.605 33.5181C206.237 33.7136 205.834 33.8337 205.42 33.8716V34.0632C206.085 34.0732 206.728 34.3056 207.248 34.7238C207.445 34.9167 207.599 35.1496 207.7 35.407C207.8 35.6645 207.845 35.9405 207.832 36.2169C207.848 36.6797 207.717 37.1357 207.458 37.5184C207.173 37.8966 206.779 38.176 206.329 38.3178C205.703 38.5167 205.049 38.6083 204.393 38.5886L200.622 38.5721ZM202.06 33.4752H203.563C204.196 33.5188 204.83 33.4054 205.41 33.1448C205.598 33.0511 205.754 32.9049 205.861 32.7239C205.968 32.5429 206.021 32.3347 206.014 32.1242C206.024 31.9261 205.981 31.729 205.888 31.5543C205.794 31.3795 205.655 31.2339 205.486 31.1332C204.991 30.8839 204.44 30.7699 203.887 30.8029H202.06V33.4752ZM202.06 37.3466H204.455C204.958 37.3782 205.459 37.2636 205.899 37.0163C206.055 36.9054 206.18 36.7559 206.261 36.5823C206.343 36.4087 206.379 36.2169 206.365 36.0253C206.378 35.79 206.325 35.5559 206.212 35.3493C206.1 35.1427 205.932 34.9718 205.728 34.8559C205.136 34.5635 204.477 34.4315 203.819 34.4728H202.06V37.3466Z" fill="#0082A0"/>
<path d="M211.865 38.7505C211.519 38.7717 211.173 38.7069 210.858 38.5617C210.542 38.4165 210.267 38.1955 210.057 37.9181C209.648 37.3631 209.442 36.5318 209.44 35.4241V31.4833H210.917V35.2721C210.874 35.8489 210.987 36.4266 211.245 36.9436C211.356 37.1235 211.514 37.2697 211.701 37.3668C211.888 37.4639 212.098 37.5083 212.308 37.4952C212.566 37.4986 212.82 37.4275 213.04 37.2904C213.267 37.1441 213.458 36.949 213.601 36.719C213.77 36.449 213.899 36.1551 213.982 35.8469C214.08 35.4853 214.142 35.1145 214.165 34.7403V31.4833H215.626V38.5721H214.382L214.461 36.3226H214.238C214.146 36.8053 213.979 37.2703 213.742 37.7001C213.561 38.035 213.289 38.3111 212.958 38.4961C212.62 38.6714 212.245 38.7589 211.865 38.7505Z" fill="#0082A0"/>
<path d="M219.298 38.7505C218.936 38.7576 218.577 38.6783 218.251 38.5193C217.947 38.3668 217.693 38.1294 217.519 37.8355C217.354 37.525 217.261 37.1806 217.248 36.8285C217.235 36.4765 217.302 36.126 217.444 35.804C217.581 35.5325 217.79 35.304 218.047 35.1433C218.366 34.9505 218.709 34.8037 219.068 34.7073C219.551 34.5775 220.042 34.4826 220.538 34.4232C220.866 34.3671 221.126 34.3208 221.326 34.2779C221.492 34.2544 221.646 34.178 221.765 34.0599C221.867 33.9309 221.918 33.7684 221.907 33.604C221.908 33.4559 221.88 33.3089 221.824 33.1721C221.767 33.0352 221.684 32.9113 221.578 32.8079C221.437 32.6861 221.274 32.5941 221.097 32.5373C220.92 32.4806 220.733 32.4603 220.548 32.4776C220.287 32.4775 220.028 32.5245 219.783 32.6163C219.532 32.7079 219.307 32.8598 219.127 33.059C218.924 33.2919 218.792 33.5785 218.746 33.8848L217.434 33.4455C217.521 33.126 217.661 32.8234 217.847 32.5503C218.022 32.2843 218.245 32.0535 218.504 31.8698C218.789 31.67 219.108 31.5245 219.445 31.4404C219.826 31.3415 220.217 31.2926 220.61 31.295C221.143 31.2764 221.673 31.3815 222.159 31.6022C222.565 31.8038 222.889 32.1413 223.075 32.5569C223.29 33.0799 223.391 33.6429 223.373 34.2085V35.652C223.373 35.9526 223.39 36.2697 223.4 36.6067C223.41 36.9436 223.426 37.2673 223.452 37.5977C223.478 37.928 223.511 38.2583 223.547 38.5523H222.208C222.179 38.2814 222.156 37.9974 222.133 37.7001C222.11 37.4028 222.09 37.1121 222.071 36.8214H221.884C221.745 37.1618 221.559 37.4809 221.332 37.7694C221.095 38.0798 220.787 38.3288 220.435 38.4959C220.083 38.663 219.697 38.7435 219.308 38.7307L219.298 38.7505ZM219.813 37.6175C220.008 37.6156 220.201 37.581 220.384 37.5151C220.591 37.4429 220.786 37.3417 220.965 37.2145C221.169 37.0704 221.352 36.8968 221.506 36.6992C221.685 36.4734 221.831 36.2231 221.939 35.9559V34.6743L222.268 34.7403C222.107 34.8886 221.912 34.9942 221.7 35.0475C221.451 35.12 221.198 35.1774 220.942 35.2193L220.135 35.3547C219.886 35.3963 219.642 35.4627 219.406 35.5529C219.201 35.626 219.019 35.7525 218.878 35.9196C218.736 36.109 218.666 36.3434 218.681 36.5802C218.672 36.7249 218.695 36.8697 218.749 37.0041C218.803 37.1384 218.886 37.2589 218.993 37.3565C219.225 37.5441 219.519 37.6372 219.816 37.6175H219.813Z" fill="#0082A0"/>
<path d="M225.313 38.5721V28.9596H226.803V31.1695C226.803 31.371 226.803 31.5692 226.803 31.7707C226.803 31.9722 226.776 32.1737 226.747 32.3818C226.717 32.5899 226.694 32.8046 226.665 33.016C226.635 33.2274 226.609 33.4422 226.573 33.6503H226.829C226.941 33.2 227.112 32.7667 227.338 32.362C227.518 32.0352 227.782 31.7627 228.102 31.5725C228.452 31.3838 228.845 31.2915 229.241 31.3049C229.59 31.2834 229.938 31.3509 230.254 31.501C230.57 31.6511 230.844 31.8791 231.049 32.1638C231.449 32.7386 231.65 33.5886 231.65 34.7139V38.5721H230.173V34.9187C230.217 34.3046 230.093 33.6901 229.815 33.1416C229.701 32.9573 229.539 32.8073 229.348 32.7073C229.156 32.6074 228.941 32.5611 228.726 32.5734C228.364 32.5648 228.012 32.6946 227.741 32.9368C227.457 33.201 227.241 33.5309 227.111 33.898C226.949 34.3354 226.848 34.7935 226.813 35.2589V38.5622L225.313 38.5721Z" fill="#0082A0"/>
<path d="M236.972 38.5721V29.5773H238.449V38.5754L236.972 38.5721ZM237.786 34.6082V33.3695H243.473V34.6082H237.786ZM242.892 38.5721V29.5773H244.356V38.5754L242.892 38.5721Z" fill="#0082A0"/>
<path d="M248.133 38.7505C247.77 38.7571 247.41 38.6779 247.083 38.5193C246.783 38.3667 246.531 38.132 246.358 37.8421C246.194 37.5309 246.103 37.1865 246.09 36.8347C246.078 36.4828 246.144 36.1327 246.285 35.8106C246.423 35.5399 246.63 35.3116 246.886 35.1499C247.206 34.9578 247.55 34.811 247.91 34.7139C248.392 34.5834 248.884 34.4885 249.38 34.4298C249.708 34.3737 249.967 34.3274 250.164 34.2845C250.33 34.2617 250.485 34.1852 250.604 34.0665C250.707 33.938 250.759 33.7754 250.748 33.6106C250.75 33.4625 250.722 33.3155 250.666 33.1786C250.609 33.0418 250.526 32.9179 250.42 32.8145C250.279 32.6927 250.115 32.6007 249.938 32.5439C249.761 32.4872 249.575 32.4669 249.39 32.4842C249.129 32.4838 248.87 32.5308 248.625 32.6229C248.374 32.7145 248.149 32.8664 247.969 33.0656C247.765 33.2977 247.633 33.5847 247.588 33.8914L246.276 33.4521C246.359 33.1329 246.493 32.8294 246.673 32.5536C246.848 32.2878 247.07 32.057 247.329 31.8731C247.613 31.6734 247.931 31.5278 248.268 31.4437C248.648 31.345 249.04 31.2962 249.433 31.2984C249.966 31.2798 250.497 31.3849 250.985 31.6056C251.391 31.8063 251.713 32.1442 251.897 32.5602C252.113 33.0827 252.215 33.6461 252.196 34.2118V35.6553C252.196 35.9559 252.215 36.273 252.222 36.61C252.228 36.9469 252.251 37.2706 252.278 37.6009C252.304 37.9313 252.337 38.2616 252.373 38.5556H251.031C251.004 38.2847 250.978 38.0006 250.958 37.7033C250.939 37.4061 250.916 37.1154 250.896 36.8247H250.706C250.568 37.165 250.384 37.4841 250.158 37.7727C249.92 38.0825 249.612 38.331 249.26 38.4981C248.908 38.6652 248.522 38.746 248.133 38.734V38.7505ZM248.648 37.6175C248.842 37.6158 249.034 37.5812 249.216 37.5151C249.424 37.4435 249.621 37.3423 249.8 37.2145C250.005 37.0704 250.187 36.8968 250.342 36.6992C250.519 36.4726 250.665 36.2225 250.775 35.9559V34.6743L251.103 34.7403C250.942 34.8886 250.747 34.9942 250.535 35.0475C250.286 35.1193 250.033 35.1767 249.777 35.2193L248.97 35.3547C248.72 35.3968 248.475 35.4632 248.238 35.5529C248.034 35.6276 247.852 35.7539 247.71 35.9196C247.568 36.109 247.498 36.3434 247.513 36.5803C247.507 36.726 247.534 36.8711 247.591 37.0053C247.647 37.1395 247.733 37.2594 247.841 37.3565C248.07 37.5394 248.357 37.6322 248.648 37.6175Z" fill="#0082A0"/>
<path d="M256.491 38.7241C256.208 38.7472 255.923 38.7084 255.656 38.6103C255.39 38.5122 255.147 38.3572 254.945 38.1559C254.611 37.7793 254.443 37.1913 254.443 36.392V32.6956H253.403V31.4833H254.079C254.26 31.4961 254.442 31.456 254.601 31.3677C254.665 31.3147 254.717 31.2494 254.756 31.1757C254.794 31.1019 254.817 31.0212 254.824 30.9383L254.959 29.9011H255.841V31.4833H257.777V32.7254H255.841V36.3589C255.828 36.4951 255.842 36.6325 255.884 36.7627C255.926 36.8929 255.994 37.013 256.084 37.1154C256.18 37.201 256.291 37.2664 256.413 37.3078C256.534 37.3492 256.662 37.3658 256.79 37.3565C256.967 37.3567 257.143 37.3333 257.315 37.2872C257.496 37.2384 257.666 37.1555 257.817 37.0427V38.4862C257.577 38.5723 257.33 38.6365 257.078 38.6778C256.884 38.7079 256.688 38.7233 256.491 38.7241Z" fill="#0082A0"/>
<path d="M260.025 30.3107C259.769 30.3292 259.515 30.2567 259.307 30.1059C259.225 30.036 259.161 29.9481 259.119 29.8489C259.076 29.7497 259.058 29.6421 259.064 29.5344C259.057 29.4242 259.075 29.314 259.118 29.2121C259.16 29.1102 259.224 29.0193 259.307 28.9464C259.515 28.7956 259.769 28.7231 260.025 28.7416C260.282 28.7247 260.537 28.7945 260.751 28.9398C260.835 29.0124 260.902 29.104 260.946 29.2073C260.989 29.3105 261.008 29.4226 261 29.5344C261.006 29.6437 260.987 29.753 260.944 29.8534C260.901 29.9539 260.834 30.0426 260.751 30.1125C260.537 30.2578 260.282 30.3275 260.025 30.3107ZM259.28 38.5688V31.4833H260.757V38.5721L259.28 38.5688Z" fill="#0082A0"/>
<path d="M52.6726 22.1516L60.194 0.429426H65.392L72.9134 22.1516H69.0542L63.0063 3.35941H62.5797L56.5317 22.1516H52.6726ZM56.4661 17.4445V14.8779H69.5924V17.4445H56.4661Z" fill="#0082A0"/>
<path d="M83.4405 22.5811C82.1795 22.5956 80.9217 22.4514 79.6963 22.1516C78.6891 21.909 77.7427 21.4592 76.9168 20.8303C76.1739 20.2473 75.5846 19.4896 75.2005 18.6238C74.7962 17.6791 74.6067 16.6555 74.6459 15.6277L77.8159 14.7722C77.7444 15.7348 77.9739 16.6958 78.4722 17.5205C78.9564 18.2742 79.6669 18.8528 80.5002 19.1721C81.4954 19.5561 82.5555 19.7412 83.621 19.7171C84.6139 19.7425 85.6038 19.5972 86.5482 19.2877C87.2449 19.0689 87.8675 18.6595 88.3465 18.1052C88.7415 17.6228 88.9552 17.0159 88.9503 16.3908C88.9645 16.0657 88.9058 15.7416 88.7785 15.4426C88.6512 15.1435 88.4587 14.8771 88.2152 14.6631C87.6427 14.1926 86.9804 13.8453 86.2693 13.6425C85.462 13.3914 84.5595 13.1569 83.5554 12.9356C82.5512 12.7142 81.4847 12.4368 80.4838 12.1626C79.5252 11.9069 78.6024 11.5306 77.7372 11.0428C76.9417 10.606 76.2654 9.97861 75.7682 9.21608C75.2546 8.35299 75.0036 7.35732 75.0463 6.35217C75.0179 5.16767 75.3625 4.0045 76.0307 3.02909C76.7417 2.04989 77.7019 1.28187 78.8102 0.805997C80.1721 0.236202 81.638 -0.0384261 83.1124 1.92784e-06C84.6017 -0.028414 86.0828 0.22829 87.4769 0.75645C88.6485 1.20484 89.6717 1.97504 90.4303 2.97954C91.1703 4.02148 91.5694 5.26957 91.5723 6.55036L88.3366 7.4059C88.352 6.72578 88.2234 6.05016 87.9593 5.42395C87.7205 4.8796 87.3559 4.40055 86.896 4.02667C86.4063 3.62792 85.8431 3.33044 85.2388 3.15131C84.5385 2.94647 83.8121 2.8463 83.0828 2.85402C82.241 2.83795 81.4034 2.97792 80.6118 3.26693C79.9782 3.48714 79.418 3.88061 78.994 4.40325C78.6246 4.88265 78.4289 5.47468 78.4394 6.0813C78.4233 6.43621 78.4886 6.79009 78.6303 7.11548C78.772 7.44087 78.9863 7.72901 79.2565 7.95754C79.9075 8.47112 80.659 8.84035 81.4617 9.04101C82.3904 9.30527 83.3749 9.55963 84.4152 9.80076C85.3537 9.99566 86.2857 10.2401 87.2111 10.5242C88.1044 10.7953 88.965 11.1653 89.7773 11.6275C90.5435 12.0586 91.1857 12.6823 91.6412 13.4377C92.1275 14.3045 92.365 15.2903 92.327 16.2851C92.3553 17.4634 92.0105 18.6202 91.3426 19.5883C90.5914 20.5964 89.5653 21.3631 88.3891 21.7949C87.0743 22.319 85.4248 22.5811 83.4405 22.5811Z" fill="#0082A0"/>
<path d="M96.5865 22.1516V0.429426H100.216V22.1516H96.5865Z" fill="#0082A0"/>
<path d="M105.545 22.1516V0.429426H109.109V22.1516H105.545ZM107.514 12.5722V9.57614H121.238V12.5722H107.514ZM119.84 22.1516V0.429426H123.371V22.1516H119.84Z" fill="#0082A0"/>
</g>
<defs>
<linearGradient id="paint0_linear_186_379" x1="-1.86714" y1="23.2879" x2="20.8249" y2="6.62053" gradientUnits="userSpaceOnUse">
<stop stop-color="#0FB5A9"/>
<stop offset="0.49" stop-color="#13699B"/>
<stop offset="1" stop-color="#17163B"/>
</linearGradient>
<linearGradient id="paint1_linear_186_379" x1="-0.584121" y1="31.5593" x2="29.7361" y2="4.24518" gradientUnits="userSpaceOnUse">
<stop stop-color="#0FB5A9"/>
<stop offset="0.49" stop-color="#13699B"/>
<stop offset="1" stop-color="#17163B"/>
</linearGradient>
<linearGradient id="paint2_linear_186_379" x1="11.2591" y1="10.9371" x2="24.8321" y2="0.970718" gradientUnits="userSpaceOnUse">
<stop stop-color="#0FB5A9"/>
<stop offset="1" stop-color="#13699B"/>
</linearGradient>
<linearGradient id="paint3_linear_186_379" x1="39.5889" y1="18.0424" x2="16.8969" y2="34.7065" gradientUnits="userSpaceOnUse">
<stop stop-color="#0FB5A9"/>
<stop offset="0.49" stop-color="#13699B"/>
<stop offset="1" stop-color="#17163B"/>
</linearGradient>
<linearGradient id="paint4_linear_186_379" x1="38.3058" y1="9.76772" x2="7.98551" y2="37.0851" gradientUnits="userSpaceOnUse">
<stop stop-color="#0FB5A9"/>
<stop offset="0.49" stop-color="#13699B"/>
<stop offset="1" stop-color="#17163B"/>
</linearGradient>
<linearGradient id="paint5_linear_186_379" x1="26.4626" y1="30.3899" x2="12.8896" y2="40.3563" gradientUnits="userSpaceOnUse">
<stop stop-color="#0FB5A9"/>
<stop offset="1" stop-color="#13699B"/>
</linearGradient>
<clipPath id="clip0_186_379">
<rect width="261" height="41" fill="white"/>
</clipPath>
</defs>
</svg>
