<svg width="172" height="223" viewBox="0 0 172 223" fill="none" xmlns="http://www.w3.org/2000/svg">
<g clip-path="url(#clip0_184_100)">
<path d="M81.6923 0C76.1272 0 70.7901 2.21856 66.855 6.16763C62.9199 10.1167 60.7091 15.4728 60.7091 21.0576V60.3858H26.303C19.3875 60.3858 12.7554 63.1427 7.86542 68.05C2.97548 72.9573 0.22834 79.613 0.22834 86.5529V112.098H0.691203C6.08332 112.103 11.4687 111.716 16.805 110.939C27.4691 109.377 37.8458 106.247 47.6009 101.649C64.6798 93.6016 79.4332 81.3186 90.4682 65.9598C91.7765 64.141 93.0283 62.283 94.2235 60.3858C101.505 48.858 106.591 36.074 109.223 22.6834C110.619 15.5741 111.319 8.34518 111.316 1.09933V0.0154845L81.6923 0Z" fill="url(#paint0_linear_184_100)"/>
<path d="M106.276 37.498C103.477 49.5638 98.6721 61.0701 92.0635 71.5339C90.8683 73.4312 89.6165 75.2892 88.3081 77.108C77.2731 92.4667 62.5197 104.75 45.4408 112.798C35.6857 117.395 25.3091 120.525 14.645 122.088C9.86959 122.787 5.05381 123.173 0.22834 123.243V117.049C5.13795 116.982 10.0381 116.597 14.898 115.894C29.7184 113.765 43.9666 108.69 56.8086 100.967C69.6506 93.2431 80.8283 83.0265 89.6875 70.9146C91.0143 69.0958 92.2847 67.2377 93.4984 65.3405C99.0364 56.7062 103.338 47.3337 106.276 37.498Z" fill="url(#paint1_linear_184_100)"/>
<path d="M111.316 0V1.08385C111.319 8.3297 110.619 15.5586 109.223 22.6679C105.811 33.0862 99.3639 42.2385 90.716 48.9431C82.068 55.6478 71.6159 59.5969 60.7091 60.2805V21.0576C60.7091 15.4728 62.9199 10.1167 66.855 6.16763C70.7901 2.21856 76.1272 0 81.6923 0H111.316Z" fill="url(#paint2_linear_184_100)"/>
<path d="M90.3324 183.619C95.8975 183.619 101.235 181.401 105.17 177.452C109.105 173.503 111.316 168.146 111.316 162.562V123.233H145.722C152.637 123.233 159.269 120.477 164.159 115.569C169.049 110.662 171.796 104.006 171.796 97.0663V71.5215H171.333C165.941 71.5199 160.556 71.9112 155.22 72.6921C144.556 74.2546 134.179 77.3849 124.424 81.9822C107.346 90.0265 92.5931 102.305 81.5565 117.659C80.2482 119.478 78.9964 121.336 77.8012 123.233C66.6122 140.973 60.6841 161.541 60.7092 182.535V183.619H90.3324Z" fill="url(#paint3_linear_184_100)"/>
<path d="M65.7482 146.121C68.5477 134.055 73.3526 122.549 79.9612 112.085C81.1564 110.188 82.4082 108.33 83.7166 106.511C94.7512 91.1513 109.505 78.8672 126.584 70.8186C136.339 66.2213 146.716 63.091 157.38 61.5285C162.155 60.8291 166.971 60.4433 171.796 60.3734V66.5668C155.925 66.7799 140.275 70.3341 125.859 76.9996C108.578 85.0073 93.6065 97.2888 82.3496 112.692C81.0227 114.511 79.7524 116.369 78.5386 118.266C72.9953 126.904 68.6897 136.28 65.7482 146.121Z" fill="url(#paint4_linear_184_100)"/>
<path d="M60.7092 183.619V182.535C60.7052 175.29 61.4059 168.061 62.8013 160.951C66.2121 150.531 72.6579 141.376 81.306 134.669C89.9541 127.962 100.407 124.011 111.316 123.326V162.562C111.316 168.146 109.105 173.503 105.17 177.452C101.235 181.401 95.8975 183.619 90.3324 183.619H60.7092Z" fill="url(#paint5_linear_184_100)"/>
<path d="M74.1846 210.74L77.1624 202.292H78.8688L81.8219 210.728H80.5598L78.0912 203.277H77.9369L75.4683 210.728L74.1846 210.74ZM75.5979 208.848V207.956H80.5351V208.848H75.5979Z" fill="#0082A0"/>
<path d="M83.158 212.799V207.442V204.135H84.2164L84.1516 205.832H84.3429C84.4327 205.484 84.5764 205.153 84.7688 204.85C84.9442 204.577 85.185 204.352 85.4692 204.197C85.7961 204.035 86.1573 203.957 86.5215 203.968C87.0602 203.949 87.5901 204.108 88.0304 204.42C88.4444 204.737 88.7583 205.167 88.9345 205.658C89.1457 206.228 89.2503 206.832 89.2431 207.439C89.2514 208.044 89.1467 208.644 88.9345 209.21C88.7598 209.698 88.4531 210.127 88.0489 210.449C87.6274 210.759 87.1144 210.917 86.5925 210.898C86.1951 210.913 85.8015 210.816 85.4569 210.616C85.1623 210.43 84.9175 210.173 84.7441 209.87C84.5634 209.552 84.4186 209.214 84.3121 208.864H84.1208C84.164 209.093 84.1979 209.334 84.2288 209.585C84.2596 209.836 84.2843 210.081 84.3059 210.319C84.3275 210.557 84.3368 210.787 84.3368 211.01V212.787L83.158 212.799ZM86.3055 209.885C86.6479 209.898 86.9836 209.789 87.2528 209.576C87.5261 209.343 87.7292 209.039 87.8391 208.696C87.9764 208.289 88.0432 207.86 88.0366 207.43C88.0465 206.99 87.9754 206.552 87.8268 206.138C87.7084 205.811 87.5036 205.522 87.2343 205.302C86.9704 205.095 86.6434 204.986 86.3086 204.993C86.0162 204.988 85.7277 205.06 85.4723 205.203C85.2291 205.345 85.0187 205.537 84.8552 205.767C84.6863 206.001 84.5531 206.258 84.4602 206.532C84.3695 206.798 84.3225 207.077 84.3213 207.359V207.51C84.3246 207.703 84.3526 207.895 84.4047 208.08C84.464 208.293 84.5425 208.501 84.6392 208.699C84.7417 208.914 84.8725 209.114 85.028 209.294C85.186 209.479 85.3826 209.627 85.6038 209.728C85.8251 209.828 86.0657 209.879 86.3086 209.876L86.3055 209.885Z" fill="#0082A0"/>
<path d="M90.9279 210.74V201.781H92.082V210.74H90.9279Z" fill="#0082A0"/>
<path d="M94.6833 202.983C94.4637 202.999 94.2453 202.938 94.0662 202.809C94.0009 202.745 93.949 202.668 93.9136 202.582C93.8782 202.497 93.86 202.406 93.86 202.314C93.86 202.222 93.8782 202.131 93.9136 202.046C93.949 201.96 94.0009 201.883 94.0662 201.819C94.2509 201.711 94.4606 201.655 94.6741 201.655C94.8876 201.655 95.0972 201.711 95.282 201.819C95.3545 201.881 95.4116 201.96 95.4485 202.049C95.4855 202.137 95.5013 202.234 95.4949 202.329C95.5009 202.422 95.4846 202.514 95.4476 202.599C95.4105 202.683 95.3537 202.758 95.282 202.816C95.1068 202.937 94.8959 202.996 94.6833 202.983ZM94.1125 210.725V204.15H95.2696V210.756L94.1125 210.725Z" fill="#0082A0"/>
<path d="M97.2692 210.74V201.781H98.4294V206.894C99.3911 206.362 100.239 205.645 100.926 204.785C101.091 204.581 101.239 204.363 101.37 204.135H102.722C102.549 204.474 102.343 204.795 102.105 205.092C101.851 205.41 101.573 205.707 101.271 205.981C100.974 206.251 100.65 206.488 100.302 206.69C99.988 206.876 99.6495 207.018 99.2965 207.111V207.266C99.6721 207.217 100.054 207.267 100.404 207.411C100.728 207.551 101.022 207.75 101.271 208C101.537 208.265 101.77 208.561 101.966 208.882C102.172 209.217 102.376 209.57 102.583 209.935L102.978 210.74H101.679L101.398 210.152C101.161 209.718 100.924 209.325 100.685 208.972C100.47 208.64 100.191 208.355 99.8643 208.133C99.5357 207.922 99.1523 207.815 98.7627 207.823H98.4541V210.737L97.2692 210.74Z" fill="#0082A0"/>
<path d="M105.675 210.895C105.339 210.901 105.005 210.831 104.7 210.691C104.418 210.555 104.182 210.34 104.021 210.071C103.838 209.75 103.749 209.384 103.765 209.015C103.759 208.729 103.818 208.445 103.937 208.185C104.059 207.936 104.243 207.722 104.471 207.566C104.76 207.374 105.078 207.23 105.412 207.142C105.871 207.018 106.337 206.924 106.807 206.863C107.116 206.82 107.378 206.776 107.573 206.733C107.735 206.709 107.885 206.635 108.005 206.522C108.057 206.46 108.096 206.388 108.12 206.311C108.145 206.233 108.154 206.151 108.146 206.07C108.149 205.92 108.121 205.771 108.064 205.633C108.006 205.494 107.921 205.369 107.813 205.265C107.672 205.143 107.508 205.051 107.331 204.994C107.155 204.936 106.968 204.915 106.783 204.931C106.528 204.933 106.275 204.975 106.033 205.055C105.778 205.135 105.548 205.283 105.369 205.482C105.168 205.722 105.04 206.014 104.999 206.324L103.931 205.968C103.986 205.672 104.098 205.39 104.261 205.138C104.426 204.89 104.636 204.675 104.879 204.503C105.14 204.319 105.431 204.183 105.74 204.101C106.096 204.005 106.463 203.958 106.832 203.961C107.305 203.945 107.776 204.038 108.208 204.234C108.574 204.42 108.867 204.724 109.038 205.098C109.238 205.566 109.333 206.072 109.316 206.581V208.052C109.316 208.325 109.316 208.616 109.316 208.925C109.316 209.235 109.356 209.545 109.381 209.854C109.405 210.164 109.433 210.455 109.458 210.728H108.375C108.375 210.465 108.338 210.192 108.316 209.916C108.295 209.641 108.282 209.362 108.273 209.08H108.106C107.981 209.402 107.809 209.703 107.597 209.975C107.372 210.269 107.079 210.504 106.745 210.662C106.411 210.82 106.044 210.895 105.675 210.883V210.895ZM106.033 209.966C106.223 209.964 106.411 209.933 106.591 209.873C106.798 209.797 106.993 209.693 107.171 209.563C107.377 209.417 107.559 209.239 107.711 209.037C107.894 208.801 108.044 208.541 108.159 208.266V206.999L108.514 207.052C108.361 207.204 108.174 207.316 107.967 207.377C107.718 207.46 107.462 207.52 107.202 207.557C106.931 207.59 106.659 207.633 106.388 207.687C106.133 207.732 105.884 207.803 105.644 207.897C105.434 207.975 105.247 208.105 105.101 208.275C104.956 208.464 104.883 208.7 104.897 208.938C104.886 209.082 104.909 209.227 104.962 209.361C105.016 209.495 105.099 209.615 105.206 209.712C105.442 209.893 105.736 209.981 106.033 209.96V209.966Z" fill="#0082A0"/>
<path d="M113.71 210.895C113.3 210.901 112.891 210.851 112.494 210.746C112.174 210.664 111.872 210.524 111.603 210.331C111.372 210.164 111.184 209.943 111.056 209.687C110.93 209.425 110.858 209.139 110.846 208.848L111.825 208.582C111.804 208.843 111.876 209.103 112.028 209.316C112.203 209.54 112.441 209.707 112.71 209.796C113.057 209.913 113.421 209.969 113.787 209.96C114.188 209.982 114.587 209.894 114.941 209.706C115.067 209.637 115.172 209.536 115.245 209.412C115.318 209.288 115.356 209.147 115.355 209.003C115.36 208.901 115.342 208.799 115.303 208.705C115.264 208.611 115.205 208.526 115.13 208.458C114.941 208.313 114.724 208.208 114.494 208.148C114.182 208.055 113.866 207.979 113.547 207.919C113.238 207.851 112.929 207.773 112.621 207.69C112.333 207.609 112.055 207.495 111.794 207.349C111.547 207.217 111.335 207.027 111.177 206.795C111.019 206.537 110.939 206.239 110.948 205.937C110.935 205.566 111.044 205.2 111.257 204.897C111.489 204.592 111.803 204.359 112.161 204.225C112.61 204.054 113.088 203.972 113.568 203.983C114.043 203.971 114.515 204.055 114.957 204.231C115.314 204.379 115.626 204.62 115.861 204.928C116.083 205.234 116.211 205.599 116.231 205.977L115.238 206.244C115.238 205.98 115.155 205.723 115 205.51C114.846 205.313 114.641 205.163 114.407 205.076C114.128 204.971 113.83 204.92 113.531 204.928C113.155 204.907 112.781 204.996 112.454 205.185C112.334 205.255 112.235 205.356 112.167 205.477C112.098 205.598 112.063 205.736 112.065 205.875C112.061 205.978 112.08 206.081 112.12 206.176C112.161 206.271 112.222 206.356 112.3 206.423C112.488 206.571 112.706 206.677 112.939 206.733C113.204 206.81 113.503 206.882 113.837 206.95C114.17 207.018 114.5 207.108 114.809 207.194C115.098 207.27 115.377 207.381 115.639 207.526C115.873 207.656 116.071 207.842 116.216 208.068C116.37 208.329 116.446 208.628 116.435 208.932C116.447 209.326 116.328 209.713 116.095 210.031C115.851 210.342 115.518 210.572 115.142 210.691C114.679 210.835 114.195 210.904 113.71 210.895Z" fill="#0082A0"/>
<path d="M118.589 202.983C118.369 203.001 118.15 202.939 117.972 202.809C117.901 202.75 117.845 202.674 117.808 202.588C117.772 202.503 117.756 202.41 117.762 202.317C117.756 202.224 117.771 202.131 117.807 202.044C117.842 201.958 117.896 201.881 117.965 201.819C118.15 201.711 118.36 201.655 118.573 201.655C118.787 201.655 118.996 201.711 119.181 201.819C119.253 201.882 119.31 201.961 119.346 202.049C119.382 202.138 119.398 202.234 119.391 202.329C119.397 202.421 119.381 202.513 119.344 202.598C119.308 202.682 119.252 202.757 119.181 202.816C119.007 202.936 118.799 202.994 118.589 202.983ZM118.015 210.725V204.15H119.175V210.756L118.015 210.725Z" fill="#0082A0"/>
<path d="M127.426 210.895C126.936 210.901 126.446 210.845 125.97 210.728C125.581 210.637 125.217 210.46 124.905 210.211C124.63 209.977 124.418 209.678 124.288 209.34C124.142 208.96 124.083 208.552 124.115 208.145L125.158 207.916C125.12 208.306 125.201 208.698 125.39 209.04C125.576 209.348 125.861 209.582 126.198 209.706C126.611 209.86 127.05 209.934 127.491 209.923C127.904 209.934 128.315 209.873 128.707 209.743C128.996 209.65 129.254 209.477 129.451 209.244C129.618 209.04 129.709 208.782 129.707 208.517C129.712 208.381 129.687 208.246 129.634 208.121C129.58 207.996 129.5 207.885 129.398 207.795C129.165 207.603 128.897 207.46 128.608 207.374C128.255 207.26 127.895 207.168 127.531 207.098C127.133 207.012 126.738 206.916 126.346 206.804C125.979 206.701 125.625 206.556 125.291 206.371C124.988 206.202 124.73 205.963 124.538 205.674C124.342 205.349 124.246 204.973 124.26 204.593C124.247 204.127 124.38 203.669 124.64 203.283C124.91 202.911 125.279 202.621 125.704 202.447C126.21 202.235 126.754 202.129 127.303 202.138C127.865 202.127 128.425 202.225 128.951 202.426C129.403 202.596 129.798 202.89 130.092 203.274C130.384 203.684 130.54 204.176 130.537 204.68L129.441 204.937C129.448 204.663 129.397 204.39 129.29 204.138C129.189 203.914 129.038 203.717 128.849 203.562C128.649 203.399 128.418 203.279 128.17 203.209C127.883 203.131 127.587 203.092 127.29 203.094C126.951 203.089 126.613 203.15 126.297 203.274C126.034 203.375 125.801 203.542 125.621 203.76C125.46 203.968 125.374 204.225 125.38 204.488C125.369 204.64 125.393 204.792 125.451 204.933C125.51 205.073 125.601 205.198 125.717 205.296C125.993 205.505 126.307 205.657 126.642 205.742C127.016 205.854 127.417 205.956 127.84 206.052C128.204 206.129 128.565 206.225 128.917 206.334C129.251 206.438 129.574 206.577 129.879 206.749C130.163 206.913 130.399 207.149 130.564 207.433C130.751 207.798 130.839 208.206 130.818 208.615C130.796 209.025 130.668 209.421 130.444 209.765C130.162 210.152 129.769 210.445 129.318 210.604C128.71 210.817 128.069 210.915 127.426 210.895Z" fill="#0082A0"/>
<path d="M132.505 210.74V201.781H133.663V206.894C133.992 206.708 134.31 206.501 134.613 206.275C134.914 206.049 135.201 205.804 135.471 205.541C135.716 205.302 135.946 205.048 136.159 204.779C136.326 204.575 136.476 204.358 136.606 204.129H137.955C137.783 204.468 137.576 204.789 137.338 205.086C137.084 205.404 136.806 205.701 136.505 205.974C136.207 206.244 135.883 206.482 135.536 206.683C135.221 206.869 134.883 207.011 134.53 207.105V207.259C134.905 207.211 135.287 207.261 135.637 207.405C135.96 207.545 136.254 207.745 136.505 207.993C136.77 208.259 137.003 208.556 137.199 208.876C137.406 209.21 137.606 209.563 137.816 209.929L138.211 210.734H136.912L136.631 210.146C136.394 209.712 136.157 209.319 135.918 208.966C135.703 208.634 135.424 208.348 135.097 208.127C134.768 207.916 134.383 207.808 133.993 207.817H133.684V210.731L132.505 210.74Z" fill="#0082A0"/>
<path d="M139.448 210.74V207.163V204.135H140.519L140.402 206.433H140.621C140.681 205.984 140.801 205.546 140.976 205.129C141.115 204.792 141.34 204.498 141.627 204.274C141.915 204.063 142.264 203.954 142.621 203.965C142.724 203.965 142.827 203.971 142.929 203.983C143.058 204 143.185 204.028 143.309 204.067L143.247 205.305C143.128 205.247 143.001 205.206 142.87 205.185C142.75 205.165 142.628 205.154 142.506 205.154C142.189 205.142 141.88 205.253 141.642 205.463C141.379 205.704 141.168 205.997 141.025 206.324C140.848 206.722 140.713 207.137 140.624 207.563V210.731L139.448 210.74Z" fill="#0082A0"/>
<path d="M145.117 202.983C144.897 203.001 144.678 202.939 144.5 202.809C144.428 202.75 144.372 202.674 144.335 202.589C144.298 202.503 144.281 202.41 144.287 202.317C144.281 202.224 144.297 202.131 144.332 202.044C144.367 201.958 144.421 201.881 144.49 201.819C144.678 201.708 144.891 201.65 145.108 201.65C145.325 201.65 145.538 201.708 145.725 201.819C145.797 201.882 145.853 201.961 145.89 202.049C145.926 202.138 145.941 202.234 145.935 202.33C145.94 202.421 145.924 202.513 145.888 202.598C145.852 202.682 145.796 202.757 145.725 202.816C145.547 202.939 145.333 202.997 145.117 202.983ZM144.543 210.725V204.15H145.7V210.756L144.543 210.725Z" fill="#0082A0"/>
<path d="M147.7 210.74V206.628V204.126H148.77L148.656 206.207H148.848C148.94 205.762 149.104 205.335 149.332 204.943C149.513 204.63 149.777 204.373 150.094 204.2C150.43 204.032 150.802 203.949 151.177 203.958C151.497 203.939 151.816 204 152.105 204.138C152.394 204.275 152.644 204.484 152.831 204.745C153.204 205.267 153.391 206.049 153.393 207.089V210.731H152.22V207.201C152.261 206.624 152.14 206.048 151.872 205.538C151.763 205.366 151.611 205.226 151.431 205.132C151.251 205.038 151.05 204.993 150.847 205.002C150.457 204.99 150.077 205.128 149.786 205.389C149.484 205.663 149.255 206.008 149.119 206.392C148.956 206.828 148.868 207.287 148.857 207.752V210.743L147.7 210.74Z" fill="#0082A0"/>
<path d="M155.877 202.983C155.657 203.001 155.438 202.939 155.26 202.809C155.194 202.745 155.143 202.668 155.107 202.582C155.072 202.497 155.054 202.406 155.054 202.314C155.054 202.222 155.072 202.131 155.107 202.046C155.143 201.96 155.194 201.883 155.26 201.819C155.444 201.711 155.654 201.655 155.868 201.655C156.081 201.655 156.291 201.711 156.476 201.819C156.548 201.882 156.604 201.961 156.64 202.049C156.677 202.138 156.692 202.234 156.685 202.329C156.691 202.421 156.675 202.513 156.639 202.598C156.602 202.682 156.546 202.757 156.476 202.816C156.3 202.937 156.089 202.996 155.877 202.983ZM155.303 210.725V204.15H156.463V210.756L155.303 210.725Z" fill="#0082A0"/>
<path d="M158.463 210.74V206.628V204.126H159.53L159.416 206.207H159.608C159.701 205.762 159.865 205.336 160.092 204.943C160.274 204.629 160.539 204.372 160.857 204.2C161.192 204.032 161.563 203.949 161.937 203.958C162.257 203.939 162.577 204 162.867 204.138C163.156 204.275 163.407 204.484 163.594 204.745C163.967 205.267 164.153 206.049 164.153 207.089V210.731H162.983V207.201C163.023 206.624 162.901 206.048 162.632 205.538C162.523 205.365 162.371 205.225 162.191 205.131C162.011 205.037 161.81 204.992 161.607 205.002C161.224 204.992 160.851 205.13 160.564 205.386C160.262 205.66 160.032 206.005 159.895 206.389C159.733 206.825 159.645 207.284 159.632 207.749V210.74H158.463Z" fill="#0082A0"/>
<path d="M168.51 212.976C167.933 212.988 167.357 212.935 166.791 212.818C166.423 212.754 166.082 212.583 165.81 212.326C165.607 212.108 165.496 211.819 165.501 211.521C165.497 211.335 165.536 211.152 165.615 210.984C165.694 210.816 165.81 210.669 165.955 210.554C166.36 210.261 166.837 210.082 167.334 210.037V209.796C166.99 209.822 166.644 209.771 166.322 209.647C166.222 209.61 166.136 209.543 166.076 209.454C166.016 209.366 165.984 209.262 165.986 209.155C165.987 209.034 166.02 208.917 166.08 208.813C166.14 208.708 166.225 208.621 166.328 208.56C166.669 208.359 167.039 208.21 167.424 208.12V207.866C167.208 207.874 166.993 207.837 166.793 207.756C166.592 207.676 166.411 207.554 166.26 207.399C165.976 207.077 165.827 206.658 165.844 206.228C165.832 205.819 165.956 205.417 166.196 205.086C166.456 204.747 166.807 204.49 167.208 204.345C167.721 204.157 168.266 204.068 168.812 204.082H171.92V205.079L169.895 204.77V205.024C170.309 205.085 170.698 205.262 171.016 205.535C171.146 205.659 171.249 205.81 171.317 205.978C171.386 206.146 171.417 206.326 171.411 206.507C171.416 206.855 171.302 207.194 171.087 207.467C170.836 207.758 170.508 207.972 170.142 208.086C169.652 208.247 169.137 208.322 168.621 208.309C168.51 208.309 168.393 208.309 168.266 208.291C168.14 208.272 167.958 208.253 167.729 208.219C167.51 208.374 167.328 208.507 167.189 208.622C167.05 208.737 166.979 208.842 166.979 208.932C166.979 209.021 167.041 209.111 167.171 209.164C167.322 209.219 167.48 209.253 167.64 209.266C167.828 209.282 168.007 209.291 168.177 209.291H169.667C169.882 209.294 170.096 209.31 170.309 209.34C170.576 209.377 170.837 209.448 171.087 209.551C171.346 209.659 171.57 209.837 171.735 210.065C171.926 210.348 172.018 210.687 171.997 211.028C172.012 211.44 171.865 211.841 171.59 212.146C171.264 212.465 170.852 212.68 170.405 212.765C169.784 212.912 169.148 212.982 168.51 212.976ZM168.535 212.019C168.998 212.028 169.46 211.993 169.917 211.917C170.203 211.879 170.472 211.76 170.695 211.576C170.775 211.501 170.838 211.409 170.881 211.307C170.923 211.205 170.944 211.095 170.942 210.985C170.954 210.796 170.893 210.61 170.772 210.465C170.656 210.343 170.51 210.255 170.349 210.211C170.185 210.163 170.016 210.131 169.846 210.115C169.676 210.115 169.538 210.09 169.402 210.09H167.924C167.546 210.143 167.191 210.301 166.899 210.548C166.731 210.711 166.632 210.933 166.625 211.167C166.616 211.273 166.634 211.379 166.678 211.476C166.722 211.572 166.789 211.656 166.875 211.719C167.082 211.852 167.318 211.935 167.563 211.96C167.885 212.004 168.21 212.023 168.535 212.019ZM168.689 207.572C169.118 207.603 169.545 207.485 169.899 207.238C170.034 207.128 170.142 206.987 170.213 206.827C170.284 206.667 170.316 206.493 170.306 206.318C170.311 206.133 170.277 205.949 170.205 205.778C170.134 205.607 170.027 205.453 169.892 205.327C169.544 205.047 169.103 204.909 168.658 204.94C168.216 204.909 167.777 205.04 167.424 205.309C167.284 205.425 167.173 205.572 167.098 205.739C167.023 205.905 166.987 206.086 166.992 206.269C166.985 206.512 167.054 206.751 167.189 206.953C167.332 207.156 167.532 207.311 167.763 207.399C168.057 207.519 168.372 207.579 168.689 207.572Z" fill="#0082A0"/>
<path d="M74.9191 222.83V214.394H76.104V222.83H74.9191Z" fill="#0082A0"/>
<path d="M81.6059 222.985C81.2315 222.994 80.8608 222.908 80.529 222.734C80.2306 222.572 79.9804 222.334 79.8038 222.043C79.6161 221.737 79.4766 221.404 79.3903 221.055H79.199L79.2484 222.83H78.1961V219.572V213.871H79.3687V215.955C79.3687 216.169 79.3687 216.398 79.3348 216.646C79.3008 216.893 79.2854 217.141 79.2514 217.392C79.2175 217.643 79.1836 217.897 79.1496 218.154H79.3687C79.4575 217.795 79.5946 217.45 79.776 217.129C79.9495 216.818 80.1964 216.556 80.495 216.364C80.8321 216.152 81.2238 216.044 81.6213 216.054C82.1338 216.039 82.6371 216.193 83.0531 216.494C83.4664 216.813 83.7818 217.242 83.9634 217.732C84.3823 218.892 84.3823 220.162 83.9634 221.322C83.7859 221.807 83.4719 222.231 83.0593 222.542C82.6353 222.843 82.1253 222.999 81.6059 222.985ZM81.3498 221.975C81.6821 221.981 82.0074 221.878 82.2755 221.681C82.5515 221.466 82.7586 221.174 82.871 220.842C83.015 220.43 83.0839 219.996 83.0747 219.56C83.0819 219.127 83.0162 218.697 82.8803 218.287C82.768 217.945 82.5654 217.64 82.294 217.404C82.0243 217.19 81.6871 217.08 81.3436 217.095C81.0947 217.091 80.8484 217.146 80.6246 217.256C80.4108 217.359 80.2198 217.504 80.063 217.683C79.9079 217.86 79.7781 218.058 79.6773 218.271C79.5775 218.476 79.4979 218.689 79.4397 218.909C79.3871 219.101 79.3591 219.299 79.3564 219.498V219.634C79.3599 219.9 79.4058 220.163 79.4921 220.414C79.5813 220.688 79.7147 220.946 79.8871 221.176C80.0539 221.405 80.2635 221.6 80.5043 221.749C80.7592 221.903 81.0523 221.981 81.3498 221.975Z" fill="#0082A0"/>
<path d="M88.1261 222.985C87.8079 223.004 87.4898 222.945 87.1998 222.812C86.9099 222.679 86.6568 222.477 86.4629 222.223C86.0864 221.715 85.8982 220.956 85.8982 219.94V216.228H87.0677V219.844C87.0323 220.398 87.1498 220.951 87.4071 221.442C87.5174 221.619 87.6731 221.762 87.8578 221.857C88.0424 221.952 88.2492 221.995 88.4563 221.981C88.7077 221.984 88.9547 221.915 89.1691 221.783C89.3922 221.64 89.5817 221.45 89.7245 221.226C89.8923 220.964 90.0232 220.681 90.1133 220.383C90.22 220.034 90.2883 219.673 90.317 219.309V216.228H91.4649V220.064V222.851H90.4342L90.5361 220.73H90.3201C90.2441 221.186 90.0907 221.624 89.8665 222.028C89.6928 222.34 89.435 222.596 89.1228 222.768C88.8128 222.92 88.4709 222.994 88.1261 222.985Z" fill="#0082A0"/>
<path d="M98.3893 222.985C97.9927 222.992 97.6 222.904 97.2445 222.728C96.9256 222.569 96.6581 222.323 96.473 222.018C96.2863 221.7 96.1912 221.335 96.1984 220.965C96.1928 220.648 96.2659 220.334 96.4113 220.052C96.5475 219.785 96.7403 219.552 96.976 219.368C97.2317 219.168 97.5157 219.009 97.8184 218.894C98.1548 218.762 98.5045 218.667 98.8614 218.612L98.9262 218.984C98.4755 219.137 98.0659 219.392 97.7289 219.73C97.4621 220 97.3114 220.365 97.3093 220.746C97.3072 220.977 97.3612 221.206 97.4667 221.411C97.5764 221.62 97.7449 221.791 97.9511 221.904C98.204 222.036 98.4869 222.1 98.7719 222.09C99.0736 222.097 99.372 222.026 99.639 221.885C99.896 221.74 100.132 221.56 100.339 221.349L100.694 221.808H100.386C100.266 222.038 100.11 222.247 99.9229 222.427C99.7369 222.605 99.5178 222.744 99.278 222.836C98.994 222.942 98.6923 222.993 98.3893 222.985ZM102.873 222.985C102.442 222.984 102.019 222.877 101.639 222.675C101.219 222.446 100.836 222.155 100.503 221.811C100.138 221.439 99.8126 221.03 99.531 220.591C99.2403 220.144 98.9864 219.673 98.7719 219.185C98.5694 218.729 98.4053 218.256 98.2813 217.773C98.1738 217.368 98.1157 216.953 98.1085 216.534C98.1058 216.141 98.1868 215.751 98.3461 215.391C98.4984 215.043 98.7509 214.747 99.0713 214.543C99.455 214.318 99.8957 214.211 100.339 214.233C100.738 214.221 101.134 214.309 101.49 214.487C101.794 214.642 102.046 214.882 102.216 215.178C102.383 215.469 102.469 215.799 102.466 216.135C102.464 216.426 102.396 216.713 102.268 216.974C102.111 217.28 101.881 217.543 101.598 217.739C101.209 218.008 100.772 218.201 100.312 218.309L100.222 218.079C100.571 217.856 100.874 217.567 101.114 217.228C101.289 216.965 101.382 216.655 101.382 216.339C101.392 216.046 101.294 215.759 101.108 215.534C101.011 215.428 100.891 215.346 100.758 215.292C100.626 215.239 100.482 215.215 100.339 215.224C100.12 215.215 99.903 215.278 99.7223 215.404C99.5668 215.528 99.4501 215.695 99.386 215.884C99.3113 216.104 99.2747 216.336 99.278 216.568C99.2843 216.913 99.3309 217.256 99.4169 217.59C99.5185 217.991 99.6484 218.384 99.8057 218.767C99.9758 219.173 100.174 219.568 100.398 219.947C100.615 220.318 100.865 220.67 101.145 220.996C101.385 221.284 101.668 221.531 101.984 221.73C102.248 221.902 102.555 221.995 102.87 222C103.103 222.013 103.332 221.938 103.512 221.789C103.588 221.723 103.649 221.641 103.69 221.549C103.731 221.457 103.751 221.357 103.749 221.257C103.744 221.006 103.651 220.765 103.487 220.575C103.283 220.332 103.035 220.13 102.756 219.981C102.394 219.784 102.002 219.65 101.595 219.584V218.445H104.536V219.417L102.206 219.107V219.324C102.907 219.425 103.573 219.697 104.144 220.117C104.341 220.27 104.501 220.465 104.611 220.689C104.721 220.913 104.779 221.159 104.78 221.408C104.788 221.661 104.726 221.911 104.601 222.13C104.488 222.325 104.332 222.491 104.144 222.616C103.954 222.74 103.746 222.835 103.527 222.898C103.318 222.963 103.101 222.996 102.882 222.997L102.873 222.985Z" fill="#0082A0"/>
<path d="M109.671 222.83V214.394H112.757C113.189 214.39 113.621 214.433 114.043 214.524C114.393 214.596 114.726 214.73 115.028 214.921C115.296 215.088 115.516 215.323 115.666 215.602C115.822 215.913 115.898 216.258 115.889 216.605C115.894 216.902 115.829 217.197 115.697 217.463C115.558 217.722 115.342 217.932 115.08 218.064C114.739 218.237 114.374 218.357 113.997 218.42V218.562C114.769 218.631 115.333 218.844 115.685 219.2C115.863 219.387 116.001 219.608 116.092 219.849C116.182 220.091 116.224 220.348 116.213 220.606C116.225 221.032 116.108 221.451 115.876 221.808C115.618 222.164 115.256 222.43 114.839 222.57C114.26 222.76 113.653 222.848 113.044 222.83H109.671ZM110.794 218.085H112.247C112.882 218.121 113.517 218.005 114.099 217.748C114.289 217.656 114.449 217.511 114.558 217.33C114.668 217.15 114.722 216.941 114.716 216.729C114.727 216.528 114.683 216.328 114.589 216.15C114.495 215.972 114.354 215.823 114.182 215.72C113.691 215.468 113.141 215.354 112.59 215.388H110.782L110.794 218.085ZM110.794 221.842H113.176C113.671 221.877 114.165 221.764 114.596 221.517C114.752 221.403 114.876 221.251 114.958 221.075C115.039 220.9 115.075 220.706 115.062 220.513C115.072 220.278 115.017 220.043 114.903 219.837C114.79 219.63 114.621 219.459 114.417 219.343C113.818 219.048 113.154 218.914 112.488 218.956H110.794V221.842Z" fill="#0082A0"/>
<path d="M120.067 222.985C119.748 223.004 119.43 222.945 119.14 222.812C118.85 222.679 118.597 222.477 118.403 222.223C118.027 221.715 117.836 220.956 117.836 219.94V216.228H119.008V219.844C118.974 220.398 119.09 220.95 119.345 221.442C119.455 221.619 119.612 221.762 119.797 221.857C119.982 221.952 120.189 221.995 120.397 221.981C120.648 221.983 120.895 221.915 121.11 221.783C121.333 221.64 121.522 221.45 121.665 221.226C121.832 220.964 121.962 220.681 122.051 220.383C122.159 220.034 122.228 219.673 122.258 219.309V216.228H123.415V220.064V222.851H122.384L122.486 220.73H122.27C122.194 221.186 122.041 221.624 121.816 222.028C121.643 222.34 121.385 222.596 121.073 222.768C120.76 222.92 120.415 222.995 120.067 222.985Z" fill="#0082A0"/>
<path d="M126.951 222.985C126.616 222.991 126.284 222.921 125.979 222.78C125.695 222.646 125.458 222.431 125.297 222.161C125.115 221.841 125.027 221.476 125.041 221.108C125.035 220.822 125.094 220.538 125.214 220.278C125.335 220.029 125.519 219.815 125.748 219.659C126.037 219.466 126.356 219.323 126.692 219.234C127.15 219.11 127.616 219.016 128.087 218.956C128.395 218.912 128.654 218.869 128.849 218.826C129.012 218.801 129.163 218.727 129.284 218.615C129.388 218.489 129.438 218.326 129.423 218.163C129.425 218.013 129.397 217.865 129.34 217.726C129.284 217.588 129.199 217.462 129.093 217.358C128.951 217.236 128.787 217.144 128.609 217.086C128.432 217.029 128.245 217.008 128.059 217.023C127.804 217.024 127.551 217.066 127.309 217.147C127.054 217.228 126.825 217.375 126.646 217.575C126.445 217.814 126.317 218.106 126.278 218.417L125.208 218.061C125.263 217.764 125.375 217.481 125.538 217.228C125.705 216.986 125.914 216.776 126.155 216.608C126.417 216.426 126.708 216.29 127.016 216.206C127.373 216.109 127.742 216.062 128.111 216.066C128.584 216.049 129.055 216.143 129.484 216.342C129.851 216.526 130.144 216.829 130.315 217.203C130.515 217.671 130.609 218.177 130.592 218.686V220.154C130.592 220.43 130.592 220.721 130.592 221.03C130.592 221.34 130.629 221.65 130.654 221.96C130.679 222.269 130.706 222.579 130.731 222.836H129.648C129.633 222.573 129.611 222.303 129.592 222.025C129.574 221.746 129.555 221.47 129.546 221.188H129.383C129.255 221.509 129.082 221.811 128.87 222.083C128.645 222.378 128.354 222.614 128.019 222.771C127.685 222.929 127.317 223.005 126.948 222.991L126.951 222.985ZM127.309 222.056C127.499 222.054 127.688 222.022 127.868 221.96C128.076 221.887 128.271 221.782 128.448 221.65C128.654 221.504 128.837 221.328 128.991 221.126C129.172 220.89 129.321 220.631 129.435 220.355V219.089L129.793 219.141C129.638 219.288 129.449 219.395 129.244 219.451C129 219.534 128.749 219.595 128.494 219.634C128.222 219.667 127.951 219.71 127.679 219.764C127.424 219.809 127.174 219.879 126.933 219.975C126.724 220.052 126.539 220.181 126.393 220.349C126.248 220.54 126.176 220.776 126.189 221.015C126.178 221.159 126.201 221.304 126.254 221.438C126.308 221.572 126.391 221.692 126.497 221.789C126.725 221.969 127.01 222.061 127.3 222.049L127.309 222.056Z" fill="#0082A0"/>
<path d="M132.533 222.83V218.804V213.849H133.73V215.933C133.73 216.113 133.73 216.296 133.73 216.488C133.73 216.68 133.706 216.875 133.684 217.07C133.663 217.265 133.638 217.463 133.61 217.664C133.582 217.866 133.551 218.067 133.527 218.284H133.74C133.836 217.85 133.995 217.433 134.212 217.045C134.386 216.736 134.641 216.48 134.949 216.305C135.272 216.137 135.632 216.054 135.995 216.063C136.319 216.04 136.643 216.1 136.937 216.238C137.23 216.376 137.484 216.586 137.674 216.85C138.04 217.372 138.223 218.15 138.223 219.182V222.836H137.051V219.324C137.093 218.738 136.972 218.152 136.702 217.63C136.588 217.457 136.431 217.318 136.246 217.225C136.062 217.132 135.856 217.089 135.65 217.101C135.292 217.089 134.942 217.208 134.665 217.435C134.378 217.688 134.156 218.007 134.017 218.364C133.85 218.794 133.746 219.245 133.709 219.705V222.823L132.533 222.83Z" fill="#0082A0"/>
<path d="M143.448 222.83V214.394H144.605V222.83H143.448ZM144.034 219.021V218.024H149.477V219.015L144.034 219.021ZM149.014 222.83V214.394H150.184V222.83H149.014Z" fill="#0082A0"/>
<path d="M153.813 222.985C153.477 222.991 153.145 222.921 152.841 222.78C152.557 222.645 152.32 222.43 152.159 222.161C151.977 221.841 151.888 221.476 151.902 221.108C151.897 220.822 151.956 220.538 152.075 220.278C152.197 220.029 152.381 219.815 152.609 219.659C152.899 219.467 153.218 219.324 153.553 219.234C154.011 219.11 154.477 219.017 154.948 218.956C155.257 218.912 155.516 218.869 155.71 218.826C155.873 218.801 156.025 218.728 156.145 218.615C156.249 218.489 156.299 218.326 156.284 218.163C156.287 218.013 156.259 217.865 156.202 217.726C156.145 217.588 156.061 217.462 155.954 217.358C155.813 217.236 155.649 217.144 155.472 217.087C155.295 217.029 155.109 217.008 154.923 217.023C154.667 217.024 154.413 217.066 154.17 217.147C153.915 217.228 153.686 217.375 153.507 217.575C153.306 217.814 153.178 218.106 153.14 218.417L152.069 218.061C152.124 217.764 152.236 217.481 152.399 217.228C152.567 216.986 152.776 216.777 153.016 216.608C153.279 216.427 153.57 216.291 153.877 216.206C154.234 216.11 154.603 216.063 154.973 216.066C155.447 216.049 155.918 216.144 156.349 216.342C156.714 216.527 157.006 216.83 157.176 217.203C157.377 217.671 157.473 218.177 157.457 218.686V220.154C157.457 220.43 157.457 220.721 157.457 221.03C157.457 221.34 157.494 221.65 157.519 221.959C157.543 222.269 157.571 222.579 157.596 222.836H156.513C156.513 222.573 156.479 222.303 156.457 222.025C156.435 221.746 156.42 221.47 156.411 221.188H156.247C156.119 221.509 155.948 221.81 155.738 222.083C155.512 222.377 155.22 222.613 154.885 222.771C154.55 222.929 154.182 223.004 153.813 222.991V222.985ZM154.17 222.055C154.362 222.054 154.551 222.021 154.732 221.959C154.939 221.887 155.134 221.782 155.309 221.65C155.516 221.504 155.699 221.328 155.852 221.126C156.033 220.89 156.183 220.631 156.297 220.355V219.089L156.655 219.141C156.5 219.289 156.311 219.395 156.105 219.451C155.86 219.526 155.61 219.579 155.355 219.609C155.084 219.642 154.812 219.685 154.541 219.739C154.286 219.784 154.035 219.855 153.794 219.95C153.586 220.028 153.4 220.156 153.254 220.324C153.109 220.515 153.037 220.751 153.05 220.99C153.04 221.134 153.063 221.279 153.117 221.413C153.17 221.547 153.253 221.667 153.359 221.764C153.587 221.954 153.875 222.055 154.17 222.049V222.055Z" fill="#0082A0"/>
<path d="M161.444 222.957C161.196 222.977 160.947 222.943 160.713 222.857C160.48 222.77 160.268 222.634 160.092 222.458C159.758 222.015 159.6 221.463 159.648 220.91V217.194H158.666V216.237H159.284C159.446 216.233 159.605 216.186 159.743 216.101C159.799 216.054 159.845 215.997 159.877 215.933C159.91 215.869 159.93 215.798 159.935 215.726L160.049 214.741H160.762V216.228H162.659V217.212H160.762V220.928C160.75 221.061 160.765 221.194 160.807 221.32C160.848 221.446 160.915 221.563 161.002 221.662C161.184 221.826 161.422 221.912 161.666 221.901C161.838 221.9 162.009 221.876 162.175 221.829C162.363 221.774 162.539 221.686 162.696 221.569V222.731C162.295 222.888 161.868 222.97 161.437 222.972L161.444 222.957Z" fill="#0082A0"/>
<path d="M164.727 215.072C164.507 215.089 164.289 215.027 164.11 214.899C164.044 214.834 163.993 214.757 163.957 214.672C163.922 214.587 163.904 214.496 163.904 214.404C163.904 214.311 163.922 214.22 163.957 214.135C163.993 214.05 164.044 213.973 164.11 213.908C164.294 213.801 164.504 213.744 164.718 213.744C164.931 213.744 165.141 213.801 165.325 213.908C165.398 213.971 165.455 214.051 165.491 214.14C165.527 214.229 165.543 214.326 165.535 214.422C165.542 214.514 165.526 214.605 165.489 214.689C165.453 214.774 165.397 214.848 165.325 214.905C165.15 215.027 164.939 215.086 164.727 215.072ZM164.156 222.83V216.227H165.313V222.836L164.156 222.83Z" fill="#0082A0"/>
<path d="M0 222.597L7.07256 202.234H11.9604L19.0329 222.597H15.4041L9.71704 204.98H9.3159L3.62885 222.597H0ZM3.56713 218.185V215.779H15.9287V218.185H3.56713Z" fill="#0082A0"/>
<path d="M28.932 223C27.7473 223.014 26.5655 222.879 25.4143 222.597C24.4668 222.371 23.5766 221.949 22.8006 221.359C22.1004 220.814 21.5459 220.103 21.1868 219.29C20.8042 218.405 20.6249 217.445 20.6622 216.481L23.6461 215.679C23.5733 216.58 23.7826 217.481 24.2448 218.256C24.7009 218.962 25.3687 219.504 26.1518 219.804C27.0876 220.164 28.0844 220.338 29.0863 220.315C30.02 220.339 30.9508 220.203 31.8388 219.913C32.494 219.707 33.0794 219.324 33.5298 218.804C33.9012 218.352 34.1022 217.783 34.0976 217.197C34.1109 216.892 34.0557 216.588 33.9361 216.308C33.8164 216.028 33.6354 215.778 33.4064 215.577C32.868 215.136 32.2452 214.81 31.5765 214.62C30.8195 214.385 29.9689 214.164 29.0246 213.958C28.0433 213.732 27.0775 213.49 26.1363 213.233C25.2349 212.993 24.3672 212.641 23.5536 212.183C22.8049 211.775 22.1688 211.186 21.7021 210.471C21.2216 209.661 20.9868 208.728 21.0263 207.786C20.998 206.675 21.3222 205.584 21.9521 204.671C22.6184 203.751 23.5221 203.032 24.5657 202.59C25.8445 202.052 27.2223 201.794 28.608 201.831C30.0085 201.804 31.4013 202.045 32.7121 202.54C33.8143 202.96 34.7767 203.682 35.4893 204.624C36.1847 205.601 36.561 206.771 36.5662 207.972L33.5206 208.774C33.535 208.136 33.414 207.503 33.1657 206.916C32.9412 206.406 32.5996 205.957 32.169 205.606C31.7026 205.238 31.1691 204.966 30.5983 204.804C29.9398 204.612 29.2567 204.518 28.571 204.525C27.7804 204.51 26.9937 204.641 26.2505 204.912C25.6536 205.118 25.1257 205.487 24.7262 205.977C24.3788 206.427 24.1948 206.982 24.2047 207.551C24.1895 207.883 24.2509 208.215 24.3841 208.52C24.5174 208.825 24.7189 209.095 24.973 209.309C25.5859 209.792 26.2937 210.138 27.0497 210.325C27.9199 210.573 28.8487 210.811 29.8269 211.037C30.7094 211.22 31.5858 211.449 32.456 211.716C33.2969 211.97 34.1073 212.317 34.8721 212.75C35.5918 213.154 36.1946 213.739 36.6217 214.447C37.0801 215.259 37.3045 216.183 37.2697 217.116C37.2965 218.221 36.9723 219.306 36.344 220.213C35.6384 221.159 34.6733 221.878 33.5668 222.282C32.3449 222.761 30.8 223 28.932 223Z" fill="#0082A0"/>
<path d="M41.2936 222.597V202.234H44.7064V222.597H41.2936Z" fill="#0082A0"/>
<path d="M49.7177 222.597V202.234H53.0688V222.597H49.7177ZM51.5691 213.617V210.808H64.483V213.617H51.5691ZM63.1592 222.597V202.234H66.4702V222.597H63.1592Z" fill="#0082A0"/>
</g>
<defs>
<linearGradient id="paint0_linear_184_100" x1="-8.26675" y1="103.702" x2="94.7274" y2="27.8321" gradientUnits="userSpaceOnUse">
<stop stop-color="#0FB5A9"/>
<stop offset="0.49" stop-color="#13699B"/>
<stop offset="1" stop-color="#17163B"/>
</linearGradient>
<linearGradient id="paint1_linear_184_100" x1="-2.42541" y1="141.216" x2="135.097" y2="16.9377" gradientUnits="userSpaceOnUse">
<stop stop-color="#0FB5A9"/>
<stop offset="0.49" stop-color="#13699B"/>
<stop offset="1" stop-color="#17163B"/>
</linearGradient>
<linearGradient id="paint2_linear_184_100" x1="51.4457" y1="47.7017" x2="113.034" y2="2.33292" gradientUnits="userSpaceOnUse">
<stop stop-color="#0FB5A9"/>
<stop offset="1" stop-color="#13699B"/>
</linearGradient>
<linearGradient id="paint3_linear_184_100" x1="180.291" y1="79.9167" x2="77.3004" y2="155.787" gradientUnits="userSpaceOnUse">
<stop stop-color="#0FB5A9"/>
<stop offset="0.49" stop-color="#13699B"/>
<stop offset="1" stop-color="#17163B"/>
</linearGradient>
<linearGradient id="paint4_linear_184_100" x1="174.453" y1="42.4032" x2="36.9272" y2="166.682" gradientUnits="userSpaceOnUse">
<stop stop-color="#0FB5A9"/>
<stop offset="0.49" stop-color="#13699B"/>
<stop offset="1" stop-color="#17163B"/>
</linearGradient>
<linearGradient id="paint5_linear_184_100" x1="120.582" y1="135.918" x2="58.991" y2="181.286" gradientUnits="userSpaceOnUse">
<stop stop-color="#0FB5A9"/>
<stop offset="1" stop-color="#13699B"/>
</linearGradient>
<clipPath id="clip0_184_100">
<rect width="172" height="223" fill="white"/>
</clipPath>
</defs>
</svg>
