<svg width="500" height="510" viewBox="0 0 500 510" fill="none" xmlns="http://www.w3.org/2000/svg">
<g opacity="0.6">
<path d="M237.41 0C221.192 0 205.638 6.16203 194.17 17.1305C182.702 28.099 176.259 42.9755 176.259 58.4872V167.721H75.9892C55.8356 167.721 36.5075 175.378 22.2567 189.008C8.00599 202.638 0 221.124 0 240.4V311.35H1.34892C17.0632 311.366 32.7579 310.291 48.3093 308.133C79.3877 303.793 109.628 295.099 138.058 282.33C187.831 259.977 230.826 225.861 262.986 183.203C266.799 178.151 270.447 172.99 273.93 167.721C295.15 135.703 309.973 100.195 317.644 63.0028C321.71 43.2569 323.753 23.1786 323.741 3.05338V0.0430079L237.41 0Z" fill="url(#paint0_linear_87_64)"/>
<path d="M309.056 104.151C300.897 137.663 286.894 169.622 267.635 198.685C264.152 203.955 260.504 209.115 256.691 214.167C224.531 256.826 181.536 290.942 131.763 313.294C103.333 326.063 73.0927 334.758 42.0144 339.098C28.0975 341.04 14.0628 342.112 0 342.306V325.104C14.3081 324.918 28.5885 323.846 42.7518 321.895C85.9428 315.981 127.466 301.886 164.892 280.434C202.317 258.982 234.892 230.606 260.71 196.965C264.577 191.913 268.279 186.753 271.817 181.483C287.956 157.501 300.492 131.469 309.056 104.151Z" fill="url(#paint1_linear_87_64)"/>
<path d="M323.741 0V3.01037C323.753 23.1356 321.711 43.2139 317.644 62.9598C307.698 91.8964 288.91 117.317 263.708 135.939C238.505 154.561 208.045 165.53 176.259 167.428V58.4872C176.259 42.9754 182.702 28.099 194.17 17.1305C205.638 6.16202 221.192 0 237.41 0H323.741Z" fill="url(#paint2_linear_87_64)"/>
<path d="M262.59 510C278.808 510 294.362 503.838 305.83 492.869C317.298 481.901 323.741 467.024 323.741 451.513V342.279H424.011C444.164 342.279 463.492 334.622 477.743 320.992C491.994 307.362 500 288.876 500 269.6V198.65H498.651C482.936 198.646 467.241 199.732 451.691 201.901C420.612 206.241 390.372 214.935 361.942 227.704C312.174 250.047 269.178 284.151 237.014 326.797C233.201 331.849 229.553 337.009 226.07 342.279C193.462 391.55 176.186 448.678 176.259 506.989V510H262.59Z" fill="url(#paint3_linear_87_64)"/>
<path d="M190.944 405.849C199.103 372.337 213.106 340.378 232.365 311.315C235.848 306.046 239.496 300.885 243.309 295.833C275.468 253.171 318.463 219.052 368.237 196.697C396.667 183.929 426.907 175.234 457.986 170.894C471.902 168.952 485.937 167.88 500 167.686V184.888C453.746 185.48 408.137 195.352 366.124 213.865C315.762 236.106 272.131 270.218 239.326 313.001C235.459 318.053 231.757 323.213 228.219 328.483C212.064 352.473 199.517 378.517 190.944 405.849Z" fill="url(#paint4_linear_87_64)"/>
<path d="M176.259 509.999V506.989C176.247 486.864 178.29 466.785 182.356 447.04C192.296 418.097 211.081 392.669 236.284 374.04C261.487 355.412 291.951 344.438 323.741 342.537V451.512C323.741 467.024 317.298 481.9 305.83 492.869C294.362 503.837 278.808 509.999 262.59 509.999H176.259Z" fill="url(#paint5_linear_87_64)"/>
</g>
<defs>
<linearGradient id="paint0_linear_87_64" x1="-24.7572" y1="288.032" x2="265.106" y2="63.9877" gradientUnits="userSpaceOnUse">
<stop stop-color="#0FB5A9"/>
<stop offset="0.49" stop-color="#13699B"/>
<stop offset="1" stop-color="#17163B"/>
</linearGradient>
<linearGradient id="paint1_linear_87_64" x1="-7.73381" y1="392.226" x2="375.652" y2="28.6981" gradientUnits="userSpaceOnUse">
<stop stop-color="#0FB5A9"/>
<stop offset="0.49" stop-color="#13699B"/>
<stop offset="1" stop-color="#17163B"/>
</linearGradient>
<linearGradient id="paint2_linear_87_64" x1="149.263" y1="132.491" x2="322.594" y2="-1.48279" gradientUnits="userSpaceOnUse">
<stop stop-color="#0FB5A9"/>
<stop offset="1" stop-color="#13699B"/>
</linearGradient>
<linearGradient id="paint3_linear_87_64" x1="524.757" y1="221.967" x2="234.903" y2="446.012" gradientUnits="userSpaceOnUse">
<stop stop-color="#0FB5A9"/>
<stop offset="0.49" stop-color="#13699B"/>
<stop offset="1" stop-color="#17163B"/>
</linearGradient>
<linearGradient id="paint4_linear_87_64" x1="507.743" y1="117.774" x2="124.348" y2="481.303" gradientUnits="userSpaceOnUse">
<stop stop-color="#0FB5A9"/>
<stop offset="0.49" stop-color="#13699B"/>
<stop offset="1" stop-color="#17163B"/>
</linearGradient>
<linearGradient id="paint5_linear_87_64" x1="350.746" y1="377.509" x2="177.406" y2="511.482" gradientUnits="userSpaceOnUse">
<stop stop-color="#0FB5A9"/>
<stop offset="1" stop-color="#13699B"/>
</linearGradient>
</defs>
</svg>
