<svg width="164" height="214" viewBox="0 0 164 214" fill="none" xmlns="http://www.w3.org/2000/svg">
<path d="M77.8927 0C72.5865 0 67.4976 2.10523 63.7455 5.85257C59.9934 9.59991 57.8855 14.6824 57.8855 19.9819V57.3011H25.0796C18.4858 57.3011 12.1621 59.9172 7.49959 64.5738C2.83708 69.2304 0.217712 75.5461 0.217712 82.1316V106.371H0.659048C5.80038 106.377 10.9353 106.01 16.0234 105.272C26.1915 103.79 36.0855 100.819 45.3869 96.4569C61.6715 88.8202 75.7387 77.1646 86.2605 62.5904C87.508 60.8645 88.7015 59.1014 89.8411 57.3011C96.784 46.3622 101.634 34.2313 104.143 21.5246C105.474 14.7786 106.142 7.91889 106.138 1.04317V0.0146935L77.8927 0Z" fill="url(#paint0_linear_33_8)"/>
<path d="M101.334 35.5825C98.6642 47.0319 94.0828 57.9504 87.7816 67.8797C86.642 69.6801 85.4484 71.4432 84.2009 73.1691C73.6791 87.7433 59.6119 99.3989 43.3274 107.035C34.026 111.398 24.132 114.368 13.9638 115.851C9.41055 116.515 4.81875 116.881 0.217712 116.947V111.07C4.89897 111.007 9.57121 110.641 14.2051 109.974C28.3362 107.953 41.9217 103.138 54.1664 95.8089C66.4111 88.48 77.069 78.7852 85.5161 67.292C86.7812 65.5662 87.9925 63.803 89.1497 62.0027C94.4302 53.8095 98.5315 44.9158 101.334 35.5825Z" fill="url(#paint1_linear_33_8)"/>
<path d="M106.138 0V1.02848C106.142 7.90419 105.474 14.7639 104.143 21.51C100.889 31.396 94.7425 40.0808 86.4968 46.443C78.251 52.8051 68.285 56.5525 57.8856 57.2012V19.9819C57.8856 14.6824 59.9935 9.59991 63.7455 5.85257C67.4976 2.10523 72.5865 0 77.8928 0H106.138Z" fill="url(#paint2_linear_33_8)"/>
<path d="M86.131 174.239C91.4372 174.239 96.5262 172.134 100.278 168.387C104.03 164.64 106.138 159.557 106.138 154.258V116.938H138.944C145.538 116.938 151.862 114.322 156.524 109.666C161.187 105.009 163.806 98.6933 163.806 92.1079V67.868H163.365C158.223 67.8665 153.088 68.2378 148 68.9788C137.832 70.4616 127.938 73.4319 118.637 77.7944C102.354 85.4277 88.2866 97.0792 77.7633 111.649C76.5158 113.375 75.3222 115.138 74.1826 116.938C63.5141 133.772 57.8616 153.289 57.8855 173.211V174.239H86.131Z" fill="url(#paint3_linear_33_8)"/>
<path d="M62.6902 138.657C65.3596 127.207 69.941 116.289 76.2421 106.36C77.3818 104.559 78.5753 102.796 79.8229 101.07C90.3443 86.4951 104.411 74.8384 120.696 67.201C129.998 62.8385 139.892 59.8682 150.06 58.3854C154.613 57.7218 159.205 57.3557 163.806 57.2893V63.1664C148.673 63.3686 133.751 66.7413 120.005 73.0662C103.528 80.6649 89.2528 92.319 78.5194 106.936C77.2543 108.661 76.0431 110.425 74.8858 112.225C69.6002 120.421 65.4949 129.319 62.6902 138.657Z" fill="url(#paint4_linear_33_8)"/>
<path d="M57.8855 174.239V173.211C57.8818 166.335 58.5499 159.476 59.8804 152.729C63.1326 142.841 69.2785 134.154 77.5244 127.789C85.7702 121.425 95.7373 117.676 106.138 117.026V154.257C106.138 159.557 104.03 164.64 100.278 168.387C96.5262 172.134 91.4372 174.239 86.131 174.239H57.8855Z" fill="url(#paint5_linear_33_8)"/>
<path d="M70.7343 199.975L73.5735 191.959H75.2006L78.0163 199.963H76.8129L74.4591 192.893H74.312L71.9582 199.963L70.7343 199.975ZM72.0818 198.18V197.333H76.7894V198.18H72.0818Z" fill="#0082A0"/>
<path d="M79.2903 201.929V196.845V193.707H80.2995L80.2377 195.317H80.4201C80.5057 194.988 80.6427 194.673 80.8262 194.386C80.9934 194.127 81.2231 193.914 81.4941 193.766C81.8057 193.613 82.1501 193.538 82.4974 193.548C83.011 193.531 83.5163 193.681 83.9361 193.977C84.3308 194.278 84.6302 194.686 84.7982 195.153C84.9995 195.693 85.0993 196.266 85.0924 196.842C85.1003 197.416 85.0005 197.986 84.7982 198.523C84.6316 198.986 84.3391 199.393 83.9538 199.699C83.5519 199.992 83.0627 200.142 82.565 200.125C82.1861 200.139 81.8108 200.046 81.4823 199.857C81.2014 199.68 80.968 199.437 80.8026 199.149C80.6304 198.847 80.4922 198.527 80.3907 198.194H80.2083C80.2495 198.412 80.2819 198.641 80.3113 198.879C80.3407 199.117 80.3642 199.349 80.3848 199.575C80.4054 199.802 80.4143 200.019 80.4143 200.231V201.917L79.2903 201.929ZM82.2914 199.164C82.6179 199.176 82.938 199.072 83.1947 198.87C83.4552 198.649 83.6489 198.36 83.7537 198.036C83.8846 197.649 83.9483 197.242 83.942 196.834C83.9515 196.416 83.8836 196.001 83.7419 195.608C83.629 195.298 83.4338 195.023 83.177 194.815C82.9254 194.618 82.6136 194.515 82.2943 194.521C82.0156 194.516 81.7405 194.585 81.497 194.721C81.2651 194.855 81.0645 195.038 80.9086 195.256C80.7475 195.478 80.6205 195.722 80.5319 195.981C80.4454 196.234 80.4007 196.499 80.3995 196.766V196.91C80.4026 197.093 80.4293 197.275 80.479 197.451C80.5356 197.653 80.6105 197.85 80.7026 198.038C80.8004 198.242 80.925 198.432 81.0733 198.603C81.224 198.778 81.4114 198.919 81.6224 199.014C81.8334 199.11 82.0627 199.158 82.2943 199.155L82.2914 199.164Z" fill="#0082A0"/>
<path d="M86.6988 199.975V191.474H87.7992V199.975H86.6988Z" fill="#0082A0"/>
<path d="M90.2796 192.614C90.0702 192.63 89.8619 192.571 89.6911 192.449C89.6288 192.388 89.5794 192.315 89.5457 192.234C89.5119 192.153 89.4945 192.067 89.4945 191.979C89.4945 191.892 89.5119 191.805 89.5457 191.724C89.5794 191.644 89.6288 191.571 89.6911 191.509C89.8672 191.407 90.0672 191.354 90.2707 191.354C90.4743 191.354 90.6742 191.407 90.8503 191.509C90.9195 191.569 90.9739 191.643 91.0091 191.728C91.0444 191.812 91.0595 191.903 91.0534 191.994C91.0591 192.081 91.0436 192.169 91.0083 192.249C90.9729 192.33 90.9188 192.4 90.8503 192.455C90.6834 192.571 90.4823 192.627 90.2796 192.614ZM89.7352 199.96V193.722H90.8386V199.99L89.7352 199.96Z" fill="#0082A0"/>
<path d="M92.7451 199.975V191.474H93.8514V196.325C94.7684 195.82 95.5772 195.14 96.2317 194.324C96.3891 194.13 96.5308 193.924 96.6554 193.707H97.9441C97.7797 194.029 97.5825 194.333 97.3556 194.615C97.1141 194.917 96.8485 195.199 96.5612 195.458C96.278 195.715 95.9683 195.94 95.6374 196.131C95.3376 196.308 95.0148 196.442 94.6782 196.531V196.678C95.0363 196.632 95.4003 196.679 95.7345 196.816C96.0428 196.949 96.3233 197.138 96.5612 197.374C96.8147 197.626 97.037 197.907 97.2232 198.212C97.4204 198.529 97.6146 198.864 97.8117 199.211L98.1883 199.975H96.9496L96.6819 199.417C96.4563 199.005 96.2297 198.632 96.0022 198.297C95.7973 197.982 95.5311 197.711 95.2196 197.501C94.9063 197.301 94.5407 197.199 94.1692 197.207H93.875V199.972L92.7451 199.975Z" fill="#0082A0"/>
<path d="M100.76 200.122C100.439 200.128 100.121 200.061 99.83 199.928C99.5613 199.8 99.3362 199.595 99.1828 199.34C99.0086 199.036 98.9239 198.688 98.9385 198.338C98.9331 198.067 98.9894 197.797 99.1033 197.551C99.219 197.314 99.3944 197.111 99.6123 196.963C99.8872 196.78 100.19 196.644 100.51 196.56C100.947 196.443 101.391 196.354 101.84 196.296C102.134 196.255 102.384 196.214 102.569 196.172C102.724 196.149 102.868 196.08 102.981 195.973C103.031 195.914 103.068 195.845 103.092 195.772C103.115 195.698 103.123 195.621 103.117 195.544C103.119 195.401 103.092 195.26 103.037 195.129C102.983 194.997 102.902 194.878 102.799 194.78C102.664 194.664 102.508 194.577 102.339 194.522C102.171 194.468 101.993 194.447 101.816 194.462C101.573 194.464 101.332 194.504 101.101 194.58C100.858 194.656 100.639 194.796 100.469 194.985C100.277 195.213 100.155 195.49 100.115 195.785L99.0974 195.447C99.1493 195.166 99.2563 194.898 99.4122 194.659C99.5695 194.424 99.769 194.22 100.001 194.057C100.25 193.882 100.528 193.753 100.822 193.675C101.161 193.583 101.512 193.539 101.863 193.543C102.315 193.527 102.764 193.615 103.175 193.801C103.524 193.977 103.803 194.266 103.967 194.621C104.158 195.065 104.248 195.546 104.232 196.028V197.424C104.232 197.683 104.232 197.959 104.232 198.253C104.232 198.547 104.27 198.841 104.293 199.135C104.317 199.428 104.343 199.705 104.367 199.963H103.334C103.334 199.713 103.299 199.455 103.278 199.193C103.258 198.932 103.246 198.667 103.237 198.4H103.078C102.958 198.705 102.795 198.991 102.593 199.249C102.378 199.528 102.099 199.751 101.78 199.901C101.462 200.05 101.112 200.122 100.76 200.11V200.122ZM101.101 199.24C101.282 199.238 101.462 199.209 101.634 199.152C101.831 199.08 102.017 198.981 102.187 198.858C102.383 198.719 102.557 198.551 102.702 198.359C102.875 198.135 103.019 197.889 103.128 197.627V196.425L103.467 196.475C103.322 196.62 103.142 196.726 102.946 196.784C102.708 196.862 102.464 196.919 102.216 196.954C101.957 196.985 101.698 197.027 101.439 197.078C101.197 197.121 100.96 197.187 100.73 197.277C100.53 197.351 100.352 197.474 100.213 197.636C100.074 197.815 100.005 198.039 100.018 198.265C100.008 198.401 100.029 198.539 100.08 198.666C100.131 198.793 100.211 198.907 100.313 198.999C100.538 199.171 100.818 199.255 101.101 199.234V199.24Z" fill="#0082A0"/>
<path d="M108.421 200.122C108.03 200.128 107.64 200.08 107.262 199.981C106.957 199.903 106.669 199.77 106.412 199.587C106.192 199.428 106.013 199.218 105.891 198.976C105.77 198.727 105.702 198.456 105.691 198.18L106.624 197.927C106.604 198.175 106.673 198.421 106.818 198.623C106.985 198.836 107.211 198.994 107.468 199.079C107.799 199.19 108.146 199.243 108.495 199.234C108.877 199.255 109.257 199.172 109.595 198.993C109.715 198.928 109.816 198.832 109.885 198.715C109.954 198.597 109.991 198.463 109.99 198.326C109.994 198.23 109.978 198.133 109.941 198.044C109.903 197.954 109.847 197.874 109.775 197.809C109.595 197.672 109.388 197.572 109.169 197.515C108.872 197.427 108.57 197.355 108.265 197.298C107.971 197.233 107.677 197.16 107.383 197.081C107.108 197.004 106.843 196.896 106.594 196.757C106.359 196.632 106.157 196.451 106.006 196.231C105.855 195.987 105.78 195.704 105.788 195.417C105.775 195.065 105.879 194.718 106.082 194.43C106.304 194.141 106.603 193.92 106.944 193.792C107.373 193.63 107.828 193.553 108.286 193.563C108.739 193.552 109.189 193.632 109.61 193.798C109.951 193.939 110.248 194.167 110.472 194.459C110.684 194.75 110.806 195.096 110.825 195.456L109.878 195.708C109.878 195.458 109.799 195.214 109.651 195.012C109.505 194.825 109.309 194.683 109.086 194.6C108.819 194.5 108.536 194.453 108.251 194.459C107.892 194.44 107.535 194.525 107.224 194.703C107.11 194.77 107.015 194.866 106.95 194.981C106.885 195.096 106.851 195.226 106.853 195.359C106.849 195.456 106.867 195.554 106.906 195.644C106.944 195.734 107.003 195.814 107.077 195.879C107.256 196.019 107.464 196.119 107.686 196.173C107.939 196.246 108.224 196.314 108.542 196.378C108.86 196.443 109.175 196.528 109.469 196.61C109.745 196.682 110.011 196.788 110.26 196.925C110.483 197.048 110.672 197.225 110.81 197.439C110.958 197.687 111.03 197.971 111.019 198.259C111.031 198.633 110.917 199 110.696 199.302C110.462 199.597 110.146 199.815 109.787 199.928C109.345 200.065 108.884 200.13 108.421 200.122Z" fill="#0082A0"/>
<path d="M113.073 192.614C112.864 192.631 112.655 192.572 112.485 192.449C112.417 192.393 112.364 192.321 112.329 192.24C112.294 192.158 112.279 192.07 112.285 191.982C112.279 191.894 112.294 191.805 112.327 191.723C112.361 191.642 112.413 191.568 112.479 191.509C112.655 191.407 112.855 191.354 113.058 191.354C113.262 191.354 113.462 191.407 113.638 191.509C113.707 191.569 113.76 191.644 113.795 191.728C113.83 191.812 113.845 191.903 113.838 191.994C113.844 192.081 113.828 192.168 113.794 192.249C113.759 192.329 113.705 192.4 113.638 192.455C113.472 192.569 113.274 192.625 113.073 192.614ZM112.526 199.96V193.722H113.632V199.99L112.526 199.96Z" fill="#0082A0"/>
<path d="M121.5 200.122C121.032 200.128 120.565 200.074 120.111 199.963C119.74 199.877 119.393 199.709 119.096 199.472C118.834 199.251 118.631 198.967 118.507 198.647C118.368 198.286 118.311 197.898 118.343 197.512L119.337 197.295C119.301 197.665 119.378 198.037 119.558 198.362C119.736 198.653 120.007 198.876 120.329 198.993C120.723 199.14 121.141 199.21 121.561 199.199C121.955 199.21 122.347 199.152 122.721 199.029C122.997 198.94 123.242 198.777 123.43 198.556C123.59 198.361 123.676 198.117 123.674 197.865C123.679 197.736 123.655 197.608 123.605 197.489C123.554 197.371 123.477 197.265 123.38 197.18C123.158 196.998 122.902 196.862 122.626 196.781C122.29 196.672 121.947 196.585 121.6 196.519C121.22 196.437 120.843 196.346 120.47 196.24C120.12 196.142 119.782 196.004 119.464 195.829C119.175 195.668 118.929 195.442 118.746 195.168C118.559 194.859 118.467 194.502 118.481 194.142C118.468 193.7 118.595 193.265 118.843 192.899C119.101 192.545 119.452 192.271 119.858 192.106C120.34 191.904 120.859 191.804 121.382 191.812C121.918 191.802 122.452 191.895 122.953 192.085C123.384 192.246 123.761 192.525 124.042 192.89C124.32 193.279 124.468 193.746 124.465 194.224L123.421 194.468C123.427 194.208 123.378 193.95 123.277 193.71C123.181 193.498 123.037 193.311 122.856 193.163C122.665 193.009 122.445 192.895 122.209 192.828C121.935 192.754 121.653 192.718 121.37 192.72C121.046 192.715 120.724 192.772 120.423 192.89C120.172 192.986 119.95 193.145 119.778 193.352C119.624 193.548 119.543 193.792 119.549 194.042C119.538 194.186 119.561 194.331 119.617 194.464C119.672 194.598 119.759 194.716 119.87 194.809C120.133 195.008 120.433 195.151 120.752 195.232C121.108 195.338 121.491 195.435 121.894 195.526C122.241 195.599 122.585 195.691 122.921 195.793C123.24 195.893 123.547 196.025 123.839 196.187C124.109 196.343 124.334 196.567 124.492 196.837C124.67 197.183 124.753 197.57 124.733 197.958C124.713 198.347 124.59 198.723 124.377 199.049C124.108 199.417 123.734 199.695 123.303 199.846C122.724 200.047 122.113 200.141 121.5 200.122Z" fill="#0082A0"/>
<path d="M126.343 199.975V191.474H127.446V196.325C127.76 196.149 128.063 195.953 128.352 195.738C128.64 195.523 128.913 195.291 129.17 195.041C129.404 194.815 129.623 194.573 129.826 194.318C129.985 194.125 130.128 193.918 130.253 193.701H131.538C131.374 194.023 131.177 194.328 130.95 194.609C130.709 194.911 130.443 195.193 130.156 195.453C129.872 195.709 129.563 195.934 129.232 196.125C128.932 196.302 128.609 196.436 128.273 196.525V196.672C128.631 196.626 128.995 196.674 129.329 196.81C129.637 196.943 129.917 197.133 130.156 197.368C130.408 197.621 130.63 197.902 130.818 198.206C131.015 198.523 131.206 198.858 131.406 199.205L131.783 199.969H130.544L130.276 199.411C130.051 198.999 129.824 198.626 129.597 198.291C129.392 197.976 129.126 197.705 128.814 197.495C128.5 197.295 128.133 197.193 127.761 197.201H127.466V199.966L126.343 199.975Z" fill="#0082A0"/>
<path d="M132.962 199.975V196.581V193.707H133.983L133.872 195.888H134.081C134.138 195.462 134.252 195.046 134.419 194.65C134.552 194.331 134.766 194.051 135.04 193.839C135.314 193.639 135.647 193.536 135.987 193.546C136.085 193.546 136.184 193.552 136.281 193.563C136.404 193.579 136.525 193.605 136.643 193.642L136.584 194.818C136.471 194.762 136.35 194.724 136.225 194.703C136.111 194.684 135.995 194.674 135.878 194.674C135.576 194.663 135.281 194.768 135.054 194.968C134.803 195.196 134.603 195.474 134.466 195.785C134.297 196.162 134.169 196.556 134.083 196.96V199.966L132.962 199.975Z" fill="#0082A0"/>
<path d="M138.367 192.614C138.158 192.631 137.949 192.573 137.779 192.449C137.711 192.393 137.657 192.321 137.622 192.24C137.586 192.159 137.571 192.071 137.576 191.982C137.571 191.894 137.585 191.805 137.619 191.723C137.652 191.642 137.704 191.568 137.77 191.509C137.948 191.404 138.152 191.349 138.359 191.349C138.566 191.349 138.769 191.404 138.947 191.509C139.016 191.569 139.07 191.644 139.104 191.728C139.139 191.812 139.154 191.903 139.147 191.994C139.153 192.081 139.137 192.168 139.103 192.249C139.068 192.329 139.015 192.4 138.947 192.455C138.777 192.572 138.573 192.628 138.367 192.614ZM137.82 199.96V193.722H138.924V199.99L137.82 199.96Z" fill="#0082A0"/>
<path d="M140.83 199.975V196.073V193.698H141.851L141.742 195.673H141.925C142.013 195.251 142.169 194.846 142.387 194.474C142.559 194.177 142.811 193.933 143.113 193.769C143.434 193.609 143.788 193.531 144.146 193.54C144.451 193.521 144.755 193.58 145.031 193.71C145.307 193.841 145.545 194.039 145.723 194.286C146.078 194.782 146.257 195.523 146.259 196.511V199.966H145.14V196.616C145.179 196.07 145.064 195.523 144.808 195.038C144.704 194.875 144.559 194.743 144.388 194.653C144.216 194.564 144.024 194.521 143.831 194.53C143.459 194.518 143.097 194.65 142.819 194.897C142.531 195.157 142.313 195.484 142.184 195.849C142.028 196.262 141.944 196.698 141.933 197.139V199.978L140.83 199.975Z" fill="#0082A0"/>
<path d="M148.627 192.614C148.418 192.631 148.209 192.572 148.039 192.449C147.976 192.388 147.927 192.315 147.893 192.234C147.859 192.153 147.842 192.067 147.842 191.979C147.842 191.892 147.859 191.805 147.893 191.724C147.927 191.644 147.976 191.571 148.039 191.509C148.215 191.407 148.415 191.354 148.618 191.354C148.822 191.354 149.022 191.407 149.198 191.509C149.266 191.569 149.32 191.644 149.355 191.728C149.39 191.812 149.404 191.903 149.398 191.994C149.403 192.081 149.388 192.168 149.353 192.249C149.319 192.329 149.265 192.4 149.198 192.455C149.031 192.57 148.83 192.626 148.627 192.614ZM148.08 199.96V193.722H149.186V199.99L148.08 199.96Z" fill="#0082A0"/>
<path d="M151.093 199.975V196.073V193.698H152.111L152.002 195.673H152.184C152.274 195.251 152.43 194.847 152.646 194.474C152.819 194.176 153.072 193.932 153.376 193.769C153.695 193.61 154.049 193.531 154.406 193.54C154.711 193.521 155.015 193.58 155.292 193.71C155.568 193.841 155.807 194.039 155.986 194.286C156.341 194.782 156.518 195.523 156.518 196.51V199.966H155.403V196.616C155.441 196.069 155.325 195.523 155.068 195.038C154.964 194.875 154.819 194.742 154.648 194.652C154.476 194.563 154.284 194.521 154.091 194.53C153.725 194.521 153.369 194.651 153.096 194.894C152.808 195.154 152.589 195.481 152.458 195.846C152.304 196.26 152.219 196.696 152.208 197.136V199.975H151.093Z" fill="#0082A0"/>
<path d="M160.672 202.097C160.122 202.108 159.573 202.057 159.034 201.947C158.683 201.886 158.357 201.724 158.098 201.479C157.904 201.273 157.798 200.999 157.804 200.715C157.8 200.54 157.837 200.365 157.912 200.206C157.987 200.047 158.098 199.908 158.236 199.799C158.623 199.52 159.077 199.35 159.551 199.308V199.079C159.223 199.104 158.894 199.056 158.586 198.938C158.491 198.902 158.409 198.839 158.352 198.755C158.294 198.671 158.264 198.572 158.266 198.47C158.267 198.356 158.298 198.245 158.355 198.146C158.413 198.047 158.494 197.965 158.592 197.906C158.917 197.715 159.269 197.574 159.637 197.489V197.248C159.431 197.256 159.226 197.22 159.035 197.144C158.844 197.067 158.671 196.952 158.528 196.804C158.256 196.499 158.114 196.101 158.13 195.694C158.119 195.305 158.237 194.924 158.466 194.609C158.714 194.288 159.049 194.044 159.431 193.907C159.921 193.728 160.44 193.643 160.961 193.657H163.924V194.603L161.994 194.31V194.55C162.388 194.609 162.758 194.777 163.062 195.035C163.186 195.154 163.284 195.297 163.349 195.456C163.414 195.615 163.445 195.786 163.438 195.958C163.444 196.288 163.335 196.61 163.129 196.869C162.89 197.145 162.578 197.348 162.229 197.457C161.761 197.609 161.27 197.681 160.778 197.668C160.672 197.668 160.561 197.668 160.44 197.651C160.319 197.633 160.146 197.615 159.928 197.583C159.719 197.73 159.546 197.856 159.413 197.965C159.281 198.074 159.213 198.174 159.213 198.259C159.213 198.344 159.272 198.429 159.396 198.479C159.54 198.531 159.69 198.564 159.843 198.576C160.022 198.591 160.193 198.6 160.355 198.6H161.776C161.981 198.602 162.185 198.618 162.388 198.647C162.642 198.682 162.892 198.749 163.129 198.847C163.376 198.949 163.59 199.118 163.747 199.334C163.929 199.603 164.017 199.924 163.997 200.248C164.011 200.639 163.872 201.02 163.609 201.309C163.298 201.611 162.905 201.816 162.479 201.897C161.887 202.035 161.281 202.102 160.672 202.097ZM160.696 201.189C161.137 201.197 161.579 201.164 162.014 201.092C162.287 201.055 162.544 200.943 162.756 200.768C162.832 200.697 162.893 200.609 162.933 200.513C162.974 200.416 162.993 200.312 162.991 200.207C163.002 200.028 162.945 199.851 162.829 199.713C162.719 199.598 162.58 199.515 162.426 199.472C162.269 199.427 162.109 199.397 161.946 199.381C161.785 199.381 161.652 199.358 161.523 199.358H160.113C159.753 199.408 159.415 199.559 159.137 199.793C158.976 199.947 158.882 200.158 158.875 200.38C158.866 200.481 158.884 200.582 158.926 200.673C158.967 200.765 159.032 200.844 159.113 200.904C159.311 201.03 159.536 201.109 159.769 201.133C160.076 201.174 160.386 201.193 160.696 201.189ZM160.843 196.969C161.253 196.998 161.66 196.886 161.996 196.651C162.126 196.547 162.229 196.414 162.296 196.262C162.364 196.11 162.394 195.945 162.385 195.779C162.39 195.603 162.357 195.428 162.289 195.266C162.221 195.104 162.119 194.958 161.991 194.838C161.658 194.573 161.238 194.442 160.814 194.471C160.392 194.441 159.974 194.566 159.637 194.821C159.504 194.932 159.398 195.071 159.326 195.229C159.255 195.387 159.22 195.559 159.225 195.732C159.219 195.963 159.284 196.189 159.413 196.381C159.549 196.574 159.74 196.721 159.96 196.804C160.24 196.919 160.541 196.975 160.843 196.969Z" fill="#0082A0"/>
<path d="M71.4345 211.447V203.442H72.5643V211.447H71.4345Z" fill="#0082A0"/>
<path d="M74.5592 211.447V207.553V205.176H75.5801L75.4683 207.154H75.6507C75.7406 206.731 75.8965 206.326 76.1127 205.952C76.2884 205.657 76.5404 205.414 76.8423 205.25C77.1627 205.09 77.5172 205.011 77.8751 205.02C78.1796 205.002 78.4839 205.061 78.7596 205.191C79.0353 205.322 79.2736 205.52 79.4521 205.767C79.8091 206.262 79.9876 207.004 79.9876 207.991V211.447H78.8695V208.088C78.9073 207.541 78.7911 206.995 78.5341 206.51C78.4308 206.347 78.286 206.214 78.1144 206.124C77.9428 206.035 77.7506 205.993 77.5573 206.002C77.1917 205.99 76.8351 206.117 76.5599 206.357C76.2725 206.618 76.0533 206.945 75.9214 207.309C75.7672 207.723 75.6836 208.159 75.6743 208.599V211.438L74.5592 211.447Z" fill="#0082A0"/>
<path d="M83.7477 211.567C83.5119 211.586 83.2748 211.554 83.0528 211.472C82.8308 211.39 82.6292 211.262 82.462 211.094C82.141 210.675 81.9888 210.151 82.0354 209.625V206.099H81.0997V205.191H81.6882C81.8431 205.187 81.9943 205.142 82.1266 205.062C82.18 205.018 82.2238 204.964 82.2552 204.903C82.2866 204.842 82.3049 204.775 82.309 204.706L82.4179 203.772H83.0916V205.182H84.9011V206.117H83.0916V209.643C83.0802 209.769 83.095 209.895 83.135 210.015C83.175 210.135 83.2394 210.245 83.3241 210.339C83.4087 210.417 83.508 210.477 83.6161 210.516C83.7242 210.554 83.839 210.571 83.9537 210.565C84.1178 210.565 84.2811 210.542 84.4392 210.498C84.619 210.445 84.7883 210.362 84.9394 210.251V211.353C84.5559 211.503 84.1479 211.581 83.736 211.582L83.7477 211.567Z" fill="#0082A0"/>
<path d="M88.8114 211.594C88.366 211.602 87.9229 211.528 87.505 211.373C87.1422 211.239 86.8158 211.021 86.5518 210.739C86.2843 210.45 86.0835 210.106 85.9633 209.731C85.8287 209.305 85.7632 208.861 85.7691 208.414C85.765 207.954 85.8325 207.496 85.9692 207.057C86.092 206.669 86.2833 206.305 86.5341 205.984C86.7807 205.679 87.0949 205.436 87.4521 205.273C87.8477 205.099 88.2763 205.013 88.7084 205.02C89.0974 205.014 89.4836 205.086 89.8441 205.232C90.1783 205.373 90.4739 205.591 90.7062 205.87C90.9607 206.185 91.1453 206.55 91.2475 206.942C91.3741 207.439 91.4228 207.953 91.3917 208.464L86.4605 208.5V207.762L90.7121 207.712L90.3472 208.22C90.3969 207.797 90.3476 207.367 90.2031 206.966C90.0884 206.659 89.8832 206.395 89.6146 206.208C89.352 206.037 89.045 205.948 88.7319 205.952C88.3815 205.944 88.0375 206.047 87.7492 206.246C87.4594 206.457 87.2359 206.747 87.1049 207.08C86.9416 207.502 86.8636 207.951 86.8754 208.403C86.833 209.012 87.0093 209.616 87.3726 210.107C87.5571 210.31 87.7855 210.468 88.0404 210.57C88.2952 210.672 88.57 210.715 88.8437 210.695C89.0717 210.699 89.299 210.669 89.5175 210.604C89.693 210.551 89.8575 210.468 90.003 210.357C90.1356 210.252 90.2491 210.124 90.3384 209.981C90.427 209.834 90.4925 209.674 90.5326 209.507L91.5035 209.725C91.4289 210.001 91.3139 210.264 91.1622 210.507C91.0186 210.736 90.8317 210.936 90.612 211.094C90.3796 211.263 90.1184 211.389 89.8412 211.465C89.5059 211.557 89.1591 211.601 88.8114 211.594Z" fill="#0082A0"/>
<path d="M95.3196 213.569C94.7701 213.576 94.2214 213.523 93.6837 213.41C93.3331 213.348 93.008 213.186 92.7481 212.943C92.5541 212.736 92.4485 212.462 92.4538 212.179C92.4503 212.003 92.4875 211.829 92.5625 211.67C92.6375 211.511 92.7484 211.371 92.8863 211.262C93.2735 210.985 93.7274 210.815 94.2015 210.771V210.542C93.8734 210.566 93.544 210.517 93.2365 210.401C93.1415 210.366 93.0596 210.303 93.0021 210.22C92.9447 210.137 92.9145 210.038 92.9158 209.937C92.9165 209.822 92.947 209.71 93.0043 209.611C93.0615 209.512 93.1436 209.43 93.2424 209.372C93.5664 209.179 93.9189 209.037 94.2869 208.952V208.723C94.0812 208.731 93.8762 208.695 93.6851 208.619C93.494 208.542 93.3212 208.427 93.1776 208.279C92.9059 207.974 92.7635 207.576 92.7804 207.168C92.7695 206.78 92.8874 206.399 93.1159 206.084C93.3637 205.763 93.6986 205.519 94.0809 205.382C94.5705 205.203 95.0897 205.118 95.6109 205.132H98.5737V206.064L96.6436 205.77V206.011C97.0382 206.069 97.4083 206.237 97.7116 206.496C97.8363 206.614 97.9344 206.757 97.9994 206.916C98.0643 207.075 98.0946 207.247 98.0882 207.418C98.0941 207.748 97.9848 208.069 97.7793 208.326C97.5406 208.603 97.2285 208.807 96.879 208.914C96.4111 209.067 95.9205 209.138 95.4284 209.126C95.3225 209.126 95.2107 209.126 95.0901 209.108C94.9695 209.09 94.7959 209.073 94.5781 209.04C94.3692 209.187 94.1956 209.314 94.0632 209.422C93.9308 209.531 93.8632 209.631 93.8632 209.716C93.8632 209.801 93.922 209.887 94.0456 209.937C94.1897 209.989 94.3401 210.021 94.4928 210.034C94.6723 210.034 94.8429 210.057 95.0048 210.057H96.4259C96.6307 210.06 96.8351 210.075 97.0379 210.104C97.2925 210.139 97.5417 210.206 97.7793 210.304C98.0254 210.407 98.239 210.574 98.3972 210.789C98.5822 211.092 98.6683 211.445 98.6435 211.8C98.6188 212.154 98.4843 212.492 98.2589 212.766C97.9474 213.068 97.5548 213.272 97.1291 213.354C96.5364 213.496 95.9291 213.568 95.3196 213.569ZM95.3431 212.661C95.7845 212.669 96.2258 212.636 96.6612 212.564C96.9331 212.527 97.1895 212.416 97.4027 212.243C97.4799 212.171 97.5408 212.084 97.5814 211.987C97.622 211.889 97.6413 211.784 97.6381 211.679C97.6496 211.5 97.5916 211.323 97.4762 211.185C97.3661 211.07 97.2268 210.987 97.0732 210.944C96.9161 210.901 96.7557 210.87 96.5936 210.853C96.4529 210.838 96.3114 210.83 96.1699 210.83H94.7605C94.4 210.879 94.061 211.03 93.7837 211.265C93.6235 211.419 93.5296 211.63 93.5219 211.852C93.5134 211.953 93.5309 212.053 93.5727 212.145C93.6144 212.237 93.679 212.316 93.7602 212.376C93.9574 212.503 94.1824 212.582 94.4163 212.605C94.7235 212.646 95.0332 212.664 95.3431 212.661ZM95.4902 208.441C95.8997 208.47 96.3069 208.358 96.6436 208.123C96.7714 208.02 96.8731 207.889 96.9406 207.739C97.008 207.59 97.0394 207.426 97.032 207.263C97.0367 207.087 97.004 206.912 96.9361 206.75C96.8681 206.588 96.7664 206.442 96.6377 206.322C96.3066 206.054 95.8859 205.922 95.4608 205.952C95.0389 205.925 94.6213 206.05 94.2839 206.305C94.1508 206.415 94.0446 206.555 93.9733 206.713C93.9019 206.871 93.8673 207.042 93.872 207.215C93.8657 207.446 93.9315 207.673 94.0603 207.865C94.1973 208.056 94.3876 208.204 94.6076 208.288C94.8888 208.397 95.1888 208.449 95.4902 208.441Z" fill="#0082A0"/>
<path d="M100.057 211.447V208.053V205.176H101.075L100.966 207.359H101.172C101.23 206.934 101.345 206.518 101.513 206.122C101.645 205.803 101.858 205.524 102.131 205.311C102.406 205.112 102.739 205.008 103.078 205.017C103.177 205.018 103.275 205.024 103.373 205.035C103.496 205.051 103.618 205.077 103.737 205.114L103.676 206.29C103.563 206.234 103.443 206.196 103.32 206.175C103.205 206.156 103.089 206.146 102.972 206.146C102.669 206.136 102.374 206.241 102.146 206.44C101.896 206.669 101.696 206.947 101.557 207.257C101.389 207.634 101.261 208.028 101.175 208.432V211.438L100.057 211.447Z" fill="#0082A0"/>
<path d="M106.138 211.594C105.819 211.6 105.502 211.533 105.211 211.4C104.941 211.273 104.714 211.068 104.561 210.812C104.388 210.508 104.303 210.162 104.317 209.813C104.312 209.542 104.368 209.272 104.482 209.026C104.597 208.789 104.773 208.586 104.991 208.438C105.267 208.255 105.571 208.119 105.891 208.035C106.328 207.917 106.772 207.829 107.221 207.771C107.515 207.73 107.762 207.689 107.948 207.647C108.103 207.624 108.248 207.555 108.363 207.448C108.462 207.328 108.509 207.173 108.495 207.019C108.497 206.877 108.471 206.736 108.416 206.604C108.362 206.473 108.282 206.354 108.18 206.255C108.045 206.139 107.888 206.052 107.719 205.997C107.55 205.943 107.372 205.922 107.194 205.937C106.951 205.938 106.71 205.978 106.48 206.055C106.236 206.131 106.018 206.271 105.847 206.46C105.655 206.687 105.534 206.965 105.497 207.26L104.476 206.922C104.528 206.64 104.635 206.372 104.791 206.131C104.95 205.902 105.149 205.702 105.379 205.543C105.629 205.37 105.907 205.241 106.2 205.161C106.54 205.07 106.892 205.025 107.244 205.029C107.695 205.013 108.144 205.102 108.554 205.291C108.903 205.465 109.182 205.753 109.345 206.108C109.536 206.552 109.626 207.032 109.61 207.515V208.908C109.61 209.17 109.61 209.446 109.61 209.74C109.61 210.034 109.645 210.327 109.669 210.621C109.692 210.915 109.719 211.209 109.742 211.453H108.71C108.695 211.203 108.674 210.947 108.657 210.683C108.639 210.418 108.621 210.157 108.613 209.89H108.457C108.335 210.194 108.17 210.48 107.968 210.739C107.754 211.018 107.475 211.242 107.157 211.392C106.838 211.542 106.487 211.613 106.135 211.6L106.138 211.594ZM106.48 210.712C106.661 210.711 106.841 210.68 107.012 210.621C107.21 210.552 107.397 210.453 107.565 210.327C107.762 210.189 107.937 210.022 108.083 209.831C108.256 209.606 108.398 209.36 108.507 209.099V207.897L108.848 207.947C108.7 208.086 108.52 208.187 108.324 208.241C108.091 208.312 107.852 208.362 107.609 208.391C107.35 208.422 107.091 208.463 106.833 208.514C106.589 208.557 106.351 208.624 106.121 208.714C105.922 208.788 105.745 208.91 105.606 209.07C105.468 209.25 105.399 209.475 105.411 209.701C105.401 209.838 105.423 209.975 105.474 210.103C105.525 210.23 105.604 210.344 105.706 210.436C105.923 210.616 106.197 210.712 106.48 210.706V210.712Z" fill="#0082A0"/>
<path d="M113.803 211.594C113.406 211.601 113.01 211.553 112.626 211.453C112.32 211.375 112.032 211.242 111.776 211.059C111.555 210.9 111.377 210.69 111.255 210.448C111.134 210.199 111.066 209.928 111.055 209.652L111.99 209.399C111.967 209.647 112.036 209.895 112.184 210.095C112.35 210.308 112.576 210.466 112.832 210.551C113.163 210.661 113.51 210.714 113.859 210.706C114.241 210.727 114.621 210.644 114.959 210.466C115.079 210.401 115.179 210.304 115.249 210.187C115.318 210.069 115.354 209.935 115.353 209.799C115.359 209.706 115.345 209.613 115.312 209.527C115.279 209.44 115.228 209.361 115.162 209.296C114.983 209.15 114.776 209.044 114.553 208.985C114.256 208.896 113.954 208.824 113.65 208.767C113.355 208.702 113.061 208.629 112.767 208.55C112.491 208.474 112.226 208.365 111.976 208.226C111.74 208.101 111.538 207.921 111.387 207.7C111.235 207.457 111.16 207.173 111.169 206.886C111.158 206.534 111.262 206.188 111.464 205.899C111.687 205.611 111.985 205.391 112.326 205.261C112.754 205.099 113.21 205.022 113.667 205.032C114.12 205.021 114.57 205.101 114.991 205.267C115.332 205.407 115.63 205.635 115.853 205.928C116.068 206.218 116.191 206.565 116.207 206.925L115.259 207.177C115.261 206.927 115.182 206.683 115.036 206.481C114.888 206.295 114.693 206.153 114.471 206.07C114.203 205.97 113.918 205.922 113.632 205.928C113.273 205.909 112.917 205.994 112.605 206.172C112.491 206.239 112.396 206.335 112.331 206.45C112.266 206.565 112.233 206.695 112.234 206.828C112.231 206.926 112.249 207.024 112.288 207.114C112.327 207.204 112.387 207.284 112.461 207.348C112.639 207.49 112.846 207.59 113.067 207.642C113.323 207.715 113.609 207.783 113.923 207.847C114.238 207.912 114.556 207.997 114.853 208.079C115.128 208.152 115.393 208.257 115.642 208.394C115.866 208.518 116.056 208.696 116.195 208.911C116.34 209.158 116.412 209.442 116.401 209.728C116.413 210.102 116.299 210.469 116.077 210.771C115.844 211.066 115.527 211.284 115.168 211.397C114.726 211.535 114.265 211.602 113.803 211.594Z" fill="#0082A0"/>
<path d="M118.451 204.086C118.242 204.103 118.033 204.044 117.863 203.921C117.801 203.86 117.751 203.787 117.718 203.706C117.684 203.625 117.666 203.539 117.666 203.451C117.666 203.364 117.684 203.277 117.718 203.196C117.751 203.116 117.801 203.043 117.863 202.981C118.039 202.879 118.239 202.826 118.443 202.826C118.646 202.826 118.846 202.879 119.022 202.981C119.091 203.041 119.145 203.117 119.18 203.201C119.215 203.286 119.229 203.378 119.222 203.469C119.228 203.556 119.213 203.643 119.179 203.723C119.144 203.802 119.09 203.873 119.022 203.927C118.855 204.042 118.654 204.098 118.451 204.086ZM117.904 211.447V205.182H119.01V211.453L117.904 211.447Z" fill="#0082A0"/>
<path d="M126.878 211.594C126.41 211.6 125.944 211.546 125.489 211.435C125.119 211.349 124.772 211.181 124.474 210.944C124.212 210.723 124.01 210.439 123.886 210.119C123.748 209.757 123.691 209.37 123.721 208.984L124.718 208.767C124.68 209.136 124.756 209.509 124.936 209.834C125.111 210.125 125.378 210.349 125.695 210.471C126.089 210.618 126.508 210.687 126.928 210.677C127.321 210.688 127.714 210.63 128.087 210.507C128.363 210.418 128.609 210.254 128.796 210.034C128.956 209.839 129.042 209.595 129.041 209.343C129.046 209.214 129.023 209.086 128.972 208.967C128.921 208.848 128.844 208.743 128.746 208.658C128.525 208.476 128.268 208.34 127.993 208.259C127.657 208.15 127.314 208.063 126.966 207.997C126.587 207.918 126.21 207.824 125.839 207.718C125.488 207.622 125.149 207.484 124.83 207.307C124.542 207.147 124.297 206.92 124.115 206.645C123.926 206.338 123.833 205.981 123.847 205.62C123.834 205.177 123.962 204.742 124.212 204.377C124.468 204.022 124.819 203.747 125.224 203.583C125.708 203.387 126.227 203.292 126.749 203.304C127.286 203.295 127.82 203.388 128.323 203.578C128.753 203.739 129.129 204.018 129.408 204.383C129.687 204.772 129.835 205.239 129.832 205.717L128.787 205.958C128.794 205.699 128.745 205.441 128.643 205.203C128.548 204.991 128.405 204.804 128.226 204.656C128.034 204.502 127.813 204.388 127.575 204.321C127.302 204.247 127.02 204.21 126.737 204.212C126.413 204.207 126.091 204.265 125.789 204.383C125.539 204.479 125.317 204.638 125.145 204.844C124.991 205.041 124.91 205.285 124.916 205.535C124.908 205.677 124.935 205.82 124.992 205.95C125.05 206.081 125.138 206.196 125.248 206.287C125.511 206.486 125.811 206.63 126.131 206.713C126.488 206.815 126.867 206.913 127.269 207.007C127.619 207.077 127.961 207.168 128.296 207.271C128.615 207.37 128.923 207.502 129.214 207.665C129.485 207.821 129.712 208.045 129.87 208.314C130.047 208.661 130.129 209.048 130.109 209.437C130.088 209.825 129.965 210.201 129.753 210.527C129.483 210.895 129.109 211.172 128.679 211.324C128.1 211.523 127.49 211.615 126.878 211.594Z" fill="#0082A0"/>
<path d="M134.407 211.594C133.963 211.603 133.521 211.528 133.104 211.373C132.741 211.239 132.415 211.021 132.15 210.739C131.882 210.45 131.681 210.106 131.562 209.731C131.427 209.305 131.362 208.861 131.368 208.414C131.363 207.954 131.432 207.496 131.571 207.057C131.691 206.668 131.882 206.305 132.133 205.984C132.379 205.679 132.694 205.436 133.051 205.273C133.447 205.1 133.875 205.013 134.307 205.02C134.696 205.014 135.082 205.086 135.443 205.232C135.777 205.373 136.073 205.591 136.305 205.87C136.559 206.185 136.744 206.55 136.846 206.942C136.974 207.439 137.023 207.953 136.99 208.464L132.062 208.5V207.762L136.311 207.712L135.946 208.22C135.997 207.797 135.948 207.367 135.802 206.966C135.692 206.66 135.489 206.398 135.22 206.216C134.951 206.033 134.632 205.941 134.307 205.952C133.957 205.944 133.613 206.047 133.324 206.246C133.035 206.457 132.811 206.747 132.68 207.08C132.517 207.502 132.439 207.951 132.451 208.403C132.408 209.012 132.585 209.616 132.948 210.107C133.132 210.31 133.361 210.468 133.616 210.57C133.87 210.672 134.145 210.715 134.419 210.695C134.647 210.7 134.874 210.669 135.093 210.604C135.268 210.551 135.433 210.468 135.578 210.357C135.712 210.253 135.825 210.125 135.914 209.981C136.002 209.834 136.068 209.674 136.108 209.508L137.079 209.725C137.005 210.001 136.891 210.264 136.74 210.507C136.595 210.736 136.407 210.935 136.187 211.094C135.955 211.263 135.694 211.389 135.416 211.465C135.088 211.555 134.748 211.599 134.407 211.594Z" fill="#0082A0"/>
<path d="M138.597 211.447V207.627V202.925H139.739V204.903C139.739 205.073 139.739 205.247 139.739 205.429C139.739 205.611 139.715 205.796 139.694 205.981C139.674 206.166 139.65 206.355 139.621 206.546C139.591 206.737 139.568 206.928 139.544 207.133H139.762C139.854 206.722 140.006 206.326 140.212 205.958C140.378 205.664 140.621 205.421 140.915 205.256C141.222 205.097 141.564 205.018 141.91 205.026C142.219 205.004 142.528 205.061 142.809 205.192C143.089 205.322 143.332 205.522 143.513 205.773C143.861 206.269 144.037 207.007 144.037 207.985V211.453H142.919V208.121C142.919 207.386 142.807 206.85 142.584 206.513C142.476 206.349 142.327 206.216 142.151 206.128C141.975 206.04 141.78 205.999 141.583 206.011C141.242 206.002 140.91 206.118 140.648 206.337C140.374 206.577 140.162 206.879 140.03 207.218C139.87 207.626 139.771 208.055 139.736 208.491V211.45L138.597 211.447Z" fill="#0082A0"/>
<path d="M147.291 211.594C146.971 211.6 146.653 211.533 146.361 211.4C146.092 211.272 145.865 211.068 145.711 210.812C145.539 210.508 145.455 210.162 145.47 209.813C145.463 209.541 145.52 209.272 145.635 209.026C145.749 208.788 145.925 208.586 146.144 208.438C146.419 208.255 146.722 208.119 147.041 208.035C147.478 207.917 147.922 207.829 148.371 207.771C148.665 207.73 148.912 207.689 149.101 207.647C149.255 207.624 149.399 207.555 149.513 207.448C149.562 207.389 149.6 207.32 149.623 207.247C149.646 207.173 149.655 207.095 149.648 207.019C149.65 206.876 149.624 206.735 149.569 206.603C149.514 206.472 149.433 206.353 149.33 206.255C149.196 206.139 149.04 206.051 148.871 205.997C148.702 205.942 148.524 205.922 148.347 205.937C148.103 205.938 147.861 205.978 147.63 206.055C147.387 206.131 147.17 206.271 147 206.46C146.806 206.686 146.683 206.964 146.647 207.26L145.626 206.922C145.679 206.64 145.787 206.372 145.944 206.131C146.102 205.901 146.302 205.702 146.532 205.543C146.781 205.37 147.058 205.241 147.35 205.161C147.691 205.07 148.042 205.026 148.395 205.029C148.846 205.013 149.296 205.102 149.707 205.291C150.055 205.465 150.334 205.753 150.495 206.108C150.689 206.551 150.78 207.032 150.763 207.515V208.908C150.763 209.17 150.763 209.446 150.763 209.74C150.763 210.034 150.801 210.327 150.825 210.621C150.848 210.915 150.872 211.209 150.898 211.453H149.88C149.863 211.203 149.845 210.947 149.824 210.683C149.804 210.418 149.792 210.157 149.783 209.89H149.624C149.505 210.195 149.341 210.481 149.139 210.739C148.924 211.017 148.645 211.241 148.327 211.39C148.008 211.54 147.658 211.612 147.306 211.6L147.291 211.594ZM147.63 210.712C147.812 210.711 147.993 210.68 148.165 210.621C148.363 210.552 148.55 210.453 148.718 210.327C148.914 210.189 149.088 210.022 149.233 209.831C149.406 209.606 149.549 209.36 149.66 209.099V207.897L149.998 207.947C149.851 208.086 149.672 208.187 149.477 208.241C149.243 208.312 149.003 208.362 148.759 208.391C148.5 208.422 148.242 208.463 147.983 208.514C147.74 208.557 147.503 208.624 147.274 208.714C147.074 208.788 146.896 208.91 146.756 209.07C146.618 209.25 146.549 209.475 146.562 209.701C146.552 209.838 146.574 209.975 146.625 210.102C146.676 210.23 146.755 210.344 146.856 210.436C147.073 210.616 147.347 210.712 147.63 210.706V210.712Z" fill="#0082A0"/>
<path d="M154.564 211.567C154.329 211.586 154.092 211.554 153.87 211.472C153.648 211.39 153.446 211.262 153.279 211.094C152.958 210.675 152.806 210.151 152.852 209.625V206.099H151.916V205.191H152.505C152.659 205.186 152.809 205.142 152.94 205.062C152.994 205.018 153.038 204.964 153.069 204.903C153.1 204.842 153.119 204.775 153.123 204.706L153.232 203.772H153.911V205.182H155.721V206.117H153.911V209.643C153.9 209.769 153.915 209.895 153.955 210.015C153.995 210.135 154.059 210.245 154.144 210.339C154.228 210.417 154.328 210.477 154.436 210.516C154.544 210.554 154.659 210.571 154.773 210.565C154.937 210.565 155.101 210.542 155.259 210.498C155.439 210.445 155.608 210.362 155.759 210.251V211.353C155.376 211.503 154.968 211.581 154.556 211.582L154.564 211.567Z" fill="#0082A0"/>
<path d="M0 211.227L6.74361 191.903H11.4041L18.1477 211.227H14.6876L9.2651 194.509H8.88261L3.46007 211.227H0ZM3.40122 207.039V204.756H15.1878V207.039H3.40122Z" fill="#0082A0"/>
<path d="M27.5864 211.609C26.4567 211.622 25.3299 211.493 24.2322 211.227C23.3288 211.012 22.48 210.612 21.7402 210.051C21.0725 209.534 20.5438 208.86 20.2014 208.088C19.8365 207.249 19.6656 206.338 19.7012 205.423L22.5463 204.662C22.4769 205.516 22.6765 206.371 23.1171 207.107C23.552 207.777 24.1888 208.291 24.9354 208.576C25.8277 208.918 26.7781 209.082 27.7335 209.061C28.6237 209.084 29.5113 208.954 30.358 208.679C30.9826 208.484 31.5409 208.12 31.9703 207.627C32.3244 207.198 32.5161 206.658 32.5117 206.102C32.5244 205.813 32.4717 205.524 32.3577 205.258C32.2436 204.992 32.071 204.755 31.8526 204.565C31.3393 204.146 30.7455 203.837 30.1079 203.657C29.3861 203.434 28.575 203.224 27.6746 203.028C26.739 202.814 25.8181 202.584 24.9207 202.341C24.0612 202.113 23.2338 201.778 22.4581 201.344C21.7442 200.957 21.1377 200.398 20.6927 199.719C20.2346 198.951 20.0107 198.065 20.0484 197.172C20.0213 196.118 20.3305 195.082 20.931 194.216C21.5664 193.343 22.4281 192.66 23.4231 192.241C24.6424 191.731 25.9561 191.486 27.2774 191.521C28.6128 191.495 29.9408 191.724 31.1906 192.194C32.2416 192.592 33.1592 193.277 33.8386 194.171C34.5017 195.099 34.8605 196.209 34.8655 197.348L31.9615 198.109C31.9753 197.504 31.8599 196.903 31.6231 196.346C31.4091 195.862 31.0834 195.437 30.6728 195.103C30.2281 194.754 29.7193 194.495 29.1752 194.342C28.5473 194.16 27.896 194.071 27.2421 194.077C26.4883 194.063 25.7382 194.187 25.0296 194.445C24.4604 194.64 23.9571 194.99 23.5761 195.456C23.2449 195.882 23.0695 196.409 23.0789 196.948C23.0644 197.264 23.123 197.579 23.25 197.868C23.3771 198.158 23.5692 198.414 23.8115 198.617C24.3959 199.075 25.0708 199.403 25.7916 199.581C26.6213 199.816 27.5069 200.043 28.4396 200.257C29.2811 200.43 30.1167 200.648 30.9464 200.901C31.7483 201.142 32.5209 201.471 33.2502 201.882C33.9364 202.266 34.5112 202.821 34.9184 203.492C35.3555 204.263 35.5694 205.14 35.5363 206.025C35.5618 207.074 35.2527 208.103 34.6536 208.964C33.9808 209.861 33.0606 210.544 32.0056 210.927C30.8405 211.381 29.3674 211.609 27.5864 211.609Z" fill="#0082A0"/>
<path d="M39.373 211.227V191.903H42.6271V211.227H39.373Z" fill="#0082A0"/>
<path d="M47.4053 211.227V191.903H50.6006V211.227H47.4053ZM49.1706 202.705V200.04H61.4839V202.705H49.1706ZM60.2217 211.227V191.903H63.3787V211.227H60.2217Z" fill="#0082A0"/>
<defs>
<linearGradient id="paint0_linear_33_8" x1="-7.88226" y1="98.4051" x2="89.989" y2="25.9611" gradientUnits="userSpaceOnUse">
<stop stop-color="#0FB5A9"/>
<stop offset="0.49" stop-color="#13699B"/>
<stop offset="1" stop-color="#17163B"/>
</linearGradient>
<linearGradient id="paint1_linear_33_8" x1="-2.31261" y1="134.002" x2="128.247" y2="15.448" gradientUnits="userSpaceOnUse">
<stop stop-color="#0FB5A9"/>
<stop offset="0.49" stop-color="#13699B"/>
<stop offset="1" stop-color="#17163B"/>
</linearGradient>
<linearGradient id="paint2_linear_33_8" x1="49.053" y1="45.2649" x2="107.578" y2="1.94507" gradientUnits="userSpaceOnUse">
<stop stop-color="#0FB5A9"/>
<stop offset="1" stop-color="#13699B"/>
</linearGradient>
<linearGradient id="paint3_linear_33_8" x1="171.906" y1="75.8344" x2="74.0377" y2="148.278" gradientUnits="userSpaceOnUse">
<stop stop-color="#0FB5A9"/>
<stop offset="0.49" stop-color="#13699B"/>
<stop offset="1" stop-color="#17163B"/>
</linearGradient>
<linearGradient id="paint4_linear_33_8" x1="166.339" y1="40.2371" x2="35.7767" y2="158.791" gradientUnits="userSpaceOnUse">
<stop stop-color="#0FB5A9"/>
<stop offset="0.49" stop-color="#13699B"/>
<stop offset="1" stop-color="#17163B"/>
</linearGradient>
<linearGradient id="paint5_linear_33_8" x1="114.974" y1="128.974" x2="56.4462" y2="172.294" gradientUnits="userSpaceOnUse">
<stop stop-color="#0FB5A9"/>
<stop offset="1" stop-color="#13699B"/>
</linearGradient>
</defs>
</svg>
